<svg width="662" height="112" viewBox="0 0 662 112" fill="none" xmlns="http://www.w3.org/2000/svg" xmlns:xlink="http://www.w3.org/1999/xlink">
<path d="M259.441,11.028C259.441,13.675 260.494,16.214 262.368,18.086C264.242,19.958 266.785,21.01 269.435,21.01C272.086,21.01 274.628,19.958 276.502,18.086C278.376,16.214 279.429,13.675 279.429,11.028C279.333,8.445 278.237,6 276.374,4.206C274.51,2.413 272.023,1.411 269.435,1.411C266.847,1.411 264.36,2.413 262.496,4.206C260.633,6 259.537,8.445 259.441,11.028Z" fill="#273B7D"/>
<path d="M417.126,77.953C417.126,83.493 421.594,87.97 427.1,87.97C429.758,87.97 432.307,86.915 434.186,85.038C436.066,83.161 437.122,80.615 437.122,77.96C437.122,75.305 436.066,72.759 434.186,70.882C432.307,69.005 429.758,67.95 427.1,67.95C421.601,67.95 417.126,72.434 417.126,77.96Z" fill="#499FDD"/>
<path d="M95.423,18.56C86.821,18.56 80.835,25.387 80.835,35.146C80.835,44.899 86.82,51.718 95.43,51.718C104.08,51.718 110.128,44.899 110.128,35.146C110.128,25.234 104.213,18.56 95.423,18.56L95.423,18.56ZM95.423,66.296C77.216,66.296 64,53.192 64,35.146C64,17.093 77.223,3.997 95.423,3.997C113.706,3.997 126.971,17.093 126.971,35.139C126.971,53.192 113.706,66.296 95.43,66.296L95.423,66.296ZM240.086,33.582C239.452,34.806 238.651,35.936 237.706,36.94L237.149,37.517L237.734,38.073C238.569,38.956 239.425,39.998 240.246,41.208L256.323,65.065L236.808,65.065L224.733,46.401C224.051,45.4 222.673,44.899 220.606,44.899L217.857,44.899L217.857,80.184C217.857,87.24 213.452,88.199 208.698,88.199L200.555,88.199L200.576,4.915L217.864,4.915L217.864,29.898L219.486,29.898C221.455,29.898 222.791,29.669 223.411,28.598L232.945,10.622C235.611,5.742 238.263,4.915 243.26,4.915L256.504,4.915L246.635,21.209L240.093,33.582L240.086,33.582ZM324.006,66.435C315.21,66.435 309.6,62.528 306.454,59.226L305.41,58.169L305.034,59.608C304.116,63.147 300.998,65.086 296.314,65.086L288.568,65.086L288.616,4.935L305.786,4.935L305.786,32.658C305.786,35.369 306.134,37.718 306.858,39.866C308.764,46.366 314.096,50.405 320.756,50.405C326.114,50.405 328.21,47.575 328.21,40.276L328.21,14.077C328.21,7.848 331.098,4.935 337.34,4.935L345.512,4.935L345.484,43.196C345.484,58.392 338.058,66.428 324.006,66.428L324.006,66.435ZM269.644,65.065L261.508,65.065L261.564,18.553L261.564,4.915L270.242,4.915L270.548,4.901L274.6,4.915L278.622,4.915L278.622,4.935L278.65,4.935L278.684,55.924C278.684,62.076 275.74,65.058 269.652,65.058L269.644,65.065ZM162.855,18.56C154.253,18.56 148.26,25.387 148.26,35.146C148.26,44.899 154.253,51.718 162.862,51.718C171.492,51.718 177.561,44.899 177.561,35.146C177.561,25.234 171.645,18.56 162.862,18.56L162.855,18.56ZM162.855,66.296C144.634,66.296 131.411,53.192 131.411,35.146C131.411,17.093 144.635,3.997 162.862,3.997C181.117,3.997 194.41,17.093 194.41,35.139C194.41,53.192 181.117,66.296 162.862,66.296Z" fill="#273B7D"/>
<path d="M530.847,40.464C522.245,40.464 516.246,47.291 516.246,57.05C516.246,66.803 522.245,73.622 530.847,73.622C539.491,73.622 545.553,66.803 545.553,57.05C545.553,47.138 539.637,40.464 530.847,40.464ZM530.847,88.2C512.627,88.2 499.411,75.096 499.411,57.05C499.411,38.997 512.627,25.901 530.847,25.901C549.109,25.901 562.395,38.997 562.395,57.043C562.395,75.096 549.102,88.2 530.847,88.2Z" fill="#499FDD"/>
<path d="M381.681,65.295C372.292,65.295 368.951,73.469 368.951,81.137C368.951,84.515 369.807,95.519 380.783,95.519C386.232,95.519 393.491,93.962 393.491,80.574C393.491,67.943 387.067,65.295 381.681,65.295L381.681,65.295ZM402.406,109.311C399.149,109.311 396.644,108.011 395.384,105.641L394.911,104.723L394.117,105.418C391.347,107.809 386.378,110.653 378.312,110.653C362.256,110.653 351.448,98.606 351.448,80.692C351.448,62.785 362.632,50.273 378.632,50.273C384.096,50.273 388.417,51.552 391.841,54.138L393.164,55.132L393.164,53.463C393.164,45.427 387.965,40.992 378.535,40.992C373.948,40.992 369.78,42.105 366.982,43.12C363.349,44.218 361.205,43.307 359.737,39.658L358.373,36.293L356.445,31.372L357.635,30.739C363.676,27.541 371.533,25.63 378.632,25.63C393.248,25.63 410.326,33.103 410.326,54.138L410.389,109.311L402.406,109.311Z" fill="#273B7D"/>
<path d="M31.491,18.06L17.516,18.074L17.516,34.757C17.516,38.33 18.901,40.179 21.956,40.61L31.491,40.61C38.29,40.61 42.689,36.328 42.696,29.397C42.689,22.279 38.402,18.067 31.491,18.067L31.491,18.06ZM17.516,63.077L17.516,67.47C17.516,71.314 19.144,73.143 22.715,73.379L29.869,73.379C36.001,73.379 39.675,69.716 39.675,63.578C39.675,58.906 37.156,53.449 30.092,53.449L17.516,53.449L17.516,63.077L17.516,63.077ZM49.335,46.421L46.809,47.84L49.015,49.723C51.583,51.927 55.878,56.883 55.878,65.434C55.878,78.53 45.716,86.983 29.981,86.983L9.978,86.983C7.728,86.901 5.595,85.957 4.022,84.347C2.449,82.737 1.557,80.585 1.529,78.335L1.529,4.025L30.335,4.025C47.825,4.025 59.114,13.534 59.114,28.264C59.114,36.196 55.467,42.974 49.335,46.421Z" fill="#273B7D"/>
<path d="M639.084,88.61C635.539,88.596 632.043,87.788 628.853,86.245C625.663,84.701 622.861,82.461 620.655,79.691L619.416,78.12L618.441,79.879C615.254,85.669 609.784,88.61 602.177,88.61C594.194,88.61 588.842,84.161 586.357,81.519L584.729,79.76L584.102,82.075C583.197,85.412 580.226,87.24 575.73,87.24L568.513,87.24L568.443,27.319L584.833,27.319L584.833,53.769C584.833,56.091 585.126,58.378 585.703,60.776C587.269,67.171 591.57,74.046 598.801,73.358C603.255,72.927 605.441,69.486 605.441,62.841L605.441,27.319L621.949,27.319L621.949,53.769C621.949,56.668 622.221,58.837 622.875,61.005C624.197,67.109 628.693,73.365 635.667,73.365C640.719,73.365 642.585,70.515 642.585,62.841L642.585,36.078C642.585,30.03 645.285,27.319 651.347,27.319L659.059,27.319L659.073,65.573C659.073,80.859 652.335,88.61 639.084,88.61L639.084,88.61ZM489.91,48.125C489.861,48.062 482.811,40.638 473.52,40.638C465.057,40.638 456.511,45.824 456.511,57.398C456.511,67.394 463.136,74.38 472.629,74.38C475.706,74.38 479.213,73.282 479.763,71.426L479.84,71.113C480.19,69.835 480.953,68.709 482.01,67.908C483.067,67.107 484.359,66.677 485.686,66.685L494.664,66.671L494.664,74.512C494.664,84.856 481.489,88.61 472.629,88.61C453.671,88.61 439.919,75.43 439.919,57.273C439.919,39.129 453.518,25.963 472.281,25.963C488.553,25.963 497.406,36.648 497.489,36.752L497.963,37.336L490.85,49.119L489.91,48.125Z" fill="#499FDD"/>
</svg>
