<svg width="3434" height="1618" viewBox="0 0 3434 1618" fill="none" xmlns="http://www.w3.org/2000/svg" xmlns:xlink="http://www.w3.org/1999/xlink">
<g opacity="0.41">
<path d="M3373.593,284.909C3277.573,399.589 2996.473,630.667 2640.073,637.559C2584.313,638.637 2541.073,629.761 2507.073,613.741C2473.033,597.715 2448.313,574.569 2429.533,547.207C2397.233,500.147 2382.513,440.535 2368.353,383.205L2368.353,383.203L2368.333,383.127L2368.313,383.037L2368.313,383.013C2366.033,373.832 2363.793,364.709 2361.473,355.706C2353.093,323.023 2343.973,291.909 2330.813,265.155C2317.653,238.412 2300.453,216.087 2275.973,200.922C2227.013,170.599 2148.373,168.636 2013.083,218.479C1809.475,293.493 1697.761,403.353 1603.131,496.413C1572.063,526.967 1542.837,555.709 1512.803,580.813C1452.055,631.591 1388.025,667.423 1298.869,672.941C1209.759,678.455 1095.679,653.677 934.839,583.535C774.219,513.489 669.121,515.883 594.533,558.347C519.855,600.861 475.471,683.685 436.709,775.233C427.343,797.351 418.307,819.979 409.249,842.659C380.863,913.737 352.273,985.327 312.727,1043.351C260.499,1119.981 189.06,1173.125 73.624,1170.501L73.589,1168.547C188.153,1171.149 259.031,1118.491 311.001,1042.237C350.423,984.395 378.907,913.077 407.275,842.045L407.277,842.043C416.347,819.329 425.407,796.643 434.811,774.437C473.567,682.905 518.145,599.519 593.437,556.655C668.819,513.739 774.697,511.581 935.623,581.761C1096.329,651.843 1210.037,676.473 1298.655,670.989C1387.225,665.509 1450.863,629.937 1511.423,579.317C1541.305,554.341 1570.443,525.685 1601.451,495.189C1696.119,402.087 1808.235,291.825 2012.283,216.651C2147.653,166.775 2227.153,168.404 2277.033,199.293C2301.973,214.734 2319.373,237.42 2332.653,264.382C2345.913,291.333 2355.073,322.616 2363.453,355.313C2365.793,364.401 2368.073,373.597 2370.353,382.841L2370.353,382.853L2370.353,382.865L2370.353,382.877C2384.533,440.237 2399.153,499.449 2431.213,546.179C2449.813,573.279 2474.273,596.151 2507.913,611.993C2541.553,627.837 2584.433,636.677 2639.933,635.603C2995.533,628.729 3276.153,398.101 3371.993,283.649L3373.593,284.909ZM3368.753,374.262C3272.733,488.941 2991.633,720.021 2635.213,726.911C2579.473,727.989 2536.233,719.115 2502.213,703.093C2468.193,687.067 2443.453,663.921 2424.673,636.559C2392.393,589.499 2377.673,529.885 2363.513,472.555C2361.233,463.309 2358.953,454.123 2356.633,445.059C2348.253,412.375 2339.133,381.261 2325.973,354.508C2312.793,327.765 2295.613,305.44 2271.133,290.275C2222.153,259.952 2143.533,257.988 2008.239,307.832C1804.629,382.845 1692.915,492.707 1598.287,585.767C1567.217,616.319 1537.991,645.063 1507.957,670.165C1447.209,720.943 1383.179,756.777 1294.023,762.293C1204.913,767.807 1090.835,743.029 929.993,672.887C769.375,602.841 664.275,605.235 589.689,647.699C515.011,690.215 470.627,773.037 431.863,864.587C422.499,886.705 413.461,909.333 404.405,932.013C376.019,1003.089 347.429,1074.679 307.881,1132.705C255.655,1209.333 184.215,1262.477 68.778,1259.855L68.744,1257.899C183.308,1260.503 254.186,1207.843 306.155,1131.591C345.579,1073.749 374.063,1002.429 402.431,931.397L402.431,931.395L402.431,931.395C411.503,908.681 420.563,885.995 429.965,863.789C468.721,772.257 513.301,688.873 588.591,646.009C663.973,603.091 769.851,600.933 930.779,671.113C1091.483,741.197 1205.191,765.825 1293.809,760.341C1382.381,754.861 1446.019,719.291 1506.579,668.671C1536.461,643.693 1565.597,615.039 1596.607,584.543C1691.273,491.441 1803.391,381.179 2007.437,306.004C2142.813,256.127 2222.313,257.757 2272.193,288.646C2297.113,304.087 2314.533,326.773 2327.813,353.734C2341.073,380.685 2350.233,411.969 2358.613,444.665C2360.953,453.759 2363.213,462.961 2365.513,472.211L2365.513,472.219L2365.513,472.231C2379.673,529.589 2394.313,588.801 2426.373,635.533C2444.973,662.631 2469.433,685.505 2503.073,701.345C2536.713,717.191 2579.593,726.029 2635.093,724.957C2990.693,718.081 3271.313,487.455 3367.133,373.002L3368.753,374.262ZM2630.373,816.265C2986.793,809.373 3267.893,578.295 3363.913,463.615L3362.293,462.355C3266.453,576.807 2985.853,807.435 2630.253,814.309C2574.753,815.383 2531.853,806.543 2498.213,790.699C2464.593,774.857 2440.133,751.985 2421.533,724.885C2389.453,678.155 2374.833,618.943 2360.673,561.583L2360.673,561.571L2360.653,561.563C2358.373,552.315 2356.113,543.113 2353.773,534.019C2345.393,501.323 2336.233,470.039 2322.953,443.087C2309.693,416.127 2292.273,393.441 2267.333,377.999C2217.473,347.11 2137.973,345.481 2002.593,395.357C1798.545,470.531 1686.429,580.795 1591.761,673.895L1591.759,673.897C1560.751,704.393 1531.615,733.047 1501.733,758.025C1441.173,808.643 1377.535,844.215 1288.965,849.695C1200.347,855.179 1086.639,830.549 925.933,760.467C765.005,690.287 659.129,692.445 583.747,735.361C508.455,778.225 463.875,861.611 425.119,953.143C415.717,975.349 406.657,998.035 397.585,1020.749L397.585,1020.751C369.217,1091.783 340.733,1163.101 301.311,1220.945C249.34,1297.197 178.463,1349.855 63.899,1347.253L63.933,1349.207C179.37,1351.831 250.809,1298.687 303.035,1222.057C342.583,1164.033 371.173,1092.443 399.559,1021.365C408.617,998.685 417.653,976.057 427.019,953.939C465.781,862.391 510.165,779.567 584.843,737.053C659.429,694.589 764.529,692.195 925.149,762.241C1085.989,832.383 1200.069,857.161 1289.177,851.647C1378.335,846.129 1442.365,810.297 1503.113,759.519C1533.145,734.415 1562.373,705.673 1593.441,675.119C1688.071,582.059 1799.783,472.199 2003.393,397.185C2138.693,347.342 2217.313,349.305 2266.273,379.627C2290.773,394.793 2307.953,417.119 2321.113,443.861C2334.293,470.615 2343.413,501.729 2351.793,534.411C2354.113,543.477 2356.373,552.663 2358.673,561.909L2358.673,561.913C2372.813,619.243 2387.533,678.855 2419.833,725.913C2438.613,753.275 2463.353,776.421 2497.373,792.447C2531.393,808.467 2574.633,817.343 2630.373,816.265ZM3359.073,552.969C3263.033,667.647 2981.933,898.727 2625.533,905.617C2569.773,906.695 2526.553,897.821 2492.533,881.799C2458.513,865.773 2433.773,842.629 2414.993,815.265C2382.693,768.205 2367.973,708.591 2353.813,651.261C2351.533,642.015 2349.273,632.829 2346.933,623.765C2338.553,591.081 2329.453,559.967 2316.273,533.215C2303.113,506.471 2285.913,484.145 2261.433,468.981C2212.473,438.657 2133.833,436.695 1998.547,486.539C1794.937,561.551 1683.225,671.413 1588.595,764.473C1557.527,795.027 1528.299,823.769 1498.267,848.873C1437.519,899.649 1373.489,935.483 1284.331,940.999C1195.223,946.513 1081.143,921.735 920.303,851.593C759.683,781.547 654.583,783.941 579.997,826.405C505.319,868.921 460.935,951.743 422.173,1043.293C412.807,1065.411 403.771,1088.039 394.713,1110.719C366.327,1181.797 337.737,1253.385 298.189,1311.411C245.963,1388.039 174.524,1441.183 59.087,1438.561L59.053,1436.605C173.617,1439.209 244.494,1386.549 296.465,1310.297C335.887,1252.455 364.371,1181.135 392.739,1110.101L392.743,1110.095C401.813,1087.383 410.873,1064.699 420.273,1042.497C459.029,950.963 503.609,867.579 578.901,824.715C654.283,781.797 760.159,779.639 921.087,849.819C1081.793,919.903 1195.501,944.533 1284.119,939.049C1372.689,933.567 1436.327,897.997 1496.887,847.377C1526.769,822.399 1555.907,793.745 1586.915,763.249C1681.583,670.147 1793.699,559.885 1997.747,484.709C2133.133,434.833 2212.613,436.463 2262.493,467.353C2287.433,482.793 2304.853,505.479 2318.113,532.441C2331.393,559.391 2340.533,590.675 2348.933,623.373C2351.253,632.443 2353.513,641.623 2355.793,650.849L2355.813,650.939C2369.993,708.297 2384.613,767.509 2416.693,814.239C2435.293,841.337 2459.733,864.211 2493.373,880.051C2527.013,895.897 2569.893,904.735 2625.413,903.663C2980.993,896.787 3261.613,666.161 3357.453,551.709L3359.073,552.969Z" clip-rule="evenodd" fill-rule="evenodd" transform="rotate(347.44 1716.327 808.024)" fill="#2274FF"/>
</g>
<path d="M3242,995.037L1978,995.037L1978,995.66L3242,995.66L3242,995.037Z" fill="#F0F0F0"/>
<path d="M2875.44,1026.472L2848.947,1026.472L2848.947,1027.096L2875.44,1027.096L2875.44,1026.472Z" fill="#F0F0F0"/>
<path d="M2167.752,1010.106L2142.143,1010.106L2142.143,1010.729L2167.752,1010.729L2167.752,1010.106Z" fill="#F0F0F0"/>
<path d="M2443.43,1026.173L2365.922,1026.173L2365.922,1026.797L2443.43,1026.797L2443.43,1026.173Z" fill="#F0F0F0"/>
<path d="M2569.552,1011.927L2519.801,1011.927L2519.801,1012.551L2569.552,1012.551L2569.552,1011.927Z" fill="#F0F0F0"/>
<path d="M3064.08,1015.894L2931.511,1015.894L2931.511,1016.518L3064.08,1016.518L3064.08,1015.894Z" fill="#F0F0F0"/>
<path d="M2288.843,1010.106L2179.962,1010.106L2179.962,1010.729L2288.843,1010.729L2288.843,1010.106Z" fill="#F0F0F0"/>
<path d="M3120.454,1016.194L3078.818,1016.194L3078.818,1016.817L3120.454,1016.817L3120.454,1016.194Z" fill="#F0F0F0"/>
<path d="M2577.137,883.764L2089.004,883.764C2085.18,883.758 2081.515,882.254 2078.813,879.582C2076.112,876.912 2074.595,873.292 2074.595,869.518L2074.595,192.329C2074.628,188.577 2076.16,184.989 2078.858,182.345C2081.556,179.701 2085.202,178.214 2089.004,178.208L2577.137,178.208C2580.965,178.208 2584.637,179.709 2587.343,182.381C2590.051,185.052 2591.571,188.676 2591.571,192.454L2591.571,869.518C2591.571,873.296 2590.051,876.92 2587.343,879.592C2584.637,882.264 2580.965,883.764 2577.137,883.764ZM2089.004,178.707C2085.348,178.714 2081.843,180.152 2079.26,182.706C2076.677,185.26 2075.227,188.721 2075.227,192.329L2075.227,869.518C2075.227,873.126 2076.677,876.588 2079.26,879.142C2081.843,881.696 2085.348,883.134 2089.004,883.14L2577.137,883.14C2580.795,883.134 2584.301,881.696 2586.889,879.144C2589.475,876.59 2590.933,873.13 2590.939,869.518L2590.939,192.329C2590.933,188.718 2589.475,185.257 2586.889,182.704C2584.301,180.151 2580.795,178.714 2577.137,178.707L2089.004,178.707Z" fill="#F0F0F0"/>
<path d="M3123.968,883.764L2635.811,883.764C2631.984,883.758 2628.317,882.254 2625.611,879.584C2622.906,876.914 2621.383,873.294 2621.376,869.518L2621.376,192.329C2621.416,188.575 2622.953,184.987 2625.655,182.344C2628.357,179.7 2632.006,178.214 2635.811,178.208L3123.968,178.208C3127.766,178.221 3131.406,179.711 3134.098,182.354C3136.79,184.997 3138.318,188.581 3138.352,192.329L3138.352,869.518C3138.352,873.288 3136.838,876.904 3134.142,879.574C3131.446,882.244 3127.788,883.75 3123.968,883.764ZM2635.811,178.707C2632.152,178.714 2628.645,180.151 2626.058,182.704C2623.471,185.257 2622.015,188.718 2622.008,192.329L2622.008,869.518C2622.015,873.13 2623.471,876.59 2626.058,879.144C2628.645,881.696 2632.152,883.134 2635.811,883.14L3123.968,883.14C3127.626,883.134 3131.134,881.696 3133.72,879.144C3136.308,876.59 3137.764,873.13 3137.77,869.518L3137.77,192.329C3137.764,188.718 3136.308,185.257 3133.72,182.704C3131.134,180.151 3127.626,178.714 3123.968,178.707L2635.811,178.707Z" fill="#F0F0F0"/>
<path d="M3079.854,845.268L3010.334,845.268L3010.334,995.037L3079.854,995.037L3079.854,845.268Z" fill="#E6E6E6"/>
<path d="M3066.658,995.037L3079.854,995.037L3079.854,957.963L3052.805,957.963L3066.658,995.037Z" fill="#F5F5F5"/>
<path d="M2683.16,845.268L2613.64,845.268L2613.64,995.037L2683.16,995.037L2683.16,845.268Z" fill="#EBEBEB"/>
<path d="M3079.855,845.268L2671.633,845.268L2671.633,972.283L3079.855,972.283L3079.855,845.268Z" fill="#F5F5F5"/>
<path d="M2779.984,831.153L2711.449,831.153L2711.449,952.168L2779.984,952.168L2779.984,831.153Z" transform="rotate(-180 2745.716 891.66)" fill="#E6E6E6"/>
<path d="M2757.686,867.772L2733.872,867.772C2728.724,867.77 2723.631,866.733 2718.903,864.726C2714.174,862.719 2709.909,859.782 2706.367,856.095L2785.19,856.095C2781.649,859.782 2777.384,862.719 2772.655,864.726C2767.927,866.733 2762.833,867.77 2757.686,867.772Z" fill="#F0F0F0"/>
<path d="M2909.998,831.153L2841.463,831.153L2841.463,952.168L2909.998,952.168L2909.998,831.153Z" transform="rotate(-180 2875.731 891.661)" fill="#E6E6E6"/>
<path d="M2888.94,867.772L2864.999,867.772C2859.856,867.766 2854.768,866.728 2850.044,864.721C2845.32,862.714 2841.059,859.779 2837.52,856.095L2916.444,856.095C2912.903,859.782 2908.638,862.719 2903.909,864.726C2899.18,866.733 2894.087,867.77 2888.94,867.772Z" fill="#F0F0F0"/>
<path d="M3040.039,831.178L2971.504,831.178L2971.504,952.193L3040.039,952.193L3040.039,831.178Z" transform="rotate(-180 3005.771 891.685)" fill="#E6E6E6"/>
<path d="M3018.98,867.772L2995.04,867.772C2989.892,867.77 2984.799,866.733 2980.07,864.726C2975.342,862.719 2971.077,859.782 2967.535,856.095L3046.459,856.095C3042.921,859.779 3038.66,862.714 3033.936,864.721C3029.212,866.728 3024.123,867.766 3018.98,867.772Z" fill="#F0F0F0"/>
<path d="M2684.829,995.037L2671.633,995.037L2671.633,957.963L2698.682,957.963L2684.829,995.037Z" fill="#F5F5F5"/>
<path d="M2757.661,225.586L2136.935,225.586L2136.935,556.06L2757.661,556.06L2757.661,225.586Z" fill="#E6E6E6"/>
<path d="M2770.477,225.586L2142.927,225.586L2142.927,556.06L2770.477,556.06L2770.477,225.586Z" fill="#EBEBEB"/>
<path d="M2757.661,556.06L2136.935,556.06L2136.935,579.612L2757.661,579.612L2757.661,556.06Z" fill="#E6E6E6"/>
<path d="M2791.864,556.06L2164.314,556.06L2164.314,579.612L2791.864,579.612L2791.864,556.06Z" fill="#E6E6E6"/>
<path d="M2604.2,95.021L2309.204,95.021L2309.204,686.623L2604.2,686.623L2604.2,95.021Z" transform="rotate(180 2456.702 390.823)" fill="#FAFAFA"/>
<path d="M2195.281,538.32L2300.8,243.324L2350.602,243.324L2245.083,538.32L2195.281,538.32Z" fill="#FFFFFF"/>
<path d="M2169.218,438.326C2168.856,438.326 2168.509,438.184 2168.253,437.931C2167.997,437.678 2167.853,437.336 2167.853,436.978L2167.853,254.851C2167.853,254.491 2167.996,254.146 2168.251,253.89C2168.506,253.633 2168.854,253.485 2169.218,253.479C2169.587,253.479 2169.94,253.624 2170.201,253.881C2170.462,254.138 2170.608,254.487 2170.608,254.851L2170.608,436.978C2170.602,437.338 2170.452,437.681 2170.192,437.933C2169.932,438.185 2169.582,438.326 2169.218,438.326Z" fill="#E6E6E6"/>
<path d="M2255.802,538.32L2361.295,243.324L2380.71,243.324L2275.217,538.32L2255.802,538.32Z" fill="#FFFFFF"/>
<path d="M2898.863,389.685L2603.867,389.685L2603.867,391.96L2898.863,391.96L2898.863,389.685Z" transform="rotate(180 2751.366 390.823)" fill="#E6E6E6"/>
<path d="M2774.724,266.028L2154.024,266.028L2152.356,250.211L2773.082,250.211L2774.724,266.028Z" fill="#EBEBEB"/>
<path d="M2774.724,277.58L2154.024,277.58L2152.356,261.787L2773.082,261.787L2774.724,277.58Z" fill="#EBEBEB"/>
<path d="M2774.724,291.476L2154.024,291.476L2152.356,275.659L2773.082,275.659L2774.724,291.476Z" fill="#EBEBEB"/>
<path d="M2774.724,306.92L2154.024,306.92L2152.356,291.102L2773.082,291.102L2774.724,306.92Z" fill="#EBEBEB"/>
<path d="M2774.724,325.406L2154.024,325.406L2152.356,309.614L2773.082,309.614L2774.724,325.406Z" fill="#E6E6E6"/>
<path d="M2774.724,346.239L2154.024,346.239L2152.356,330.446L2773.082,330.446L2774.724,346.239Z" fill="#E6E6E6"/>
<path d="M2929.767,365.325L2843.183,365.325L2843.183,463.774L2929.767,463.774L2929.767,365.325Z" fill="#EBEBEB"/>
<path d="M2947.286,365.325L2853.446,365.325L2853.446,463.774L2947.286,463.774L2947.286,365.325Z" fill="#F5F5F5"/>
<path d="M2941.831,375.492L2858.901,375.492L2858.901,453.607L2941.831,453.607L2941.831,375.492Z" transform="rotate(180 2900.366 414.549)" fill="#FFFFFF"/>
<path d="M2914.924,394.439L2885.808,394.439C2882.047,394.439 2878.997,397.529 2878.997,401.34L2878.997,427.783C2878.997,431.595 2882.047,434.685 2885.808,434.685L2914.924,434.685C2918.685,434.685 2921.735,431.595 2921.735,427.783L2921.735,401.34C2921.735,397.529 2918.685,394.439 2914.924,394.439Z" transform="rotate(180 2900.366 414.562)" fill="#FAFAFA"/>
<path d="M3060.439,322.039L2973.855,322.039L2973.855,420.487L3060.439,420.487L3060.439,322.039Z" fill="#EBEBEB"/>
<path d="M3077.958,322.039L2984.119,322.039L2984.119,420.487L3077.958,420.487L3077.958,322.039Z" fill="#F5F5F5"/>
<path d="M3072.479,332.205L2989.548,332.205L2989.548,410.32L3072.479,410.32L3072.479,332.205Z" transform="rotate(180 3031.013 371.263)" fill="#FFFFFF"/>
<path d="M3045.559,351.14L3016.468,351.14C3012.706,351.14 3009.657,354.23 3009.657,358.042L3009.657,384.485C3009.657,388.296 3012.706,391.386 3016.468,391.386L3045.559,391.386C3049.32,391.386 3052.37,388.296 3052.37,384.485L3052.37,358.042C3052.37,354.23 3049.32,351.14 3045.559,351.14Z" transform="rotate(180 3031.013 371.263)" fill="#FAFAFA"/>
<path d="M2636.114,703.807L2495.658,703.807L2495.658,995.035L2636.114,995.035L2636.114,703.807Z" fill="#E6E6E6"/>
<path d="M2622.008,995.036L2636.114,995.036L2636.114,955.368L2607.169,955.368L2622.008,995.036Z" fill="#E6E6E6"/>
<path d="M2290.612,703.807L2150.156,703.807L2150.156,995.035L2290.612,995.035L2290.612,703.807Z" fill="#E6E6E6"/>
<path d="M2636.114,703.807L2278.276,703.807L2278.276,970.711L2636.114,970.711L2636.114,703.807Z" fill="#F5F5F5"/>
<path d="M2622.184,715.633L2286.264,715.633L2286.264,788.834L2622.184,788.834L2622.184,715.633Z" fill="#E6E6E6"/>
<path d="M2473.058,738.387L2441.332,738.387C2427.554,738.387 2414.383,729.355 2404.903,713.438L2509.512,713.438C2500.032,729.355 2486.861,738.387 2473.058,738.387Z" fill="#F5F5F5"/>
<path d="M2292.407,995.036L2278.276,995.036L2278.276,955.368L2307.221,955.368L2292.407,995.036Z" fill="#E6E6E6"/>
<path d="M2622.184,800.659L2286.264,800.659L2286.264,873.86L2622.184,873.86L2622.184,800.659Z" fill="#E6E6E6"/>
<path d="M2473.058,823.388L2441.332,823.388C2427.554,823.388 2414.383,814.356 2404.903,798.439L2509.512,798.439C2500.032,814.406 2486.861,823.388 2473.058,823.388Z" fill="#F5F5F5"/>
<path d="M2622.184,885.685L2286.264,885.685L2286.264,958.886L2622.184,958.886L2622.184,885.685Z" fill="#E6E6E6"/>
<path d="M2473.058,908.414L2441.332,908.414C2427.554,908.414 2414.383,899.382 2404.903,883.465L2509.512,883.465C2500.032,899.382 2486.861,908.414 2473.058,908.414Z" fill="#F5F5F5"/>
<path d="M2945.036,818.398L2949.232,818.398C2949.232,809.891 2949.232,788.26 2949.687,738.711C2950.42,648.895 2951.886,643.431 2951.886,643.431L2941.901,684.896C2935.556,730.802 2943.696,776.983 2945.036,818.398Z" fill="#E6E6E6"/>
<path d="M2926.455,669.528C2904.487,648.096 2861.586,645.227 2817.751,643.431C2800.56,642.732 2865.783,675.341 2898.47,699.766C2923.75,718.727 2939.348,723.193 2947.766,743.651C2948.752,717.105 2945.39,687.99 2926.455,669.528Z" fill="#E6E6E6"/>
<path d="M2950.597,622.923C2965.487,595.005 3002.952,568.709 3044.993,558.754C3061.475,554.837 3006.744,610.299 2985.939,646.076C2969.785,673.869 2948.347,706.502 2945.036,729.954C2940.005,683.474 2935.707,650.841 2950.597,622.923Z" fill="#E6E6E6"/>
<path d="M2948.752,845.268C2941.705,845.26 2934.927,842.596 2929.804,837.819C2924.682,833.042 2921.603,826.514 2921.197,819.571L2918.669,794.946L2978.658,794.946L2976.13,819.571C2975.72,826.482 2972.664,832.981 2967.581,837.753C2962.498,842.524 2955.767,845.21 2948.752,845.268Z" fill="#F0F0F0"/>
<path d="M2982.577,804.426L2914.801,804.426L2912.854,776.983L2984.523,776.983L2982.577,804.426Z" fill="#F5F5F5"/>
<path d="M2610,1107.706C2880.704,1107.706 3100.154,1095.061 3100.154,1079.464C3100.154,1063.866 2880.704,1051.221 2610,1051.221C2339.296,1051.221 2119.846,1063.866 2119.846,1079.464C2119.846,1095.061 2339.296,1107.706 2610,1107.706Z" fill="#F5F5F5"/>
<path d="M2598.523,397.284C2601.961,439.698 2651.611,494.785 2667.486,511.451C2668.111,512.111 2668.866,512.638 2669.706,512.998C2670.545,513.358 2671.45,513.543 2672.366,513.543C2673.281,513.543 2674.186,513.358 2675.025,512.998C2675.865,512.638 2676.62,512.111 2677.245,511.451C2693.171,494.785 2742.77,439.673 2746.208,397.284C2746.326,395.983 2746.056,394.676 2745.432,393.524C2744.808,392.371 2743.856,391.424 2742.694,390.798L2675.551,355.046C2674.575,354.518 2673.479,354.24 2672.366,354.24C2671.252,354.24 2670.157,354.518 2669.18,355.046L2602.037,390.798C2600.879,391.429 2599.931,392.377 2599.308,393.528C2598.684,394.679 2598.411,395.984 2598.523,397.284Z" fill="#407BFF"/>
<g opacity="0.3">
<path d="M2667.385,495.384C2647.161,472.93 2617.837,435.182 2610.834,405.144C2610.516,403.748 2610.658,402.288 2611.241,400.977C2611.823,399.667 2612.814,398.574 2614.07,397.859L2669.029,366.672C2670.049,366.097 2671.203,365.794 2672.378,365.794C2673.553,365.794 2674.708,366.097 2675.728,366.672L2730.686,397.759C2731.976,398.489 2732.986,399.617 2733.562,400.97C2734.137,402.322 2734.246,403.824 2733.872,405.244C2726.895,435.332 2697.671,472.93 2677.346,495.484C2676.715,496.174 2675.942,496.724 2675.08,497.097C2674.217,497.47 2673.284,497.658 2672.343,497.649C2671.401,497.639 2670.472,497.432 2669.618,497.042C2668.763,496.652 2668.002,496.087 2667.385,495.384Z" fill="#407BFF"/>
</g>
<g opacity="0.3">
<path d="M2667.385,495.384C2647.161,472.93 2617.837,435.182 2610.834,405.144C2610.516,403.748 2610.658,402.288 2611.241,400.977C2611.823,399.667 2612.814,398.574 2614.07,397.859L2669.029,366.672C2670.049,366.097 2671.203,365.794 2672.378,365.794C2673.553,365.794 2674.708,366.097 2675.728,366.672L2730.686,397.759C2731.976,398.489 2732.986,399.617 2733.562,400.97C2734.137,402.322 2734.246,403.824 2733.872,405.244C2726.895,435.332 2697.671,472.93 2677.346,495.484C2676.715,496.174 2675.942,496.724 2675.08,497.097C2674.217,497.47 2673.284,497.658 2672.343,497.649C2671.401,497.639 2670.472,497.432 2669.618,497.042C2668.763,496.652 2668.002,496.087 2667.385,495.384Z" fill="#FFFFFF"/>
</g>
<path d="M2664.883,449.852C2664.385,449.853 2663.892,449.757 2663.432,449.568C2662.972,449.38 2662.554,449.103 2662.203,448.755L2643.471,430.193C2642.801,429.483 2642.436,428.545 2642.454,427.575C2642.471,426.606 2642.869,425.681 2643.564,424.995C2644.258,424.31 2645.196,423.917 2646.178,423.9C2647.16,423.883 2648.111,424.242 2648.83,424.904L2664.883,440.721L2702.803,403.422C2703.517,402.728 2704.48,402.338 2705.483,402.338C2706.485,402.338 2707.448,402.728 2708.162,403.422C2708.517,403.768 2708.798,404.18 2708.991,404.634C2709.183,405.088 2709.282,405.575 2709.282,406.067C2709.282,406.559 2709.183,407.046 2708.991,407.5C2708.798,407.954 2708.517,408.366 2708.162,408.712L2667.714,448.63C2667.353,449.015 2666.915,449.322 2666.428,449.532C2665.941,449.743 2665.415,449.852 2664.883,449.852Z" fill="#FFFFFF"/>
<path d="M2824.046,550.77L2473.488,550.77C2456.734,550.77 2443.152,564.174 2443.152,580.709L2443.152,1034.53C2443.152,1051.064 2456.734,1064.468 2473.488,1064.468L2824.046,1064.468C2840.8,1064.468 2854.382,1051.064 2854.382,1034.53L2854.382,580.709C2854.382,564.174 2840.8,550.77 2824.046,550.77Z" fill="#263238"/>
<path d="M2847.658,550.77L2497.1,550.77C2480.346,550.77 2466.764,564.174 2466.764,580.709L2466.764,1034.53C2466.764,1051.064 2480.346,1064.468 2497.1,1064.468L2847.658,1064.468C2864.412,1064.468 2877.994,1051.064 2877.994,1034.53L2877.994,580.709C2877.994,564.174 2864.412,550.77 2847.658,550.77Z" fill="#407BFF"/>
<path d="M2538.609,1064.494L2504.481,1064.494C2503.434,1064.494 2502.585,1065.332 2502.585,1066.365L2502.585,1071.779C2502.585,1072.813 2503.434,1073.65 2504.481,1073.65L2538.609,1073.65C2539.657,1073.65 2540.505,1072.813 2540.505,1071.779L2540.505,1066.365C2540.505,1065.332 2539.657,1064.494 2538.609,1064.494Z" fill="#263238"/>
<path d="M2840.25,1064.494L2806.122,1064.494C2805.075,1064.494 2804.226,1065.332 2804.226,1066.365L2804.226,1071.779C2804.226,1072.813 2805.075,1073.65 2806.122,1073.65L2840.25,1073.65C2841.298,1073.65 2842.146,1072.813 2842.146,1071.779L2842.146,1066.365C2842.146,1065.332 2841.298,1064.494 2840.25,1064.494Z" fill="#263238"/>
<g opacity="0.2">
<path d="M2847.658,550.77L2497.1,550.77C2480.346,550.77 2466.764,564.174 2466.764,580.709L2466.764,1034.53C2466.764,1051.064 2480.346,1064.468 2497.1,1064.468L2847.658,1064.468C2864.412,1064.468 2877.994,1051.064 2877.994,1034.53L2877.994,580.709C2877.994,564.174 2864.412,550.77 2847.658,550.77Z" fill="#000000"/>
</g>
<g opacity="0.4" style="mix-blend-mode:color-dodge">
<path d="M2806.349,1005.24L2538.382,1005.24C2535.313,1005.234 2532.372,1004.028 2530.202,1001.886C2528.032,999.744 2526.81,996.842 2526.803,993.814L2526.803,621.476C2526.803,618.443 2528.023,615.534 2530.193,613.387C2532.364,611.24 2535.309,610.031 2538.382,610.024L2806.349,610.024C2809.423,610.031 2812.367,611.24 2814.537,613.387C2816.709,615.534 2817.927,618.443 2817.927,621.476L2817.927,993.814C2817.921,996.842 2816.699,999.744 2814.529,1001.886C2812.359,1004.028 2809.417,1005.234 2806.349,1005.24ZM2538.382,611.272C2535.644,611.278 2533.02,612.356 2531.087,614.269C2529.153,616.182 2528.067,618.774 2528.067,621.476L2528.067,993.814C2528.067,995.15 2528.334,996.474 2528.853,997.708C2529.371,998.944 2530.131,1000.066 2531.088,1001.012C2532.046,1001.956 2533.183,1002.706 2534.435,1003.218C2535.686,1003.73 2537.027,1003.992 2538.382,1003.992L2806.349,1003.992C2809.085,1003.992 2811.709,1002.92 2813.643,1001.012C2815.577,999.102 2816.663,996.514 2816.663,993.814L2816.663,621.476C2816.663,618.774 2815.577,616.182 2813.645,614.269C2811.711,612.356 2809.087,611.278 2806.349,611.272L2538.382,611.272Z" fill="#E6E6E6"/>
</g>
<path d="M2858.56,667.745L2486.197,667.745C2482.987,667.745 2480.384,670.382 2480.384,673.635L2480.384,941.629C2480.384,944.881 2482.987,947.519 2486.197,947.519L2858.56,947.519C2861.77,947.519 2864.374,944.881 2864.374,941.629L2864.374,673.635C2864.374,670.382 2861.77,667.745 2858.56,667.745Z" transform="rotate(180 2672.379 807.632)" fill="#407BFF"/>
<g opacity="0.1">
<path d="M2858.56,667.745L2486.197,667.745C2482.987,667.745 2480.384,670.382 2480.384,673.635L2480.384,941.629C2480.384,944.881 2482.987,947.519 2486.197,947.519L2858.56,947.519C2861.77,947.519 2864.374,944.881 2864.374,941.629L2864.374,673.635C2864.374,670.382 2861.77,667.745 2858.56,667.745Z" transform="rotate(180 2672.379 807.632)" fill="#FFFFFF"/>
</g>
<path d="M2886.816,656.679L2884.288,656.679L2884.288,677.736L2886.816,677.736L2886.816,656.679Z" fill="#407BFF"/>
<path d="M2886.816,580.709L2884.288,580.709L2884.288,634.499L2886.816,634.499L2886.816,580.709Z" fill="#407BFF"/>
<g opacity="0.1">
<path d="M2672.366,899.981C2719.976,899.981 2758.571,861.891 2758.571,814.905C2758.571,767.919 2719.976,729.829 2672.366,729.829C2624.756,729.829 2586.161,767.919 2586.161,814.905C2586.161,861.891 2624.756,899.981 2672.366,899.981Z" fill="#000000"/>
</g>
<path d="M2672.366,688.564C2683.996,688.564 2693.424,679.259 2693.424,667.781C2693.424,656.303 2683.996,646.999 2672.366,646.999C2660.735,646.999 2651.307,656.303 2651.307,667.781C2651.307,679.259 2660.735,688.564 2672.366,688.564Z" fill="#407BFF"/>
<g opacity="0.6">
<path d="M2672.239,688.514C2683.869,688.514 2693.297,679.209 2693.297,667.731C2693.297,656.253 2683.869,646.949 2672.239,646.949C2660.609,646.949 2651.181,656.253 2651.181,667.731C2651.181,679.209 2660.609,688.514 2672.239,688.514Z" fill="#FFFFFF"/>
</g>
<path d="M2672.366,684.197C2669.076,684.197 2665.86,683.235 2663.124,681.431C2660.389,679.627 2658.257,677.063 2656.998,674.063C2655.739,671.064 2655.409,667.763 2656.051,664.578C2656.693,661.394 2658.277,658.469 2660.604,656.173C2662.93,653.877 2665.894,652.313 2669.121,651.68C2672.347,651.047 2675.692,651.372 2678.731,652.614C2681.771,653.857 2684.369,655.961 2686.197,658.66C2688.025,661.36 2689,664.534 2689,667.781C2688.993,672.133 2687.239,676.305 2684.121,679.382C2681.003,682.459 2676.775,684.191 2672.366,684.197ZM2672.366,652.612C2669.326,652.612 2666.354,653.502 2663.827,655.168C2661.299,656.835 2659.329,659.204 2658.166,661.976C2657.002,664.748 2656.698,667.798 2657.291,670.74C2657.884,673.683 2659.348,676.386 2661.498,678.507C2663.647,680.628 2666.386,682.073 2669.367,682.659C2672.349,683.244 2675.439,682.943 2678.248,681.795C2681.056,680.647 2683.457,678.703 2685.146,676.208C2686.835,673.714 2687.736,670.781 2687.736,667.781C2687.729,663.76 2686.108,659.905 2683.227,657.062C2680.346,654.219 2676.44,652.619 2672.366,652.612Z" fill="#407BFF"/>
<path d="M2532.138,664.537L2522.759,664.537C2520.693,664.537 2519.017,666.191 2519.017,668.23L2519.017,718.876C2519.017,720.915 2520.693,722.569 2522.759,722.569L2532.138,722.569C2534.204,722.569 2535.879,720.915 2535.879,718.876L2535.879,668.23C2535.879,666.191 2534.204,664.537 2532.138,664.537Z" fill="#407BFF"/>
<g opacity="0.6">
<path d="M2532.138,664.537L2522.759,664.537C2520.693,664.537 2519.017,666.191 2519.017,668.23L2519.017,718.876C2519.017,720.915 2520.693,722.569 2522.759,722.569L2532.138,722.569C2534.204,722.569 2535.879,720.915 2535.879,718.876L2535.879,668.23C2535.879,666.191 2534.204,664.537 2532.138,664.537Z" fill="#FFFFFF"/>
</g>
<path d="M2532.138,892.696L2522.759,892.696C2520.693,892.696 2519.017,894.349 2519.017,896.388L2519.017,947.034C2519.017,949.074 2520.693,950.727 2522.759,950.727L2532.138,950.727C2534.204,950.727 2535.879,949.074 2535.879,947.034L2535.879,896.388C2535.879,894.349 2534.204,892.696 2532.138,892.696Z" fill="#407BFF"/>
<g opacity="0.6">
<path d="M2532.138,892.696L2522.759,892.696C2520.693,892.696 2519.017,894.349 2519.017,896.388L2519.017,947.034C2519.017,949.074 2520.693,950.727 2522.759,950.727L2532.138,950.727C2534.204,950.727 2535.879,949.074 2535.879,947.034L2535.879,896.388C2535.879,894.349 2534.204,892.696 2532.138,892.696Z" fill="#FFFFFF"/>
</g>
<path d="M2672.366,892.721C2719.976,892.721 2758.571,854.631 2758.571,807.645C2758.571,760.659 2719.976,722.569 2672.366,722.569C2624.756,722.569 2586.161,760.659 2586.161,807.645C2586.161,854.631 2624.756,892.721 2672.366,892.721Z" fill="#407BFF"/>
<g opacity="0.6">
<path d="M2672.366,892.721C2719.976,892.721 2758.571,854.631 2758.571,807.645C2758.571,760.659 2719.976,722.569 2672.366,722.569C2624.756,722.569 2586.161,760.659 2586.161,807.645C2586.161,854.631 2624.756,892.721 2672.366,892.721Z" fill="#FFFFFF"/>
</g>
<path d="M2674.897,745.173L2669.874,745.173L2669.874,870.095L2674.897,870.095L2674.897,745.173Z" transform="rotate(-89.245 2672.386 807.634)" fill="#407BFF"/>
<path d="M2734.847,805.123L2609.925,805.123L2609.925,810.146L2734.847,810.146L2734.847,805.123Z" transform="rotate(-89.245 2672.386 807.635)" fill="#407BFF"/>
<g opacity="0.2">
<path d="M2734.555,804.838L2609.633,804.838L2609.633,809.861L2734.555,809.861L2734.555,804.838Z" transform="rotate(-89.245 2672.094 807.35)" fill="#000000"/>
</g>
<g opacity="0.2">
<path d="M2674.623,744.906L2669.6,744.906L2669.6,869.828L2674.623,869.828L2674.623,744.906Z" transform="rotate(-89.245 2672.111 807.367)" fill="#000000"/>
</g>
<path d="M2672.113,871.938C2659.167,871.943 2646.511,868.159 2635.744,861.064C2624.978,853.97 2616.585,843.884 2611.627,832.081C2606.67,820.279 2605.37,807.291 2607.893,794.759C2610.415,782.228 2616.647,770.716 2625.799,761.68C2634.951,752.644 2646.613,746.49 2659.31,743.996C2672.007,741.501 2685.168,742.779 2697.129,747.667C2709.09,752.555 2719.313,760.834 2726.506,771.457C2733.699,782.08 2737.538,794.569 2737.538,807.345C2737.525,824.468 2730.628,840.886 2718.362,852.996C2706.096,865.106 2689.463,871.918 2672.113,871.938ZM2672.113,747.742C2660.167,747.738 2648.488,751.229 2638.553,757.775C2628.618,764.321 2620.874,773.628 2616.299,784.519C2611.724,795.41 2610.524,807.395 2612.851,818.958C2615.179,830.522 2620.929,841.144 2629.374,849.482C2637.819,857.82 2648.58,863.5 2660.296,865.801C2672.012,868.103 2684.157,866.924 2695.194,862.414C2706.231,857.903 2715.665,850.264 2722.302,840.462C2728.939,830.659 2732.482,819.135 2732.482,807.345C2732.469,791.546 2726.105,776.397 2714.787,765.223C2703.469,754.049 2688.122,747.762 2672.113,747.742Z" fill="#407BFF"/>
<path d="M2672.094,834.549C2687.116,834.549 2699.293,822.372 2699.293,807.35C2699.293,792.328 2687.116,780.15 2672.094,780.15C2657.072,780.15 2644.894,792.328 2644.894,807.35C2644.894,822.372 2657.072,834.549 2672.094,834.549Z" transform="rotate(-89.245 2672.094 807.35)" fill="#407BFF"/>
<g opacity="0.2">
<path d="M2672.113,871.938C2659.167,871.943 2646.511,868.159 2635.744,861.064C2624.978,853.97 2616.585,843.884 2611.627,832.081C2606.67,820.279 2605.37,807.291 2607.893,794.759C2610.415,782.228 2616.647,770.716 2625.799,761.68C2634.951,752.644 2646.613,746.49 2659.31,743.996C2672.007,741.501 2685.168,742.779 2697.129,747.667C2709.09,752.555 2719.313,760.834 2726.506,771.457C2733.699,782.08 2737.538,794.569 2737.538,807.345C2737.525,824.468 2730.628,840.886 2718.362,852.996C2706.096,865.106 2689.463,871.918 2672.113,871.938ZM2672.113,747.742C2660.167,747.738 2648.488,751.229 2638.553,757.775C2628.618,764.321 2620.874,773.628 2616.299,784.519C2611.724,795.41 2610.524,807.395 2612.851,818.958C2615.179,830.522 2620.929,841.144 2629.374,849.482C2637.819,857.82 2648.58,863.5 2660.296,865.801C2672.012,868.103 2684.157,866.924 2695.194,862.414C2706.231,857.903 2715.665,850.264 2722.302,840.462C2728.939,830.659 2732.482,819.135 2732.482,807.345C2732.469,791.546 2726.105,776.397 2714.787,765.223C2703.469,754.049 2688.122,747.762 2672.113,747.742Z" fill="#000000"/>
</g>
<g opacity="0.2">
<path d="M2672.094,834.549C2687.116,834.549 2699.293,822.372 2699.293,807.35C2699.293,792.328 2687.116,780.15 2672.094,780.15C2657.072,780.15 2644.894,792.328 2644.894,807.35C2644.894,822.372 2657.072,834.549 2672.094,834.549Z" transform="rotate(-89.245 2672.094 807.35)" fill="#000000"/>
</g>
<path d="M2460.848,447.058C2466.94,461.005 2473.235,475.126 2479.606,489.022C2485.976,502.919 2492.498,516.79 2499.476,530.038C2501.271,533.282 2502.99,536.65 2504.86,539.718L2506.225,542.064L2506.933,543.236C2506.863,543.141 2506.777,543.057 2506.681,542.987C2506.377,542.812 2506.681,543.161 2507.287,543.585C2509.607,544.818 2512.119,545.662 2514.72,546.08C2518.064,546.695 2521.439,547.128 2524.832,547.378C2531.986,547.852 2539.545,547.852 2547.129,547.627L2558.606,547.153L2570.032,546.405L2572.99,559.977C2557.377,565.123 2541.173,568.325 2524.756,569.507C2520.326,569.789 2515.882,569.747 2511.458,569.383C2506.239,569.035 2501.114,567.837 2496.29,565.84C2492.949,564.399 2489.946,562.292 2487.468,559.653C2486.726,558.87 2486.041,558.036 2485.42,557.158L2484.535,555.86L2482.816,553.365C2480.415,549.923 2478.392,546.48 2476.218,543.012C2468.027,529.165 2460.696,515.144 2453.82,500.998C2446.944,486.852 2440.548,472.581 2434.531,457.936L2460.848,447.058Z" fill="#7F3E3B"/>
<path d="M2427.276,445.162C2421.537,461.728 2455.261,510.453 2455.261,510.453L2487.569,492.789C2482.083,477.589 2475.606,462.755 2468.179,448.38C2456.778,427.298 2433.571,426.974 2427.276,445.162Z" fill="#407BFF"/>
<g opacity="0.5">
<path d="M2427.276,445.162C2421.537,461.728 2455.261,510.453 2455.261,510.453L2487.569,492.789C2482.083,477.589 2475.606,462.755 2468.179,448.38C2456.778,427.298 2433.571,426.974 2427.276,445.162Z" fill="#FFFFFF"/>
</g>
<path d="M2426.796,447.232C2434.026,443.814 2442.368,446.684 2451.115,460.356C2459.862,474.028 2467.345,496.856 2468.179,503.368L2455.261,510.428C2455.261,510.428 2424.116,465.42 2426.796,447.232Z" fill="#407BFF"/>
<g opacity="0.4">
<path d="M2426.796,447.232C2434.026,443.814 2442.368,446.684 2451.115,460.356C2459.862,474.028 2467.345,496.856 2468.179,503.368L2455.261,510.428C2455.261,510.428 2424.116,465.42 2426.796,447.232Z" fill="#FFFFFF"/>
</g>
<path d="M2449.092,432.488C2449.092,432.488 2473.159,488.348 2455.791,592.36L2355.582,592.36C2354.343,577.167 2361.421,503.093 2344.054,431.539C2355.072,429.422 2366.219,428.021 2377.423,427.348C2391.611,426.549 2405.833,426.549 2420.02,427.348C2429.83,428.327 2439.549,430.045 2449.092,432.488Z" fill="#407BFF"/>
<g opacity="0.5">
<path d="M2449.092,432.488C2449.092,432.488 2473.159,488.348 2455.791,592.36L2355.582,592.36C2354.343,577.167 2361.421,503.093 2344.054,431.539C2355.072,429.422 2366.219,428.021 2377.423,427.348C2391.611,426.549 2405.833,426.549 2420.02,427.348C2429.83,428.327 2439.549,430.045 2449.092,432.488Z" fill="#FFFFFF"/>
</g>
<path d="M2366.452,449.203C2368.525,460.979 2365.77,489.121 2355.532,521.705C2354.73,493.788 2351.44,465.996 2345.698,438.65L2345.698,438.5C2352.27,437.851 2364.455,438.151 2366.452,449.203Z" fill="#407BFF"/>
<g opacity="0.4">
<path d="M2366.452,449.203C2368.525,460.979 2365.77,489.121 2355.532,521.705C2354.73,493.788 2351.44,465.996 2345.698,438.65L2345.698,438.5C2352.27,437.851 2364.455,438.151 2366.452,449.203Z" fill="#FFFFFF"/>
</g>
<path d="M2320.064,1035.528L2334.928,1048.651L2363.217,1019.586L2348.352,1006.463L2320.064,1035.528Z" fill="#7F3E3B"/>
<path d="M2339.023,1043.388L2320.973,1031.462C2320.679,1031.231 2320.313,1031.106 2319.937,1031.106C2319.561,1031.106 2319.195,1031.231 2318.901,1031.462L2305.098,1045.209C2304.828,1045.511 2304.63,1045.868 2304.516,1046.254C2304.402,1046.64 2304.375,1047.046 2304.438,1047.444C2304.5,1047.842 2304.651,1048.221 2304.878,1048.554C2305.106,1048.888 2305.405,1049.168 2305.755,1049.375C2317.283,1058.132 2325.6,1064.744 2332.172,1072.029C2339.756,1080.537 2343.852,1081.759 2361.548,1081.759C2369.739,1081.759 2374.365,1074.948 2371.028,1073.9C2341.551,1064.694 2349.439,1060.677 2342.259,1047.18C2341.531,1045.661 2340.416,1044.354 2339.023,1043.388Z" fill="#263238"/>
<path d="M2363.191,1019.586L2348.63,1034.58L2333.765,1021.432L2348.326,1006.463L2363.191,1019.586Z" fill="#5E2B2B"/>
<path d="M2373.405,1020.01L2392.137,1020.01L2390.873,1042.09L2372.141,1042.09L2373.405,1020.01Z" fill="#5E2B2B"/>
<path d="M2455.792,592.36C2455.792,592.36 2475.535,727.234 2482.26,800.634C2487.67,859.54 2358.615,1035.154 2358.615,1035.154L2333.664,1011.978C2333.664,1011.978 2427.908,854.524 2420.652,788.958C2413.65,725.463 2389.811,592.286 2389.811,592.286L2455.792,592.36Z" fill="#407BFF"/>
<g opacity="0.5">
<path d="M2455.792,592.36C2455.792,592.36 2475.535,727.234 2482.26,800.634C2487.67,859.54 2358.615,1035.154 2358.615,1035.154L2333.664,1011.978C2333.664,1011.978 2427.908,854.524 2420.652,788.958C2413.65,725.463 2389.811,592.286 2389.811,592.286L2455.792,592.36Z" fill="#000000"/>
</g>
<path d="M2370.952,1062.823L2389.71,1062.823L2392.137,1020.01L2373.404,1020.01L2370.952,1062.823Z" fill="#7F3E3B"/>
<path d="M2390.696,1060.702L2369.637,1060.702C2369.286,1060.688 2368.944,1060.812 2368.683,1061.045C2368.423,1061.278 2368.267,1061.603 2368.247,1061.95L2367.21,1078.391C2367.207,1078.82 2367.289,1079.246 2367.453,1079.643C2367.616,1080.041 2367.857,1080.403 2368.163,1080.709C2368.468,1081.015 2368.831,1081.258 2369.231,1081.426C2369.632,1081.593 2370.062,1081.681 2370.497,1081.684C2377.828,1081.559 2381.342,1081.135 2390.721,1081.135C2396.409,1081.135 2420.627,1081.734 2428.515,1081.734C2436.402,1081.734 2436.098,1074.05 2432.812,1073.351C2417.872,1070.233 2399.341,1065.867 2394.033,1061.825C2393.083,1061.085 2391.905,1060.688 2390.696,1060.702Z" fill="#263238"/>
<path d="M2566.089,547.253L2583.304,540.517L2587.501,557.981C2587.501,557.981 2567.858,563.769 2564.749,558.181L2566.089,547.253Z" fill="#7F3E3B"/>
<path d="M2597.891,544.034L2602.947,553.59L2587.5,557.931L2583.304,540.517L2597.891,544.034Z" fill="#7F3E3B"/>
<path d="M2424.167,427.697L2420.071,427.273C2405.884,426.474 2391.662,426.474 2377.474,427.273L2374.946,427.423L2375.174,428.097C2375.376,428.621 2380.078,440.97 2407.052,440.97C2418.807,440.97 2424.95,439.049 2426.366,434.883C2426.655,433.599 2426.604,432.264 2426.219,431.006C2425.834,429.748 2425.127,428.608 2424.167,427.697Z" fill="#E6E6E6"/>
<path d="M2379.952,379.995C2383.112,393.517 2386.676,418.316 2377.424,427.398C2377.424,427.398 2381.418,438.6 2406.9,438.6C2434.911,438.6 2420.021,427.398 2420.021,427.398C2404.6,423.805 2404.625,412.603 2406.9,402.099L2379.952,379.995Z" fill="#7F3E3B"/>
<path d="M2390.999,389.002L2406.951,402.025C2406.376,404.485 2406.021,406.989 2405.889,409.51C2400.024,408.687 2391.783,402.349 2390.949,396.312C2390.502,393.893 2390.519,391.414 2390.999,389.002Z" fill="#5E2B2B"/>
<path d="M2419.995,339.752C2428.515,345.191 2429.728,371.338 2417.265,375.08C2404.802,378.822 2403.867,329.473 2419.995,339.752Z" fill="#263238"/>
<path d="M2374.036,365.824C2379.75,383.288 2382.177,393.842 2393.704,401.002C2397.423,403.361 2401.725,404.671 2406.144,404.792C2410.563,404.912 2414.931,403.838 2418.776,401.685C2422.621,399.532 2425.796,396.382 2427.958,392.577C2430.12,388.772 2431.187,384.455 2431.043,380.095C2430.815,363.304 2421.512,337.457 2401.92,334.214C2397.698,333.409 2393.335,333.714 2389.269,335.097C2385.204,336.48 2381.577,338.892 2378.754,342.094C2375.93,345.295 2374.008,349.172 2373.18,353.336C2372.352,357.501 2372.648,361.807 2374.036,365.824Z" fill="#7F3E3B"/>
<path d="M2353.61,349.383C2359.727,360.335 2375.098,385.284 2382.48,382.789C2389.861,380.294 2389.887,360.335 2380.407,347.686C2380.407,347.686 2455.513,355.171 2457.03,313.057C2458.572,269.97 2422.397,311.66 2390.569,323.71C2355.935,336.933 2339.225,323.61 2353.61,349.383Z" fill="#263238"/>
<path d="M2356.82,334.114C2356.678,334.085 2356.549,334.009 2356.457,333.897C2356.365,333.786 2356.314,333.646 2356.314,333.502C2356.314,333.359 2356.365,333.219 2356.457,333.108C2356.549,332.996 2356.678,332.92 2356.82,332.891C2357.958,332.642 2359.197,332.417 2360.537,332.168C2370.608,330.545 2380.429,327.661 2389.76,323.585C2399.24,319.394 2409.175,312.209 2417.973,305.872C2423.561,301.661 2429.385,297.763 2435.416,294.195C2435.565,294.122 2435.736,294.107 2435.895,294.153C2436.055,294.2 2436.191,294.304 2436.275,294.445C2436.316,294.517 2436.341,294.596 2436.35,294.678C2436.359,294.759 2436.351,294.842 2436.328,294.921C2436.304,295 2436.265,295.073 2436.213,295.137C2436.16,295.201 2436.096,295.254 2436.023,295.293C2430.034,298.836 2424.253,302.709 2418.706,306.894C2409.883,313.256 2399.872,320.467 2390.266,324.733C2380.854,328.847 2370.949,331.756 2360.789,333.39C2359.45,333.64 2358.261,333.864 2357.073,334.114L2356.82,334.114Z" fill="#263238"/>
<path d="M2370.901,387.155C2374.292,390.407 2378.814,392.255 2383.541,392.32C2389.811,392.32 2391.125,386.482 2387.763,381.592C2384.78,377.201 2377.955,371.912 2372.444,374.282C2366.932,376.652 2366.756,383.139 2370.901,387.155Z" fill="#7F3E3B"/>
<g opacity="0.2">
<path d="M2420.678,789.033C2417.063,756.325 2408.974,705.08 2402.022,663.116C2405.662,656.08 2415.875,641.834 2415.875,641.834C2425.026,673.046 2444.922,790.705 2416.532,949.604C2386.955,996.658 2358.641,1035.23 2358.641,1035.23L2354.672,974.554C2382.101,923.806 2425.709,834.365 2420.678,789.033Z" fill="#000000"/>
</g>
<path d="M2402.83,364.851C2403.209,366.298 2404.296,367.346 2405.358,367.096C2406.42,366.847 2406.799,365.524 2406.42,364.077C2406.041,362.63 2404.954,361.582 2403.892,361.857C2402.83,362.131 2402.451,363.404 2402.83,364.851Z" fill="#263238"/>
<path d="M2419.515,361.233C2419.894,362.68 2420.981,363.728 2422.043,363.479C2423.105,363.229 2423.484,361.932 2423.105,360.485C2422.726,359.038 2421.664,357.99 2420.577,358.24C2419.49,358.489 2419.136,359.786 2419.515,361.233Z" fill="#263238"/>
<path d="M2414.408,363.105C2417.321,367.152 2420.764,370.801 2424.647,373.957C2423.802,374.883 2422.763,375.615 2421.601,376.102C2420.439,376.589 2419.184,376.82 2417.922,376.777L2414.408,363.105Z" fill="#630F0F"/>
<path d="M2411.552,382.041C2408.473,382.071 2405.485,381.009 2403.134,379.047C2403.092,379.008 2403.059,378.961 2403.036,378.909C2403.013,378.857 2403,378.801 2402.999,378.744C2402.998,378.687 2403.008,378.631 2403.029,378.578C2403.05,378.525 2403.081,378.477 2403.121,378.436C2403.161,378.395 2403.208,378.362 2403.261,378.339C2403.314,378.316 2403.371,378.304 2403.428,378.303C2403.486,378.302 2403.543,378.312 2403.596,378.333C2403.65,378.353 2403.699,378.384 2403.74,378.423C2405.22,379.61 2406.954,380.451 2408.81,380.883C2410.666,381.316 2412.597,381.327 2414.459,380.918C2414.515,380.905 2414.574,380.903 2414.631,380.912C2414.688,380.922 2414.743,380.942 2414.793,380.972C2414.842,381.002 2414.885,381.041 2414.919,381.088C2414.952,381.134 2414.977,381.187 2414.99,381.243C2415.003,381.298 2415.005,381.356 2414.996,381.413C2414.987,381.469 2414.966,381.523 2414.936,381.572C2414.905,381.62 2414.865,381.663 2414.818,381.696C2414.771,381.729 2414.718,381.753 2414.661,381.767C2413.638,381.972 2412.595,382.064 2411.552,382.041Z" fill="#263238"/>
<path d="M2396.207,360.685C2396.09,360.708 2395.969,360.708 2395.853,360.685C2395.744,360.641 2395.646,360.577 2395.564,360.495C2395.482,360.413 2395.418,360.315 2395.375,360.207C2395.332,360.1 2395.312,359.985 2395.316,359.87C2395.32,359.755 2395.348,359.641 2395.398,359.537C2395.937,358.273 2396.781,357.158 2397.856,356.288C2398.931,355.419 2400.204,354.821 2401.566,354.547C2401.799,354.524 2402.032,354.589 2402.219,354.727C2402.406,354.866 2402.534,355.069 2402.577,355.296C2402.595,355.41 2402.589,355.528 2402.561,355.64C2402.532,355.753 2402.481,355.859 2402.41,355.952C2402.34,356.045 2402.251,356.123 2402.15,356.182C2402.048,356.24 2401.936,356.278 2401.819,356.294C2400.749,356.531 2399.754,357.021 2398.918,357.72C2398.082,358.42 2397.429,359.308 2397.016,360.31C2396.928,360.44 2396.807,360.543 2396.664,360.609C2396.522,360.675 2396.363,360.701 2396.207,360.685Z" fill="#263238"/>
<path d="M2425.153,354.073C2425.021,354.074 2424.892,354.045 2424.773,353.989C2424.655,353.932 2424.551,353.85 2424.47,353.748C2423.759,352.875 2422.858,352.171 2421.834,351.687C2420.811,351.204 2419.69,350.953 2418.555,350.954C2418.321,350.968 2418.091,350.893 2417.913,350.745C2417.734,350.596 2417.62,350.385 2417.594,350.156C2417.58,349.925 2417.656,349.698 2417.806,349.522C2417.957,349.345 2418.171,349.233 2418.403,349.208C2419.824,349.179 2421.233,349.472 2422.521,350.065C2423.81,350.657 2424.943,351.533 2425.835,352.626C2425.983,352.809 2426.053,353.042 2426.029,353.275C2426.006,353.508 2425.891,353.722 2425.709,353.873C2425.552,354.001 2425.356,354.071 2425.153,354.073Z" fill="#263238"/>
<path d="M2357.048,531.684C2352.013,530.011 2347.181,527.794 2342.639,525.073C2341.65,524.452 2340.734,523.724 2339.908,522.902C2341.071,517.538 2342.588,512.149 2344.231,506.735C2345.874,501.321 2347.897,495.783 2349.995,490.319C2352.093,484.855 2354.318,479.416 2356.644,474.027C2357.807,471.333 2358.995,468.638 2360.208,465.969L2363.849,458.21L2338.569,445.436C2336.9,448.554 2335.535,451.299 2334.17,454.268C2332.805,457.237 2331.642,460.106 2330.277,463.05C2327.782,468.971 2325.507,474.967 2323.451,481.038C2319.166,493.432 2316.159,506.22 2314.477,519.21L2314.477,519.883L2314.477,521.181C2314.413,522.078 2314.413,522.978 2314.477,523.875C2314.579,525.687 2314.901,527.479 2315.437,529.214C2316.434,532.273 2318.051,535.1 2320.19,537.522C2323.336,540.905 2327.113,543.657 2331.313,545.631C2337.783,548.643 2344.625,550.807 2351.664,552.068C2364.482,554.471 2377.529,555.475 2390.57,555.061L2391.732,541.215C2379.995,538.701 2368.414,535.518 2357.048,531.684Z" fill="#7F3E3B"/>
<path d="M2397.344,1063.896C2395.64,1063.857 2393.945,1063.639 2392.288,1063.247C2392.212,1063.221 2392.143,1063.178 2392.086,1063.122C2392.029,1063.066 2391.986,1062.998 2391.96,1062.923C2391.948,1062.843 2391.958,1062.761 2391.989,1062.687C2392.02,1062.612 2392.071,1062.547 2392.137,1062.498C2392.743,1062.074 2398.052,1058.507 2400.327,1059.405C2400.585,1059.502 2400.814,1059.664 2400.991,1059.874C2401.168,1060.083 2401.288,1060.334 2401.338,1060.602C2401.449,1061.004 2401.457,1061.427 2401.359,1061.832C2401.262,1062.238 2401.064,1062.612 2400.782,1062.923C2399.795,1063.649 2398.572,1063.995 2397.344,1063.896ZM2393.502,1062.648C2396.864,1063.297 2399.367,1063.197 2400.251,1062.349C2400.433,1062.134 2400.556,1061.877 2400.61,1061.602C2400.663,1061.327 2400.644,1061.043 2400.555,1060.777C2400.532,1060.645 2400.476,1060.522 2400.392,1060.417C2400.308,1060.313 2400.199,1060.23 2400.074,1060.178C2398.735,1059.654 2395.398,1061.401 2393.502,1062.648Z" fill="#407BFF"/>
<path d="M2392.44,1063.247C2392.375,1063.27 2392.303,1063.27 2392.238,1063.247C2392.175,1063.217 2392.121,1063.171 2392.081,1063.114C2392.041,1063.058 2392.017,1062.991 2392.01,1062.923C2392.01,1062.698 2391.581,1057.384 2393.477,1055.588C2393.713,1055.357 2394.001,1055.183 2394.316,1055.079C2394.632,1054.976 2394.967,1054.945 2395.297,1054.989C2395.667,1055.003 2396.022,1055.138 2396.306,1055.373C2396.589,1055.608 2396.786,1055.929 2396.864,1056.286C2397.294,1058.307 2394.513,1062.149 2392.642,1063.247L2392.44,1063.247ZM2394.968,1055.762C2394.795,1055.759 2394.623,1055.791 2394.462,1055.855C2394.301,1055.92 2394.155,1056.015 2394.033,1056.137C2392.992,1057.927 2392.558,1059.999 2392.794,1062.049C2394.336,1060.752 2396.333,1057.808 2396.03,1056.411C2396.03,1056.136 2395.828,1055.837 2395.17,1055.762L2394.968,1055.762Z" fill="#407BFF"/>
<path d="M2351.183,1053.392C2347.84,1052.886 2344.649,1051.668 2341.83,1049.824C2341.747,1049.786 2341.681,1049.72 2341.643,1049.637C2341.606,1049.555 2341.601,1049.462 2341.627,1049.375C2341.651,1049.29 2341.7,1049.215 2341.768,1049.157C2341.835,1049.099 2341.918,1049.062 2342.007,1049.051C2343.018,1049.051 2351.891,1048.402 2353.56,1050.398C2353.709,1050.561 2353.813,1050.759 2353.862,1050.973C2353.91,1051.187 2353.902,1051.41 2353.838,1051.621C2353.76,1051.963 2353.6,1052.283 2353.371,1052.552C2353.142,1052.821 2352.852,1053.032 2352.523,1053.167C2352.094,1053.321 2351.64,1053.397 2351.183,1053.392ZM2343.473,1049.799C2347.543,1052.02 2350.754,1052.993 2352.194,1052.294C2352.403,1052.211 2352.588,1052.079 2352.733,1051.909C2352.878,1051.74 2352.98,1051.538 2353.029,1051.321C2353.073,1051.245 2353.096,1051.159 2353.096,1051.072C2353.096,1050.984 2353.073,1050.898 2353.029,1050.822C2351.992,1049.824 2347.088,1049.65 2343.473,1049.799Z" fill="#407BFF"/>
<path d="M2342.032,1049.899C2341.961,1049.898 2341.891,1049.878 2341.829,1049.844C2341.768,1049.809 2341.716,1049.759 2341.678,1049.7C2341.647,1049.638 2341.631,1049.569 2341.631,1049.5C2341.631,1049.431 2341.647,1049.363 2341.678,1049.301C2341.83,1049.001 2345.192,1042.24 2349.515,1044.311C2350.703,1044.885 2350.804,1045.558 2350.703,1046.032C2350.273,1048.053 2344.661,1049.874 2342.082,1049.949L2342.032,1049.899ZM2347.872,1044.735C2345.546,1044.735 2343.549,1047.654 2342.816,1049.001C2345.521,1048.677 2349.666,1047.005 2349.919,1045.808C2349.919,1045.558 2349.717,1045.284 2349.161,1045.009C2348.76,1044.816 2348.317,1044.722 2347.872,1044.735Z" fill="#407BFF"/>
<path d="M2388.825,541.015L2404.221,536.849L2406.319,556.035C2406.319,556.035 2391.151,560.525 2387.384,552.666L2388.825,541.015Z" fill="#7F3E3B"/>
<path d="M2388.522,541.414C2391.745,537.964 2393.634,533.503 2393.856,528.815L2397.799,530.936C2397.799,530.936 2398.583,539.543 2397.041,542.013C2395.499,544.483 2388.522,541.414 2388.522,541.414Z" fill="#7F3E3B"/>
<path d="M2411.425,538.745L2410.49,556.035L2406.319,556.035L2404.195,536.849L2411.425,538.745Z" fill="#7F3E3B"/>
<path d="M2332.172,1010.654L2360.157,1036.651L2369.182,1027.096L2337.153,998.304L2332.172,1010.654Z" fill="#407BFF"/>
<g opacity="0.1">
<path d="M2332.172,1010.654L2360.157,1036.651L2369.182,1027.096L2337.153,998.304L2332.172,1010.654Z" fill="#000000"/>
</g>
<path d="M2420.173,592.36C2420.173,592.36 2421.942,733.696 2418.909,786.663C2415.597,844.643 2398.912,1036.775 2398.912,1036.775L2364.582,1036.775C2364.582,1036.775 2365.618,849.335 2363.545,791.927C2361.296,729.555 2355.481,592.335 2355.481,592.335L2420.173,592.36Z" fill="#407BFF"/>
<g opacity="0.5">
<path d="M2420.173,592.36C2420.173,592.36 2421.942,733.696 2418.909,786.663C2415.597,844.643 2398.912,1036.775 2398.912,1036.775L2364.582,1036.775C2364.582,1036.775 2365.618,849.335 2363.545,791.927C2361.296,729.555 2355.481,592.335 2355.481,592.335L2420.173,592.36Z" fill="#000000"/>
</g>
<path d="M2363.217,1036.776L2400.302,1036.776L2402.35,1023.903L2361.422,1025.923L2363.217,1036.776Z" fill="#407BFF"/>
<g opacity="0.1">
<path d="M2363.217,1036.776L2400.302,1036.776L2402.35,1023.903L2361.422,1025.923L2363.217,1036.776Z" fill="#000000"/>
</g>
<path d="M2344.054,431.539C2326.358,434.034 2308.232,498.178 2308.232,498.178L2350.88,514.195C2350.88,514.195 2361.598,486.751 2368.929,465.22C2376.615,442.791 2362.989,428.795 2344.054,431.539Z" fill="#407BFF"/>
<g opacity="0.5">
<path d="M2344.054,431.539C2326.358,434.034 2308.232,498.178 2308.232,498.178L2350.88,514.195C2350.88,514.195 2361.598,486.751 2368.929,465.22C2376.615,442.791 2362.989,428.795 2344.054,431.539Z" fill="#FFFFFF"/>
</g>
</svg>
