<svg width="432" height="102" viewBox="0 0 432 102" fill="none" xmlns="http://www.w3.org/2000/svg" xmlns:xlink="http://www.w3.org/1999/xlink">
<path d="M170.108,11.314L199.162,0L164.839,99.849L139.847,99.849L170.108,11.314Z" fill="#2274FF"/>
<path d="M346.639,55.987L346.639,99.912L324.963,99.912L324.963,59.135C324.963,50.262 319.327,46.117 312.367,46.117C304.411,46.117 298.921,50.699 298.921,60.849L298.921,99.912L277.267,99.912L277.267,38.014L298.921,28.383L298.921,35.105C302.826,29.817 310.048,26.378 319.589,26.378C334.211,26.378 346.639,36.684 346.639,55.987Z" fill="#030163"/>
<path d="M236.687,80.682C242.251,78.666 246.218,74.802 247.835,70.864L267.547,74.251C264.262,85.793 256.001,94.125 243.048,98.79C219.83,107.174 199.74,96.93 192.35,76.9C184.961,56.87 193.925,36.123 215.379,28.373C235.197,21.215 255.466,31.095 262.95,51.385C263.958,54.074 264.683,56.859 265.112,59.696L216.922,77.16C222.076,83.217 229.224,83.383 236.687,80.682ZM240.141,51.717C235.092,44.704 227.944,44.091 221.835,46.304C214.099,49.099 210.289,54.73 210.95,62.272L240.141,51.717Z" fill="#030163"/>
<path d="M360.599,72.381L360.599,33.754L382.274,28.466L382.274,69.233C382.274,78.105 387.911,82.251 394.87,82.251C402.827,82.251 408.316,77.669 408.316,67.519L408.316,28.466L430.002,28.466L430.002,90.385L408.295,99.995L408.295,93.273C404.391,98.562 397.169,102 387.628,102C373.027,102 360.599,91.694 360.599,72.381Z" fill="#030163"/>
<path d="M136.74,28.269L111.265,28.269L135.596,99.797L160.976,99.797L136.74,28.269Z" fill="#030163"/>
<path d="M91.997,101.814C91.566,101.812 91.14,101.716 90.751,101.533C90.362,101.35 90.018,101.084 89.745,100.755L89.66,100.654L79.836,87.507L19.455,87.507C18.313,87.505 17.2,87.146 16.277,86.481C15.353,85.816 14.666,84.878 14.313,83.803C13.961,82.728 13.961,81.57 14.313,80.495C14.666,79.419 15.353,78.482 16.276,77.817L18.35,76.059C18.537,75.865 18.741,75.672 18.953,75.478L20.755,73.796L26.228,68.749L34.182,61.381C34.454,61.131 34.783,60.951 35.141,60.856C35.499,60.761 35.875,60.755 36.236,60.838C36.597,60.921 36.932,61.091 37.211,61.332C37.49,61.574 37.705,61.879 37.837,62.222L42.366,73.779L50.346,40.664C50.191,40.691 50.038,40.727 49.887,40.773L49.768,40.773L17.942,49.142L29.559,53.861C29.911,54.004 30.221,54.233 30.46,54.526C30.699,54.819 30.86,55.167 30.927,55.538C30.994,55.908 30.965,56.29 30.843,56.647C30.722,57.004 30.511,57.324 30.231,57.579L10.2,75.68L10.124,75.748C9.224,76.499 8.124,76.979 6.956,77.128C5.787,77.277 4.601,77.09 3.537,76.589C2.477,76.099 1.581,75.319 0.955,74.341C0.328,73.364 -0.002,72.229 0.002,71.071L0.002,28.711C0.004,27.845 0.236,26.994 0.676,26.245C1.117,25.497 1.749,24.876 2.509,24.447L44.788,0.643C45.537,0.222 46.383,0.001 47.244,0.001C48.105,0.001 48.951,0.222 49.7,0.643L66.578,10.223L66.578,8.373C66.573,7.869 66.668,7.37 66.858,6.904C67.049,6.437 67.33,6.012 67.688,5.654C68.045,5.296 68.47,5.011 68.939,4.817C69.408,4.622 69.911,4.521 70.419,4.52L81.076,4.52C82.092,4.525 83.064,4.924 83.785,5.632C84.505,6.34 84.915,7.301 84.926,8.305L85.028,20.418C85.029,20.496 85.051,20.573 85.093,20.64C85.135,20.707 85.195,20.761 85.266,20.796L92.243,24.421C93.043,24.836 93.714,25.46 94.181,26.225C94.649,26.99 94.895,27.868 94.895,28.762L94.895,85.564C94.895,87.481 94.954,95.716 94.963,98.87C94.969,99.474 94.785,100.064 94.436,100.559C94.087,101.053 93.591,101.428 93.017,101.629C92.69,101.749 92.345,101.812 91.997,101.814L91.997,101.814ZM21.409,79.339L21.29,79.449L19.14,81.274L18.945,81.417C18.736,81.488 18.563,81.636 18.463,81.831C18.363,82.026 18.343,82.252 18.409,82.461C18.474,82.67 18.619,82.845 18.812,82.95C19.006,83.055 19.233,83.081 19.446,83.023L80.974,83.023C81.328,83.023 81.677,83.106 81.993,83.263C82.309,83.421 82.583,83.65 82.793,83.932L90.441,94.152C90.441,90.711 90.442,86.834 90.391,85.589L90.391,28.77C90.39,28.692 90.367,28.615 90.325,28.548C90.283,28.481 90.223,28.427 90.153,28.392L83.175,24.766C82.381,24.353 81.714,23.735 81.247,22.976C80.78,22.218 80.53,21.348 80.524,20.46L80.422,8.995L71.074,8.995L71.074,13.007C71.083,13.512 70.957,14.01 70.708,14.45C70.46,14.891 70.097,15.258 69.658,15.514C69.219,15.771 68.719,15.908 68.21,15.911C67.7,15.913 67.198,15.782 66.757,15.531L47.406,4.596C47.34,4.559 47.265,4.54 47.189,4.54C47.113,4.54 47.039,4.559 46.972,4.596L4.744,28.333C4.677,28.371 4.621,28.426 4.582,28.493C4.544,28.559 4.523,28.635 4.523,28.711L4.523,71.071C4.537,71.374 4.633,71.668 4.802,71.921C4.971,72.174 5.206,72.378 5.482,72.51C5.758,72.642 6.065,72.697 6.371,72.67C6.676,72.644 6.969,72.536 7.217,72.358L24.545,56.662L15.46,52.97C14.783,52.808 14.159,52.474 13.652,52C13.146,51.527 12.773,50.93 12.571,50.27C11.993,48.133 13.642,46.257 13.973,45.904C14.263,45.599 14.634,45.38 15.044,45.273L48.562,36.483C49.607,36.164 52.088,35.642 53.763,37.156C54.527,37.854 55.326,39.175 54.782,41.513L46.454,76.067C46.423,76.2 46.381,76.329 46.327,76.454C46.088,77.102 45.696,77.684 45.185,78.152C44.674,78.62 44.057,78.96 43.386,79.146C42.736,79.283 42.063,79.279 41.415,79.134C40.766,78.989 40.157,78.706 39.63,78.305C39.308,78.06 39.059,77.735 38.907,77.363L34.845,66.916C29.814,71.559 21.894,78.885 21.409,79.339Z" fill="#2274FF"/>
<g opacity="0.5">
<path d="M51.06,17.289L51.052,17.289C50.31,17.289 49.709,17.884 49.709,18.618L49.709,30.234C49.709,30.968 50.31,31.563 51.052,31.563L51.06,31.563C51.802,31.563 52.403,30.968 52.403,30.234L52.403,18.618C52.403,17.884 51.802,17.289 51.06,17.289Z" fill="#2274FF"/>
<path d="M39.69,21.914L39.681,21.914C38.944,21.914 38.345,22.512 38.345,23.25L38.345,34.926C38.345,35.664 38.944,36.262 39.681,36.262L39.69,36.262C40.428,36.262 41.026,35.664 41.026,34.926L41.026,23.25C41.026,22.512 40.428,21.914 39.69,21.914Z" transform="rotate(-89.41 39.686 29.088)" fill="#2274FF"/>
<path d="M62.429,44.409L62.42,44.409C61.683,44.409 61.084,45.007 61.084,45.745L61.084,57.421C61.084,58.159 61.683,58.757 62.42,58.757L62.429,58.757C63.167,58.757 63.765,58.159 63.765,57.421L63.765,45.745C63.765,45.007 63.167,44.409 62.429,44.409Z" transform="rotate(-89.411 62.425 51.583)" fill="#2274FF"/>
<path d="M67.131,33.121L67.123,33.121C66.389,33.121 65.794,33.722 65.794,34.464L65.794,46.2C65.794,46.942 66.389,47.543 67.123,47.543L67.131,47.543C67.865,47.543 68.46,46.942 68.46,46.2L68.46,34.464C68.46,33.722 67.865,33.121 67.131,33.121Z" transform="rotate(-180 67.127 40.332)" fill="#2274FF"/>
<path d="M62.433,21.91L62.424,21.91C61.686,21.91 61.088,22.508 61.088,23.246L61.088,34.922C61.088,35.66 61.686,36.258 62.424,36.258L62.433,36.258C63.17,36.258 63.768,35.66 63.768,34.922L63.768,23.246C63.768,22.508 63.17,21.91 62.433,21.91Z" transform="rotate(-270.589 62.428 29.084)" fill="#2274FF"/>
</g>
</svg>
