<svg width="428" height="120" viewBox="0 0 428 120" fill="none" xmlns="http://www.w3.org/2000/svg" xmlns:xlink="http://www.w3.org/1999/xlink">
<path d="M181.779,10.705L209.084,0L176.828,94.48L153.341,94.48L181.779,10.705Z" fill="#2274FF"/>
<path d="M347.677,52.976L347.677,94.539L327.308,94.539L327.308,55.955C327.308,47.56 322.01,43.637 315.47,43.637C307.993,43.637 302.834,47.972 302.834,57.577L302.834,94.539L282.484,94.539L282.484,35.97L302.834,26.857L302.834,33.217C306.504,28.213 313.29,24.959 322.257,24.959C335.998,24.959 347.677,34.711 347.677,52.976Z" fill="#030163"/>
<path d="M244.349,76.343C249.577,74.436 253.306,70.779 254.825,67.053L273.35,70.258C270.262,81.18 262.499,89.064 250.327,93.477C228.507,101.411 209.626,91.718 202.682,72.765C195.738,53.812 204.162,34.18 224.324,26.847C242.948,20.074 261.996,29.422 269.029,48.621C269.977,51.166 270.658,53.801 271.061,56.486L225.774,73.01C230.618,78.742 237.335,78.899 244.349,76.343ZM247.594,48.936C242.85,42.3 236.132,41.72 230.391,43.814C223.121,46.458 219.54,51.787 220.162,58.923L247.594,48.936Z" fill="#030163"/>
<path d="M360.797,68.489L360.797,31.939L381.167,26.935L381.167,65.51C381.167,73.905 386.464,77.828 393.004,77.828C400.481,77.828 405.64,73.492 405.64,63.888L405.64,26.935L426.02,26.935L426.02,85.525L405.62,94.618L405.62,88.258C401.951,93.261 395.164,96.515 386.198,96.515C372.476,96.515 360.797,86.763 360.797,68.489Z" fill="#030163"/>
<path d="M150.421,26.749L126.48,26.749L149.346,94.431L173.198,94.431L150.421,26.749Z" fill="#030163"/>
<path d="M106.781,120C106.281,119.998 105.787,119.885 105.335,119.671C104.884,119.457 104.485,119.146 104.167,118.761L104.068,118.643L92.665,103.278L22.579,103.278C21.254,103.276 19.963,102.857 18.891,102.079C17.819,101.302 17.021,100.207 16.612,98.95C16.202,97.693 16.202,96.34 16.612,95.083C17.021,93.827 17.818,92.731 18.89,91.954L21.297,89.899C21.514,89.673 21.751,89.447 21.997,89.221L24.089,87.255L30.441,81.356L39.674,72.745C39.989,72.453 40.371,72.242 40.787,72.131C41.202,72.021 41.639,72.014 42.058,72.111C42.477,72.208 42.865,72.406 43.19,72.688C43.514,72.97 43.763,73.327 43.916,73.728L49.174,87.235L58.436,48.533C58.256,48.564 58.078,48.607 57.904,48.66L57.765,48.66L20.824,58.442L34.308,63.957C34.717,64.124 35.076,64.391 35.354,64.733C35.631,65.076 35.818,65.482 35.895,65.916C35.973,66.349 35.94,66.795 35.799,67.212C35.657,67.629 35.413,68.004 35.087,68.302L11.837,89.457L11.748,89.535C10.704,90.414 9.427,90.974 8.071,91.148C6.715,91.323 5.338,91.104 4.104,90.518C2.873,89.946 1.833,89.035 1.106,87.892C0.379,86.749 -0.005,85.423 0,84.07L0,34.564C0.002,33.551 0.272,32.557 0.783,31.682C1.294,30.807 2.028,30.082 2.91,29.58L51.985,1.76C52.854,1.268 53.836,1.01 54.836,1.01C55.835,1.01 56.817,1.268 57.687,1.76L77.277,12.956L77.277,10.794C77.271,10.206 77.381,9.622 77.602,9.077C77.823,8.531 78.15,8.035 78.565,7.616C78.979,7.198 79.473,6.865 80.017,6.638C80.561,6.41 81.146,6.293 81.736,6.291L94.106,6.291C95.284,6.296 96.413,6.763 97.249,7.591C98.085,8.419 98.561,9.541 98.574,10.715L98.692,24.871C98.693,24.963 98.72,25.053 98.768,25.131C98.817,25.209 98.886,25.272 98.969,25.313L107.067,29.55C107.996,30.035 108.774,30.764 109.317,31.658C109.859,32.552 110.146,33.578 110.145,34.623L110.145,101.007C110.145,103.249 110.214,112.873 110.224,116.559C110.232,117.264 110.018,117.954 109.613,118.532C109.208,119.11 108.632,119.548 107.965,119.784C107.586,119.924 107.185,119.997 106.781,120L106.781,120ZM24.848,93.733L24.71,93.861L22.214,95.994L21.988,96.161C21.745,96.244 21.545,96.418 21.428,96.645C21.312,96.873 21.289,97.137 21.365,97.381C21.441,97.625 21.609,97.83 21.834,97.953C22.058,98.076 22.322,98.107 22.57,98.039L93.987,98.039C94.398,98.039 94.803,98.135 95.169,98.319C95.536,98.504 95.854,98.771 96.098,99.1L104.976,111.044C104.976,107.024 104.976,102.492 104.917,101.037L104.917,34.632C104.916,34.541 104.89,34.451 104.841,34.373C104.792,34.295 104.723,34.231 104.641,34.19L96.542,29.953C95.62,29.471 94.846,28.748 94.304,27.861C93.762,26.975 93.472,25.958 93.464,24.92L93.346,11.521L82.495,11.521L82.495,16.21C82.506,16.8 82.36,17.382 82.071,17.896C81.782,18.411 81.362,18.84 80.852,19.14C80.343,19.44 79.763,19.6 79.171,19.603C78.579,19.607 77.997,19.453 77.484,19.159L55.023,6.38C54.946,6.337 54.86,6.314 54.772,6.314C54.684,6.314 54.597,6.337 54.52,6.38L5.504,34.121C5.426,34.166 5.362,34.231 5.317,34.308C5.272,34.386 5.248,34.474 5.248,34.564L5.248,84.07C5.264,84.424 5.376,84.767 5.572,85.063C5.768,85.359 6.041,85.597 6.361,85.751C6.682,85.905 7.038,85.97 7.393,85.939C7.747,85.908 8.086,85.782 8.375,85.574L28.488,67.23L17.943,62.915C17.156,62.726 16.433,62.336 15.845,61.782C15.256,61.228 14.823,60.531 14.589,59.759C13.919,57.262 15.832,55.07 16.217,54.657C16.554,54.3 16.984,54.045 17.46,53.92L56.365,43.647C57.578,43.273 60.458,42.664 62.402,44.433C63.289,45.249 64.217,46.793 63.585,49.526L53.918,89.909C53.883,90.064 53.833,90.215 53.77,90.361C53.493,91.118 53.039,91.798 52.445,92.345C51.852,92.892 51.136,93.29 50.357,93.507C49.603,93.668 48.822,93.663 48.069,93.493C47.316,93.323 46.609,92.993 45.997,92.524C45.624,92.238 45.334,91.858 45.159,91.423L40.444,79.213C34.604,84.64 25.411,93.202 24.848,93.733Z" fill="#2274FF"/>
<g opacity="0.5">
<path d="M59.265,21.214L59.255,21.214C58.394,21.214 57.696,21.909 57.696,22.767L57.696,36.343C57.696,37.201 58.394,37.896 59.255,37.896L59.265,37.896C60.126,37.896 60.823,37.201 60.823,36.343L60.823,22.767C60.823,21.909 60.126,21.214 59.265,21.214Z" fill="#2274FF"/>
<path d="M46.066,26.649L46.056,26.649C45.197,26.649 44.5,27.345 44.5,28.205L44.5,41.804C44.5,42.663 45.197,43.36 46.056,43.36L46.066,43.36C46.926,43.36 47.622,42.663 47.622,41.804L47.622,28.205C47.622,27.345 46.926,26.649 46.066,26.649Z" transform="rotate(-89.803 46.061 35.004)" fill="#2274FF"/>
<path d="M72.46,52.938L72.451,52.938C71.591,52.938 70.895,53.635 70.895,54.494L70.895,68.093C70.895,68.953 71.591,69.649 72.451,69.649L72.46,69.649C73.32,69.649 74.016,68.953 74.016,68.093L74.016,54.494C74.016,53.635 73.32,52.938 72.46,52.938Z" transform="rotate(-89.803 72.455 61.294)" fill="#2274FF"/>
<path d="M77.918,39.774L77.908,39.774C77.05,39.774 76.355,40.472 76.355,41.333L76.355,54.956C76.355,55.816 77.05,56.514 77.908,56.514L77.918,56.514C78.776,56.514 79.471,55.816 79.471,54.956L79.471,41.333C79.471,40.472 78.776,39.774 77.918,39.774Z" transform="rotate(-180 77.913 48.144)" fill="#2274FF"/>
<path d="M72.464,26.644L72.454,26.644C71.595,26.644 70.898,27.34 70.898,28.2L70.898,41.799C70.898,42.658 71.595,43.355 72.454,43.355L72.464,43.355C73.323,43.355 74.02,42.658 74.02,41.799L74.02,28.2C74.02,27.34 73.323,26.644 72.464,26.644Z" transform="rotate(-270.197 72.459 34.999)" fill="#2274FF"/>
</g>
<path d="M157.188,114.937L157.188,119.076C156.967,119.211 156.732,119.323 156.487,119.41C156.22,119.508 155.946,119.59 155.669,119.656C155.386,119.724 155.1,119.773 154.81,119.803C154.538,119.818 154.264,119.818 153.992,119.803C153.336,119.815 152.686,119.695 152.078,119.45C151.541,119.224 151.058,118.889 150.658,118.466C150.273,118.062 149.974,117.584 149.78,117.061C149.575,116.521 149.471,115.947 149.474,115.37C149.469,114.774 149.58,114.184 149.799,113.63C150.009,113.111 150.317,112.637 150.707,112.234C151.101,111.83 151.574,111.512 152.098,111.3C152.661,111.068 153.264,110.951 153.873,110.956C154.521,110.936 155.166,111.036 155.777,111.251C156.243,111.426 156.667,111.697 157.02,112.047L156.211,112.912C155.899,112.602 155.521,112.364 155.106,112.214C154.709,112.1 154.296,112.05 153.883,112.067C153.451,112.059 153.021,112.142 152.623,112.311C152.225,112.481 151.868,112.733 151.575,113.05C151.293,113.358 151.076,113.719 150.934,114.112C150.782,114.527 150.705,114.967 150.707,115.409C150.704,115.864 150.791,116.315 150.963,116.736C151.121,117.132 151.356,117.493 151.654,117.798C151.934,118.095 152.269,118.335 152.64,118.506C153.052,118.679 153.495,118.766 153.942,118.761C154.33,118.765 154.717,118.729 155.097,118.653C155.42,118.593 155.733,118.484 156.024,118.329L156.024,115.999L154.15,115.999L154.15,114.928L157.188,114.937Z" fill="#9AA1A8"/>
<path d="M165.02,111.241L165.02,116.392C165.022,116.668 165.058,116.942 165.129,117.208C165.198,117.487 165.319,117.75 165.484,117.985C165.655,118.224 165.877,118.422 166.135,118.565C166.444,118.708 166.78,118.782 167.121,118.782C167.462,118.782 167.799,118.708 168.108,118.565C168.365,118.422 168.588,118.224 168.759,117.985C168.924,117.75 169.044,117.487 169.114,117.208C169.184,116.942 169.221,116.668 169.222,116.392L169.222,111.241L170.367,111.241L170.367,116.569C170.374,117.027 170.29,117.481 170.12,117.906C169.962,118.296 169.727,118.65 169.429,118.948C169.135,119.243 168.782,119.474 168.394,119.627C167.565,119.943 166.648,119.943 165.819,119.627C165.431,119.474 165.078,119.243 164.783,118.948C164.485,118.651 164.251,118.296 164.093,117.906C163.922,117.482 163.838,117.027 163.846,116.569L163.846,111.241L165.02,111.241Z" fill="#9AA1A8"/>
<path d="M177.183,111.241L182.628,111.241L182.628,112.313L178.327,112.313L178.327,114.819L182.332,114.819L182.332,115.891L178.327,115.891L178.327,118.585L182.845,118.585L182.845,119.656L177.183,119.656L177.183,111.241Z" fill="#9AA1A8"/>
<path d="M189.474,117.886C189.667,118.183 189.94,118.418 190.263,118.565C190.572,118.706 190.909,118.78 191.249,118.781C191.447,118.781 191.643,118.751 191.831,118.693C192.026,118.636 192.21,118.546 192.374,118.427C192.538,118.309 192.676,118.159 192.778,117.985C192.886,117.8 192.941,117.589 192.936,117.375C192.945,117.237 192.922,117.099 192.869,116.971C192.816,116.843 192.734,116.729 192.63,116.638C192.399,116.453 192.139,116.306 191.861,116.205C191.552,116.094 191.223,115.983 190.874,115.871C190.527,115.768 190.196,115.619 189.888,115.429C189.577,115.234 189.314,114.972 189.119,114.662C188.895,114.267 188.789,113.817 188.813,113.364C188.815,113.095 188.869,112.828 188.971,112.578C189.083,112.293 189.255,112.035 189.474,111.821C189.73,111.576 190.032,111.383 190.361,111.251C190.775,111.085 191.218,111.005 191.664,111.015C192.111,111.012 192.556,111.075 192.985,111.202C193.424,111.343 193.81,111.614 194.09,111.978L193.163,112.824C193.011,112.595 192.8,112.411 192.551,112.293C192.273,112.152 191.965,112.081 191.654,112.086C191.385,112.081 191.118,112.124 190.865,112.214C190.676,112.286 190.504,112.396 190.361,112.539C190.242,112.658 190.151,112.802 190.095,112.961C190.046,113.094 190.02,113.233 190.016,113.374C190.006,113.524 190.028,113.675 190.08,113.815C190.133,113.956 190.216,114.084 190.322,114.19C190.547,114.391 190.808,114.548 191.091,114.652C191.414,114.779 191.743,114.888 192.078,114.977C192.422,115.069 192.754,115.204 193.064,115.38C193.37,115.548 193.633,115.783 193.834,116.068C194.057,116.423 194.164,116.839 194.14,117.257C194.144,117.634 194.063,118.007 193.903,118.348C193.757,118.662 193.545,118.94 193.281,119.164C193.008,119.393 192.693,119.566 192.354,119.676C191.985,119.796 191.598,119.856 191.21,119.853C190.683,119.856 190.161,119.759 189.671,119.567C189.208,119.395 188.807,119.091 188.517,118.693L189.474,117.886Z" fill="#9AA1A8"/>
<path d="M202.376,112.303L199.654,112.303L199.654,111.231L206.233,111.231L206.233,112.303L203.521,112.303L203.521,119.636L202.376,119.636L202.376,112.303Z" fill="#9AA1A8"/>
<path d="M220.536,117.886C220.729,118.183 221.003,118.418 221.326,118.565C221.635,118.706 221.971,118.78 222.312,118.781C222.509,118.781 222.706,118.751 222.894,118.693C223.089,118.636 223.273,118.546 223.437,118.427C223.601,118.309 223.739,118.159 223.841,117.985C223.949,117.8 224.004,117.589 223.999,117.375C224.008,117.237 223.985,117.099 223.932,116.971C223.879,116.843 223.797,116.729 223.693,116.638C223.462,116.453 223.202,116.306 222.924,116.205C222.615,116.094 222.286,115.983 221.937,115.871C221.59,115.768 221.258,115.619 220.951,115.429C220.64,115.234 220.377,114.972 220.181,114.662C219.957,114.267 219.851,113.817 219.876,113.364C219.878,113.095 219.932,112.828 220.033,112.578C220.146,112.293 220.317,112.035 220.536,111.821C220.793,111.576 221.094,111.383 221.424,111.251C221.838,111.085 222.281,111.005 222.726,111.015C223.174,111.012 223.619,111.075 224.048,111.202C224.487,111.343 224.872,111.614 225.153,111.978L224.226,112.824C224.074,112.595 223.862,112.411 223.614,112.293C223.336,112.152 223.028,112.081 222.716,112.086C222.448,112.081 222.18,112.124 221.927,112.214C221.738,112.286 221.567,112.396 221.424,112.539C221.305,112.658 221.214,112.802 221.158,112.961C221.109,113.094 221.083,113.233 221.079,113.374C221.068,113.524 221.09,113.675 221.143,113.815C221.196,113.956 221.278,114.084 221.385,114.19C221.61,114.391 221.871,114.548 222.154,114.652C222.476,114.779 222.806,114.888 223.141,114.977C223.485,115.069 223.817,115.204 224.127,115.38C224.433,115.548 224.696,115.783 224.896,116.068C225.12,116.423 225.227,116.839 225.202,117.257C225.206,117.634 225.125,118.007 224.965,118.348C224.82,118.662 224.608,118.94 224.344,119.164C224.071,119.393 223.756,119.566 223.417,119.676C223.048,119.796 222.661,119.856 222.273,119.853C221.746,119.856 221.224,119.759 220.734,119.567C220.271,119.395 219.87,119.091 219.58,118.693L220.536,117.886Z" fill="#9AA1A8"/>
<path d="M231.673,111.241L237.118,111.241L237.118,112.313L232.798,112.313L232.798,114.819L236.803,114.819L236.803,115.891L232.798,115.891L232.798,118.585L237.316,118.585L237.316,119.656L231.653,119.656L231.673,111.241Z" fill="#9AA1A8"/>
<path d="M243.718,111.241L246.677,111.241C247.131,111.226 247.583,111.3 248.008,111.457C248.323,111.58 248.606,111.772 248.837,112.018C249.033,112.236 249.178,112.494 249.261,112.775C249.338,113.04 249.378,113.315 249.38,113.591C249.382,113.856 249.335,114.119 249.242,114.367C249.146,114.617 249.005,114.846 248.827,115.046C248.642,115.253 248.422,115.426 248.176,115.557C247.907,115.699 247.612,115.786 247.308,115.812L249.705,119.646L248.275,119.646L246.134,115.94L244.862,115.94L244.862,119.646L243.718,119.646L243.718,111.241ZM244.862,114.947L246.361,114.947C246.582,114.949 246.803,114.932 247.022,114.898C247.226,114.866 247.423,114.8 247.604,114.701C247.777,114.604 247.92,114.461 248.018,114.289C248.12,114.072 248.173,113.835 248.173,113.596C248.173,113.356 248.12,113.119 248.018,112.903C247.92,112.73 247.777,112.587 247.604,112.49C247.423,112.391 247.226,112.325 247.022,112.293C246.803,112.259 246.582,112.242 246.361,112.244L244.862,112.244L244.862,114.947Z" fill="#9AA1A8"/>
<path d="M254.598,111.241L255.92,111.241L258.396,118.123L260.97,111.241L262.223,111.241L258.899,119.646L257.853,119.646L254.598,111.241Z" fill="#9AA1A8"/>
<rect  x="268.023" y="111.241" width="1.144" height="8.405" fill="#9AA1A8"/>
<path d="M281.971,113.05C281.733,112.74 281.421,112.493 281.064,112.332C280.708,112.17 280.321,112.086 279.929,112.087C279.484,112.08 279.043,112.17 278.637,112.352C278.261,112.523 277.925,112.771 277.651,113.079C277.371,113.396 277.153,113.763 277.01,114.161C276.857,114.59 276.78,115.042 276.783,115.498C276.781,115.926 276.855,116.352 277,116.756C277.137,117.14 277.348,117.494 277.621,117.798C277.896,118.103 278.232,118.347 278.608,118.516C279.025,118.694 279.476,118.781 279.929,118.771C280.372,118.781 280.809,118.68 281.202,118.476C281.571,118.273 281.889,117.987 282.129,117.641L283.116,118.368C283.012,118.5 282.9,118.624 282.78,118.742C282.59,118.927 282.378,119.088 282.149,119.223C281.839,119.407 281.508,119.552 281.162,119.656C280.748,119.786 280.315,119.849 279.88,119.843C279.257,119.851 278.64,119.72 278.075,119.459C277.559,119.223 277.093,118.889 276.704,118.476C275.966,117.669 275.552,116.619 275.54,115.527C275.534,114.912 275.645,114.302 275.865,113.728C276.066,113.198 276.372,112.714 276.763,112.303C277.156,111.898 277.63,111.58 278.154,111.369C278.721,111.142 279.328,111.029 279.939,111.035C280.501,111.037 281.057,111.147 281.577,111.359C282.1,111.559 282.557,111.9 282.899,112.342L281.971,113.05Z" fill="#9AA1A8"/>
<path d="M289.251,111.241L294.696,111.241L294.696,112.313L290.395,112.313L290.395,114.819L294.4,114.819L294.4,115.891L290.395,115.891L290.395,118.585L294.943,118.585L294.943,119.656L289.281,119.656L289.251,111.241Z" fill="#9AA1A8"/>
<path d="M301.542,117.887C301.735,118.183 302.009,118.418 302.331,118.565C302.641,118.706 302.977,118.78 303.318,118.781C303.515,118.781 303.711,118.751 303.9,118.693C304.095,118.636 304.278,118.546 304.442,118.427C304.594,118.3 304.719,118.143 304.807,117.965C304.915,117.78 304.97,117.57 304.965,117.356C304.974,117.218 304.951,117.079 304.898,116.952C304.845,116.824 304.763,116.71 304.659,116.618C304.428,116.433 304.168,116.287 303.89,116.186C303.581,116.075 303.252,115.963 302.903,115.852C302.556,115.748 302.225,115.6 301.917,115.409C301.606,115.215 301.343,114.952 301.148,114.643C300.924,114.248 300.817,113.798 300.842,113.345C300.844,113.075 300.898,112.808 301,112.558C301.112,112.274 301.284,112.016 301.503,111.802C301.759,111.557 302.061,111.363 302.39,111.231C302.804,111.066 303.247,110.986 303.692,110.995C304.14,110.993 304.585,111.056 305.014,111.182C305.453,111.323 305.839,111.594 306.119,111.959L305.192,112.804C305.04,112.575 304.829,112.392 304.58,112.273C304.302,112.133 303.994,112.062 303.683,112.067C303.414,112.061 303.146,112.104 302.893,112.195C302.705,112.266 302.533,112.377 302.39,112.519C302.271,112.639 302.18,112.783 302.124,112.942C302.075,113.074 302.049,113.214 302.045,113.355C302.035,113.505 302.057,113.655 302.109,113.796C302.162,113.936 302.244,114.064 302.351,114.171C302.576,114.372 302.837,114.528 303.12,114.633C303.443,114.76 303.772,114.868 304.107,114.957C304.451,115.049 304.783,115.185 305.093,115.36C305.399,115.528 305.662,115.764 305.863,116.048C306.086,116.403 306.193,116.819 306.168,117.238C306.172,117.615 306.092,117.987 305.932,118.329C305.786,118.642 305.574,118.921 305.31,119.145C305.037,119.373 304.722,119.547 304.383,119.656C304.014,119.777 303.627,119.836 303.239,119.833C302.712,119.836 302.19,119.74 301.7,119.548C301.237,119.376 300.836,119.071 300.546,118.673L301.542,117.887Z" fill="#9AA1A8"/>
<path d="M321.004,117.886C321.197,118.183 321.471,118.418 321.794,118.565C322.103,118.706 322.439,118.78 322.78,118.781C322.977,118.781 323.173,118.751 323.362,118.693C323.557,118.636 323.74,118.546 323.904,118.427C324.069,118.309 324.207,118.159 324.309,117.985C324.417,117.8 324.472,117.589 324.467,117.375C324.476,117.237 324.453,117.099 324.4,116.971C324.347,116.843 324.265,116.729 324.161,116.638C323.93,116.453 323.67,116.306 323.392,116.205C323.082,116.094 322.754,115.983 322.405,115.871C322.058,115.768 321.726,115.619 321.419,115.429C321.108,115.234 320.845,114.972 320.649,114.662C320.425,114.267 320.319,113.817 320.343,113.364C320.346,113.095 320.4,112.828 320.501,112.578C320.614,112.293 320.785,112.035 321.004,111.821C321.261,111.576 321.562,111.383 321.892,111.251C322.306,111.085 322.749,111.005 323.194,111.015C323.642,111.012 324.087,111.075 324.516,111.202C324.955,111.343 325.34,111.614 325.621,111.978L324.694,112.824C324.542,112.595 324.33,112.411 324.082,112.293C323.804,112.152 323.496,112.081 323.184,112.086C322.916,112.081 322.648,112.124 322.395,112.214C322.206,112.286 322.035,112.396 321.892,112.539C321.773,112.658 321.682,112.802 321.626,112.961C321.577,113.094 321.551,113.233 321.547,113.374C321.536,113.524 321.558,113.675 321.611,113.815C321.664,113.956 321.746,114.084 321.853,114.19C322.078,114.391 322.339,114.548 322.622,114.652C322.944,114.779 323.274,114.888 323.609,114.977C323.953,115.069 324.285,115.204 324.595,115.38C324.901,115.548 325.164,115.783 325.364,116.068C325.588,116.423 325.695,116.839 325.67,117.257C325.674,117.634 325.593,118.007 325.433,118.348C325.288,118.662 325.076,118.94 324.812,119.164C324.539,119.393 324.224,119.566 323.885,119.676C323.516,119.796 323.129,119.856 322.74,119.853C322.214,119.856 321.692,119.759 321.202,119.567C320.739,119.395 320.338,119.091 320.048,118.693L321.004,117.886Z" fill="#9AA1A8"/>
<rect  x="332.141" y="111.241" width="1.144" height="8.405" fill="#9AA1A8"/>
<path d="M340.131,111.241L341.838,111.241L344.521,117.601L347.174,111.241L348.881,111.241L348.881,119.646L347.737,119.646L347.737,112.765L344.886,119.646L344.126,119.646L341.275,112.765L341.275,119.646L340.131,119.646L340.131,111.241Z" fill="#9AA1A8"/>
<path d="M355.766,111.241L358.725,111.241C359.179,111.226 359.632,111.3 360.057,111.457C360.372,111.58 360.655,111.772 360.886,112.018C361.082,112.236 361.227,112.494 361.31,112.775C361.466,113.304 361.466,113.867 361.31,114.397C361.229,114.678 361.084,114.937 360.886,115.154C360.655,115.4 360.372,115.591 360.057,115.714C359.632,115.873 359.179,115.946 358.725,115.93L356.901,115.93L356.901,119.636L355.756,119.636L355.766,111.241ZM356.91,114.947L358.41,114.947C358.631,114.949 358.852,114.932 359.071,114.898C359.275,114.866 359.472,114.8 359.653,114.701C359.826,114.604 359.969,114.461 360.067,114.289C360.169,114.072 360.222,113.835 360.222,113.596C360.222,113.356 360.169,113.119 360.067,112.903C359.969,112.73 359.826,112.587 359.653,112.49C359.472,112.391 359.275,112.325 359.071,112.293C358.852,112.259 358.631,112.242 358.41,112.244L356.91,112.244L356.91,114.947Z" fill="#9AA1A8"/>
<path d="M367.594,111.241L368.738,111.241L368.738,118.575L372.605,118.575L372.605,119.646L367.594,119.646L367.594,111.241Z" fill="#9AA1A8"/>
<rect  x="378.543" y="111.241" width="1.144" height="8.405" fill="#9AA1A8"/>
<path d="M386.612,111.241L391.909,111.241L391.909,112.313L387.756,112.313L387.756,114.947L391.613,114.947L391.613,115.999L387.746,115.999L387.746,119.627L386.602,119.627L386.612,111.241Z" fill="#9AA1A8"/>
<rect  x="398.212" y="111.241" width="1.144" height="8.405" fill="#9AA1A8"/>
<path d="M406.291,111.241L411.736,111.241L411.736,112.313L407.396,112.313L407.396,114.819L411.401,114.819L411.401,115.891L407.396,115.891L407.396,118.585L411.914,118.585L411.914,119.656L406.252,119.656L406.291,111.241Z" fill="#9AA1A8"/>
<path d="M418.138,111.241L421.098,111.241C421.627,111.23 422.156,111.296 422.666,111.438C423.08,111.557 423.472,111.74 423.83,111.978C424.144,112.19 424.421,112.453 424.649,112.755C424.861,113.033 425.036,113.337 425.171,113.659C425.296,113.957 425.389,114.267 425.448,114.584C425.502,114.865 425.532,115.152 425.536,115.439C425.538,115.974 425.437,116.504 425.241,117.002C425.043,117.503 424.744,117.958 424.363,118.339C423.951,118.761 423.458,119.095 422.913,119.322C422.284,119.566 421.614,119.686 420.94,119.676L418.188,119.676L418.138,111.241ZM419.282,118.575L420.723,118.575C421.187,118.577 421.649,118.511 422.094,118.378C422.507,118.257 422.892,118.056 423.228,117.788C423.559,117.523 423.825,117.187 424.007,116.805C424.206,116.377 424.304,115.91 424.294,115.439C424.291,115.107 424.248,114.777 424.165,114.456C424.066,114.099 423.899,113.765 423.672,113.473C423.408,113.129 423.071,112.847 422.686,112.647C422.166,112.4 421.594,112.282 421.019,112.303L419.302,112.303L419.282,118.575Z" fill="#9AA1A8"/>
</svg>
