<svg width="586" height="112" viewBox="0 0 586 112" fill="none" xmlns="http://www.w3.org/2000/svg" xmlns:xlink="http://www.w3.org/1999/xlink">
<rect  x="0" y="0.039" width="111.955" height="111.859" fill="#FF690F"/>
<rect  x="34.513" y="28.027" width="13.608" height="55.93" fill="#FFFFFF"/>
<path d="M77.442,83.91L62.431,83.91L46.952,55.969L62.431,28.027L77.442,28.027L61.87,55.969L77.442,83.91Z" fill="#FFFFFF"/>
<rect  x="118.175" y="0.039" width="111.955" height="111.859" fill="#FF690F"/>
<path d="M164.005,75.873L161.573,84.004L147.076,84.004L165.501,27.933L182.804,27.933L201.089,84.004L186.264,84.004L183.833,75.966L164.005,75.873ZM173.919,44.007L167.371,64.893L180.465,64.893L173.919,44.007Z" fill="#FFFFFF"/>
<rect  x="236.303" y="0.039" width="111.955" height="111.859" fill="#FF690F"/>
<path d="M299.295,84.004L285.594,84.004L285.594,59.286L267.215,27.933L283.396,27.933L292.468,45.128L301.4,27.934L317.347,27.934L299.295,59.286L299.295,84.004Z" fill="#FFFFFF"/>
<rect  x="354.478" y="0.039" width="111.955" height="111.859" fill="#FF690F"/>
<path d="M400.307,75.873L397.876,84.004L383.378,84.004L401.804,27.933L419.106,27.933L437.392,84.004L422.567,84.004L420.136,75.966L400.307,75.873ZM410.22,44.007L403.675,64.893L416.768,64.893L410.22,44.007Z" fill="#FFFFFF"/>
<rect  x="472.605" y="0.039" width="111.955" height="111.859" fill="#FF690F"/>
<rect  x="507.119" y="28.027" width="13.608" height="55.93" fill="#FFFFFF"/>
<path d="M550.048,83.91L535.037,83.91L519.558,55.969L535.037,28.027L550.048,28.027L534.476,55.969L550.048,83.91Z" fill="#FFFFFF"/>
</svg>
