<svg width="578" height="114" viewBox="0 0 578 114" fill="none" xmlns="http://www.w3.org/2000/svg" xmlns:xlink="http://www.w3.org/1999/xlink">
<path d="M143.23,30.801L143.23,56.615L173,56.615L173,30.801L180.939,30.801L180.939,92.688L173,92.688L173,63.896L143.23,63.896L143.23,92.688L135.291,92.688L135.291,30.801L143.23,30.801ZM232.542,70.183C232.542,86.731 221.295,93.68 210.379,93.68C198.471,93.68 189.209,84.745 189.209,70.845C189.209,55.953 198.802,47.348 211.041,47.348C223.941,47.348 232.542,56.615 232.542,70.183ZM197.479,70.514C197.479,80.112 203.102,87.723 211.041,87.723C218.649,87.723 224.603,80.443 224.603,70.514C224.603,62.903 220.964,53.305 211.372,53.305C201.779,53.305 197.479,62.241 197.479,70.514L197.479,70.514ZM240.481,60.255C240.481,55.622 240.481,51.982 240.15,48.341L247.096,48.341L247.427,55.622L248.089,55.622C250.735,51.32 254.704,47.348 261.982,47.348C267.936,47.348 272.567,50.989 274.552,56.284C275.875,53.636 277.529,51.982 279.513,50.658C282.16,48.672 285.137,47.679 289.437,47.679C295.391,47.679 303.991,51.651 303.991,66.874L303.991,92.688L296.053,92.688L296.053,67.536C296.053,58.931 293.076,53.967 286.46,53.967C281.829,53.967 278.19,57.277 276.867,61.248C276.536,62.241 276.205,63.896 276.205,65.219L276.205,92.688L268.267,92.688L268.267,66.212C268.267,59.262 265.29,53.967 259.005,53.967C254.043,53.967 250.404,57.939 249.081,61.91C248.75,63.234 248.42,64.557 248.42,65.881L248.42,92.688L240.481,92.688L240.481,60.255L240.481,60.255ZM319.538,71.507C319.869,82.759 326.816,87.062 335.085,87.062C341.039,87.062 344.347,86.069 347.655,84.745L348.979,90.702C346.001,92.026 341.039,93.68 334.093,93.68C320.2,93.68 311.93,84.414 311.93,70.845C311.93,57.277 319.869,46.356 333.1,46.356C347.985,46.356 351.955,59.262 351.955,67.536C351.955,69.191 351.625,70.514 351.625,71.507L319.538,71.507L319.538,71.507ZM343.685,65.55C343.685,60.255 341.371,52.313 332.439,52.313C324.169,52.313 320.531,59.924 319.869,65.55L343.685,65.55Z" fill="#221E1F"/>
<path d="M370.149,72.831L363.533,92.688L355.263,92.688L376.764,29.808L386.688,29.808L408.189,92.688L399.588,92.688L392.973,72.831L370.149,72.831ZM390.657,66.543L384.372,48.341C383.049,44.37 382.057,40.399 381.064,36.758L380.734,36.758C379.741,40.399 378.749,44.37 377.426,48.01L371.141,66.212C371.802,66.543 390.657,66.543 390.657,66.543ZM415.797,47.348L421.751,70.183C423.074,75.148 424.397,79.781 425.059,84.414L425.39,84.414C426.382,79.781 428.036,75.148 429.359,70.183L436.636,47.348L443.583,47.348L450.529,69.853C452.183,75.148 453.506,80.112 454.499,84.745L454.829,84.745C455.491,80.112 456.814,75.479 458.468,70.183L464.753,47.348L473.023,47.348L458.468,92.688L450.86,92.688L443.914,71.176C442.26,66.212 440.937,61.579 439.944,56.284C438.952,61.579 437.298,66.543 435.975,71.176L428.697,92.688L421.089,92.688L407.527,47.348L415.797,47.348L415.797,47.348ZM510.401,81.767C510.401,85.738 510.732,89.378 511.063,92.688L503.455,92.688L502.793,87.062C500.147,90.702 495.516,93.68 488.9,93.68C479.638,93.68 475.007,87.062 475.007,80.774C475.007,69.853 484.6,63.896 502.132,63.896L502.132,62.903C502.132,59.262 501.139,52.313 491.877,52.313C487.577,52.313 483.277,53.636 479.969,55.622L477.984,50.327C481.623,48.01 487.246,46.356 492.87,46.356C506.763,46.356 510.071,55.622 510.071,64.888L510.401,81.767L510.401,81.767ZM502.463,69.522C493.531,69.191 483.277,70.845 483.277,79.781C483.277,85.076 486.916,87.723 490.885,87.723C496.839,87.723 500.478,84.083 501.801,80.112C502.132,79.119 502.132,78.457 502.132,77.464L502.132,69.522L502.463,69.522ZM523.964,47.348L533.887,74.155C534.879,77.133 535.872,80.774 536.864,83.421L537.195,83.421C537.857,80.774 538.849,77.133 540.172,74.155L549.103,47.679L557.703,47.679L545.465,79.781C540.172,93.35 536.203,101.292 529.918,106.918C525.948,110.559 521.979,111.882 519.663,112.213L517.679,105.263C519.663,104.602 522.31,103.278 524.956,101.292C527.271,99.637 529.918,96.328 531.902,92.026C532.233,91.033 532.564,90.371 532.564,90.04C532.564,89.709 532.233,89.047 531.902,87.723L515.032,47.348L523.964,47.348L523.964,47.348ZM576.559,52.313C576.559,55.622 573.911,58.27 570.605,58.27C567.297,58.27 564.649,55.622 564.649,52.313C564.649,49.003 567.297,46.356 570.935,46.356C573.911,46.356 576.559,49.003 576.559,52.313L576.559,52.313ZM565.973,52.313C565.973,54.96 567.957,56.946 570.605,56.946C573.251,56.946 575.235,54.96 575.235,52.313C575.235,49.665 573.251,47.679 570.605,47.679C567.957,47.679 565.973,49.665 565.973,52.313L565.973,52.313ZM569.611,55.291L568.289,55.291L568.289,49.334C568.951,49.334 569.611,49.003 570.605,49.003C571.597,49.003 572.257,49.334 572.589,49.334C572.919,49.665 573.251,49.996 573.251,50.658C573.251,51.32 572.589,51.982 571.927,51.982C572.589,51.982 572.919,52.643 572.919,53.305C573.251,54.298 573.251,54.629 573.251,54.629L571.927,54.629C571.597,54.298 571.597,53.967 571.597,53.305C571.597,52.643 571.265,52.313 570.273,52.313L569.611,52.313L569.611,55.291L569.611,55.291ZM569.611,51.982L570.273,51.982C570.935,51.982 571.597,51.651 571.597,50.989C571.597,50.327 571.265,49.996 570.273,49.996L569.611,49.996L569.611,51.982L569.611,51.982Z" fill="#2A6EBB"/>
<path d="M38.371,7.635L15.547,34.773L15.547,74.817L37.379,71.507C37.379,71.507 41.348,70.845 41.679,74.817C42.01,79.119 38.04,79.119 38.04,79.119L15.216,82.759L15.216,91.033L63.511,99.637L63.511,35.765L38.371,7.635L38.371,7.635ZM49.618,62.241C47.302,65.55 43.664,67.536 39.694,67.867L39.033,67.867C35.063,67.867 31.425,65.881 28.778,62.903C26.132,59.924 24.478,55.622 24.147,50.989L24.147,49.665C24.147,45.032 25.47,40.73 28.117,37.751C30.763,34.773 34.071,32.456 38.04,32.125L38.702,32.125C42.671,32.125 46.31,34.111 48.956,37.089C51.603,40.068 53.256,44.37 53.587,49.003L53.587,50.327C53.587,54.96 51.933,58.931 49.618,62.241ZM73.104,63.896L73.104,79.45L84.681,77.464L84.681,62.572L73.104,63.896L73.104,63.896ZM46.641,39.075C44.325,36.427 41.679,35.103 38.702,35.103L38.371,35.103C35.394,35.103 32.748,36.758 30.763,39.406C28.778,42.053 27.455,45.694 27.455,49.665L27.455,50.658C27.786,54.629 29.109,58.27 31.425,60.917C33.74,63.565 36.386,64.888 39.364,64.888L39.694,64.888C42.671,64.888 45.318,63.234 47.302,60.586C49.287,57.939 50.61,54.298 50.61,50.327L50.61,49.334C50.279,45.032 48.956,41.391 46.641,39.075ZM30.432,50.327C30.101,44.37 33.409,39.075 37.71,38.744C35.063,40.399 33.409,45.032 33.74,49.996C34.071,55.291 36.056,59.593 39.033,60.917C34.732,61.248 30.763,56.615 30.432,50.327L30.432,50.327ZM89.312,42.053L89.312,56.946L98.905,55.622L98.905,41.06L89.312,42.053L89.312,42.053ZM89.312,76.471L98.905,74.817L98.905,60.255L89.312,61.579L89.312,76.471Z" fill="#FFFFFF"/>
<path d="M84.019,0.023L31.425,0.023L0.662,36.427L11.577,35.765L11.577,75.148L3.308,76.471C3.308,76.471 -0.662,77.133 0.331,81.435C1.323,84.414 4.3,84.414 4.3,84.414L11.577,83.09L11.577,93.68L63.511,102.947L104.528,93.68L104.528,36.427L115.775,35.434L84.019,0.023ZM73.434,43.377L84.681,42.384L84.681,57.277L73.104,58.931L73.434,43.377L73.434,43.377ZM15.216,91.033L15.216,82.759L37.71,79.119C37.71,79.119 41.679,79.119 41.348,74.817C41.017,70.845 37.048,71.507 37.048,71.507L15.216,74.817L15.216,34.772L38.04,7.635L63.18,36.096L63.18,99.968C63.511,99.637 15.216,91.033 15.216,91.033L15.216,91.033ZM73.104,79.45L73.104,63.895L84.681,62.241L84.681,77.133L73.104,79.45ZM98.574,74.817L89.312,76.471L89.312,61.579L98.905,60.255L98.905,74.817L98.574,74.817ZM89.312,56.946L89.312,42.053L98.905,41.06L98.905,55.622L89.312,56.946L89.312,56.946Z" fill="#2A6EBB"/>
<path d="M48.956,37.089C46.31,34.111 42.671,32.125 38.702,32.125L38.04,32.125C34.071,32.456 30.763,34.442 28.117,37.751C25.801,41.06 24.147,45.032 24.147,49.665L24.147,50.989C24.478,55.622 26.132,59.924 28.778,62.903C31.425,65.881 35.063,67.867 39.033,67.867L39.694,67.867C43.664,67.536 46.972,65.55 49.618,62.241C51.933,58.931 53.587,54.96 53.587,50.327L53.587,49.003C53.256,44.37 51.603,40.068 48.956,37.089L48.956,37.089ZM47.302,60.586C45.318,63.234 42.671,64.888 39.694,64.888L39.363,64.888C36.386,64.888 33.409,63.234 31.425,60.917C29.109,58.27 27.786,54.629 27.455,50.658L27.455,49.665C27.455,45.694 28.778,42.053 30.763,39.406C32.748,36.758 35.394,35.103 38.371,35.103L38.702,35.103C41.679,35.103 44.656,36.758 46.641,39.075C48.956,41.722 50.279,45.363 50.61,49.334L50.61,50.327C50.61,54.298 49.287,57.939 47.302,60.586L47.302,60.586ZM33.74,50.327C33.409,45.363 35.063,40.73 37.71,39.075C33.409,39.406 30.101,44.37 30.432,50.658C30.763,56.615 34.402,61.579 39.033,61.248C36.056,59.593 34.071,55.291 33.74,50.327L33.74,50.327Z" fill="#2A6BBE"/>
<path d="M73.434,43.377L84.681,42.384L84.681,57.277L73.104,58.931L73.434,43.377L73.434,43.377Z" fill="#FFFFFF"/>
</svg>
