<svg width="40" height="34" viewBox="0 0 40 34" fill="none" xmlns="http://www.w3.org/2000/svg" xmlns:xlink="http://www.w3.org/1999/xlink">
<path d="M35.838,7.855C37.464,6.7 38.833,5.258 39.948,3.598L39.948,3.597C38.459,4.248 36.876,4.682 35.223,4.892C36.923,3.877 38.221,2.282 38.831,0.36C37.246,1.305 35.496,1.972 33.631,2.345C32.126,0.742 29.981,-0.25 27.641,-0.25C23.101,-0.25 19.446,3.435 19.446,7.952C19.446,8.602 19.501,9.227 19.636,9.822C12.819,9.488 6.786,6.222 2.733,1.243C2.026,2.472 1.609,3.877 1.609,5.388C1.609,8.228 3.071,10.745 5.253,12.203C3.934,12.178 2.643,11.795 1.548,11.193L1.548,11.283C1.548,15.268 4.389,18.578 8.118,19.342C7.449,19.525 6.723,19.612 5.968,19.612C5.443,19.612 4.913,19.582 4.416,19.472C5.478,22.718 8.494,25.107 12.078,25.185C9.288,27.367 5.744,28.682 1.909,28.682C1.238,28.682 0.593,28.652 -0.052,28.57C3.581,30.912 7.884,32.25 12.528,32.25C26.999,32.25 36.431,20.177 35.838,7.855L35.838,7.855Z" fill="#407BFF"/>
</svg>
