<svg width="68" height="126" viewBox="0 0 68 126" fill="none" xmlns="http://www.w3.org/2000/svg" xmlns:xlink="http://www.w3.org/1999/xlink">
<path d="M40.21,119.556C45.676,125.781 55.153,126.397 61.378,120.931C67.604,115.465 68.219,105.988 62.753,99.763L40.21,119.556ZM17.576,71.043L6.304,80.94L6.304,80.94L17.576,71.043ZM17.576,54.46L6.304,44.563L6.304,44.563L17.576,54.46ZM62.753,25.74C68.219,19.515 67.604,10.037 61.378,4.572C55.153,-0.894 45.676,-0.279 40.21,5.946L62.753,25.74ZM62.753,99.763L28.848,61.146L6.304,80.94L40.21,119.556L62.753,99.763ZM28.848,61.146C29.518,61.91 29.573,62.546 29.573,62.751C29.573,62.957 29.518,63.592 28.848,64.356L6.304,44.563C-2.671,54.785 -2.671,70.718 6.304,80.94L28.848,61.146ZM28.848,64.356L62.753,25.74L40.21,5.946L6.304,44.563L28.848,64.356Z" transform="rotate(-179.255 33.027 62.751)" fill="#222177"/>
</svg>
