<svg width="40" height="22" viewBox="0 0 40 22" fill="none" xmlns="http://www.w3.org/2000/svg" xmlns:xlink="http://www.w3.org/1999/xlink">
<path d="M16.783,18.198C16.89,18.108 16.998,18.015 17.098,17.917C11.53,23.38 2.45,20.83 0.321,13.125L0.321,13.113C-2.534,2.63 9.505,-5.333 17.095,2C17.253,2.168 27.738,13.35 27.071,12.638L27.101,12.638C28.666,14.252 30.93,14.075 32.276,12.665C33.725,11.152 33.776,8.682 32.355,7.143C30.11,4.558 25.701,6.49 26.123,10.322L23.6,7.752L20.673,4.953C21.276,3.755 22.068,2.707 23.06,1.8C22.953,1.892 22.845,1.987 22.745,2.082C28.335,-3.402 37.408,-0.792 39.521,6.88L39.521,6.89C42.383,17.372 30.331,25.335 22.748,18.002C22.593,17.835 12.115,6.583 12.778,7.297L12.771,7.272C12.745,7.272 12.745,7.247 12.745,7.247C11.101,5.552 8.873,5.807 7.57,7.195C6.12,8.708 6.07,11.178 7.495,12.693C9.641,15.218 14.145,13.347 13.721,9.438C13.885,9.607 19.536,15.408 19.176,15.04C18.261,16.865 17.238,17.703 16.783,18.198L16.783,18.198Z" fill="#407BFF"/>
</svg>
