<svg width="358" height="112" viewBox="0 0 358 112" fill="none" xmlns="http://www.w3.org/2000/svg" xmlns:xlink="http://www.w3.org/1999/xlink">
<path d="M187.99,28.117C187.99,32.15 184.758,35.398 180.747,35.398C176.736,35.398 173.507,32.15 173.507,28.117C173.507,24.084 176.626,20.837 180.747,20.837C184.871,20.948 187.99,24.197 187.99,28.117L187.99,28.117ZM158.133,42.792L158.133,44.585C158.133,44.585 154.681,40.102 147.328,40.102C135.187,40.102 125.716,49.4 125.716,62.281C125.716,75.052 135.076,84.461 147.328,84.461C154.792,84.461 158.133,79.868 158.133,79.868L158.133,81.772C158.133,82.668 158.803,83.338 159.694,83.338L168.716,83.338L168.716,41.219L159.694,41.219C158.803,41.222 158.133,42.008 158.133,42.792L158.133,42.792ZM158.133,69.787C156.464,72.252 153.121,74.38 149.111,74.38C141.982,74.38 136.522,69.9 136.522,62.281C136.522,54.664 141.982,50.183 149.111,50.183C153.011,50.183 156.575,52.424 158.133,54.776L158.133,69.787ZM175.401,41.222L186.094,41.222L186.094,83.341L175.401,83.341L175.401,41.222L175.401,41.222ZM335.149,40.101C327.797,40.101 324.343,44.584 324.343,44.584L324.343,20.948L313.649,20.948L313.649,83.341L322.673,83.341C323.565,83.341 324.231,82.557 324.231,81.773L324.231,79.869C324.231,79.869 327.685,84.462 335.037,84.462C347.179,84.462 356.649,75.055 356.649,62.285C356.649,49.514 347.179,40.101 335.149,40.101L335.149,40.101ZM333.367,74.267C329.243,74.267 326.013,72.141 324.343,69.675L324.343,54.664C326.013,52.424 329.579,50.071 333.367,50.071C340.495,50.071 345.955,54.552 345.955,62.169C345.955,69.787 340.497,74.267 333.367,74.267ZM308.079,58.362L308.079,83.453L297.385,83.453L297.385,59.593C297.385,52.65 295.157,49.848 289.145,49.848C285.915,49.848 282.571,51.528 280.451,53.994L280.451,83.343L269.761,83.343L269.761,41.223L278.223,41.223C279.115,41.223 279.783,42.008 279.783,42.792L279.783,44.585C282.903,41.335 287.025,40.102 291.145,40.102C295.825,40.102 299.725,41.448 302.843,44.136C306.629,47.273 308.079,51.305 308.079,58.362L308.079,58.362ZM243.799,40.101C236.449,40.101 232.995,44.584 232.995,44.584L232.995,20.948L222.301,20.948L222.301,83.341L231.323,83.341C232.215,83.341 232.883,82.557 232.883,81.773L232.883,79.869C232.883,79.869 236.339,84.462 243.689,84.462C255.833,84.462 265.301,75.055 265.301,62.285C265.413,49.513 255.943,40.101 243.799,40.101L243.799,40.101ZM242.017,74.267C237.897,74.267 234.667,72.141 232.995,69.675L232.995,54.664C234.667,52.424 238.231,50.071 242.017,50.071C249.149,50.071 254.605,54.552 254.605,62.169C254.605,69.787 249.149,74.267 242.017,74.267ZM213.055,40.101C216.283,40.101 217.955,40.663 217.955,40.663L217.955,50.631C217.955,50.631 209.043,47.606 203.475,53.993L203.475,83.452L192.778,83.452L192.778,41.222L201.803,41.222C202.695,41.222 203.361,42.007 203.361,42.791L203.361,44.584C205.369,42.23 209.713,40.101 213.055,40.101L213.055,40.101ZM101.99,79.532C101.433,78.188 100.876,76.732 100.319,75.499C99.427,73.484 98.535,71.578 97.757,69.787L97.646,69.675C89.958,52.871 81.716,35.846 73.026,19.045L72.692,18.371C71.778,16.628 70.887,14.873 70.02,13.106C68.905,11.089 67.792,8.962 66.009,6.945C62.444,2.464 57.32,-0.001 51.862,-0.001C46.291,-0.001 41.279,2.464 37.604,6.72C35.932,8.735 34.706,10.864 33.593,12.881C32.724,14.647 31.833,16.402 30.921,18.146L30.586,18.82C22.008,35.621 13.654,52.647 5.967,69.45L5.854,69.672C5.075,71.467 4.183,73.371 3.291,75.385C2.735,76.618 2.179,77.962 1.622,79.418C0.173,83.562 -0.273,87.483 0.286,91.517C1.511,99.919 7.08,106.973 14.768,110.112C17.664,111.345 20.672,111.905 23.791,111.905C24.682,111.905 25.795,111.793 26.688,111.68C30.365,111.232 34.152,110.001 37.829,107.873C42.396,105.296 46.741,101.601 51.642,96.224C56.543,101.601 60.999,105.296 65.455,107.873C69.133,110.001 72.919,111.232 76.595,111.68C77.486,111.794 78.601,111.905 79.493,111.905C82.612,111.905 85.73,111.345 88.515,110.112C96.314,106.973 101.771,99.807 102.998,91.517C103.883,87.597 103.437,83.678 101.99,79.532L101.99,79.532ZM51.75,85.357C45.733,77.74 41.834,70.571 40.498,64.524C39.942,61.947 39.83,59.706 40.165,57.69C40.386,55.897 41.056,54.328 41.947,52.984C44.064,49.962 47.629,48.056 51.751,48.056C55.874,48.056 59.55,49.849 61.555,52.984C62.447,54.328 63.114,55.898 63.339,57.69C63.672,59.707 63.561,62.059 63.004,64.524C61.663,70.459 57.764,77.629 51.75,85.357ZM96.196,90.622C95.417,96.447 91.517,101.489 86.06,103.729C83.387,104.848 80.489,105.185 77.594,104.848C74.81,104.511 72.023,103.615 69.128,101.937C65.118,99.694 61.108,96.224 56.428,91.07C63.78,81.998 68.236,73.707 69.907,66.315C70.688,62.842 70.8,59.706 70.464,56.792C70.02,53.993 69.016,51.415 67.457,49.175C64.001,44.133 58.208,41.222 51.749,41.222C45.289,41.222 39.496,44.247 36.042,49.175C34.483,51.415 33.479,53.993 33.034,56.792C32.589,59.706 32.699,62.954 33.591,66.315C35.261,73.707 39.828,82.108 47.069,91.181C42.502,96.335 38.38,99.808 34.369,102.048C31.472,103.729 28.689,104.626 25.904,104.96C22.897,105.297 19.999,104.848 17.437,103.841C11.98,101.601 8.08,96.558 7.301,90.734C6.967,87.934 7.189,85.134 8.304,81.998C8.637,80.876 9.195,79.757 9.752,78.413C10.532,76.621 11.421,74.715 12.314,72.811L12.426,72.589C20.112,55.897 28.355,38.871 36.933,22.294L37.267,21.62C38.159,19.941 39.051,18.149 39.941,16.468C40.832,14.675 41.834,12.994 43.06,11.537C45.4,8.852 48.518,7.394 51.972,7.394C55.427,7.394 58.545,8.852 60.884,11.537C62.111,12.998 63.112,14.678 64.004,16.468C64.896,18.149 65.788,19.941 66.677,21.62L67.012,22.294C75.459,38.94 83.593,55.745 91.408,72.701L91.408,72.812C92.301,74.607 93.08,76.622 93.971,78.417C94.528,79.758 95.085,80.877 95.419,81.999C96.308,84.908 96.642,87.71 96.196,90.622L96.196,90.622Z" fill="#FF5A5F"/>
</svg>
