<svg width="646" height="360" viewBox="0 0 646 360" fill="none" xmlns="http://www.w3.org/2000/svg" xmlns:xlink="http://www.w3.org/1999/xlink">
<g filter="url(#filter1_1149)">
<path d="M517.361,76.911C517.439,77.124 517.466,77.352 517.439,77.577C517.412,77.802 517.332,78.017 517.206,78.206C517.052,78.52 516.873,78.822 516.671,79.108C516.457,79.454 516.205,79.828 515.913,80.231C514.747,81.842 513.084,84.068 511.247,86.946C506.513,94.53 502.702,102.638 499.893,111.103C497.011,119.616 494.985,128.388 493.847,137.293C492.875,144.153 492.787,148.642 491.358,148.949C490.688,149.084 489.793,148.105 488.889,146.071C487.728,143.252 486.985,140.283 486.683,137.255C485.71,129.657 486.517,118.921 490.299,107.889C494.08,96.856 500.02,87.742 505.755,82.37C508.003,80.169 510.638,78.391 513.531,77.122C514.066,76.921 514.504,76.767 514.97,76.652C515.35,76.566 515.737,76.515 516.127,76.499C516.817,76.499 517.187,76.633 517.361,76.911Z" fill="#E6E6E6"/>
<path d="M482.104,81.631C481.462,81.42 480.976,80.672 480.957,79.31C480.999,77.474 481.569,75.687 482.6,74.158C484.095,71.82 486.187,69.912 488.665,68.623C491.758,67.009 495.247,66.285 498.736,66.531C502.117,66.756 505.387,67.808 508.253,69.592C510.524,70.994 512.453,72.874 513.901,75.098C514.888,76.561 515.508,78.235 515.709,79.981C515.787,81.257 515.446,82.082 514.824,82.399C513.541,83.023 511.539,81.564 508.739,80.001C505.497,78.035 501.836,76.84 498.046,76.509C496.146,76.367 494.236,76.549 492.398,77.046C490.798,77.496 489.26,78.141 487.82,78.964C485.215,80.404 483.474,82.063 482.104,81.631Z" fill="#E6E6E6"/>
<path d="M539.33,101.203C538.679,101.462 537.853,101.203 536.939,100.445C535.812,99.414 534.872,98.2 534.159,96.857C532.322,93.72 530.776,89.412 528.589,86.534C527.686,85.311 526.558,84.267 525.264,83.454C524.777,83.164 524.263,82.92 523.729,82.725C523.209,82.559 522.67,82.459 522.125,82.428C521.121,82.369 520.114,82.443 519.131,82.649C518.375,82.884 517.569,82.914 516.798,82.735C516.175,82.476 515.719,81.651 516.01,80.269C516.275,79.327 516.729,78.446 517.345,77.68C517.961,76.913 518.727,76.277 519.597,75.808C520.79,75.106 522.111,74.643 523.485,74.446C525.112,74.232 526.766,74.346 528.346,74.782C531.692,75.738 534.622,77.762 536.677,80.538C538.448,82.961 539.686,85.722 540.312,88.645C540.777,90.714 541.015,92.828 541.022,94.948C541.054,96.352 540.92,97.756 540.623,99.13C540.39,100.215 539.982,100.944 539.33,101.203Z" fill="#E6E6E6"/>
<path d="M516.963,107.006C515.777,106.239 515.534,104.426 515.388,102.267C515.243,100.109 515.213,97.547 514.902,94.88C514.591,92.213 514.047,89.709 513.678,87.57C513.308,85.43 513.143,83.617 514.125,82.61C515.106,81.603 517.196,81.756 519.607,83.569C522.601,86.176 524.509,89.785 524.963,93.699C525.417,97.613 524.385,101.555 522.067,104.761C520.152,107.15 518.091,107.755 516.963,107.006Z" fill="#E6E6E6"/>
<path d="M530.815,63.423C530.539,64.113 530.058,64.705 529.435,65.121C528.803,65.62 528.093,66.166 527.384,66.761C526.596,67.427 525.846,68.135 525.138,68.881C524.327,69.75 523.595,70.687 522.951,71.683C521.493,73.947 520.278,76.748 519.004,78.983C517.731,81.219 516.341,82.696 514.941,82.543C513.541,82.389 512.423,80.749 511.957,77.871C511.679,76.171 511.679,74.438 511.957,72.738C512.32,70.465 513.147,68.288 514.387,66.339C517.303,61.744 522.27,59.624 525.945,59.835C527.419,59.84 528.846,60.345 529.989,61.264C530.325,61.505 530.582,61.838 530.729,62.221C530.876,62.605 530.906,63.023 530.815,63.423Z" fill="#E6E6E6"/>
<path d="M541.216,73.698C540.565,73.957 539.428,72.738 537.241,72.383C535.918,72.187 534.57,72.21 533.255,72.451C531.472,72.737 529.716,73.17 528.006,73.746C524.858,74.864 521.871,76.383 519.121,78.264C516.914,79.713 515.505,80.787 514.902,80.375C514.299,79.962 514.776,78.111 516.642,75.712C519.163,72.6 522.537,70.269 526.363,68.997C528.47,68.28 530.677,67.885 532.905,67.826C534.891,67.738 536.864,68.175 538.621,69.093C539.849,69.74 540.817,70.783 541.362,72.048C541.693,72.988 541.527,73.563 541.216,73.698Z" fill="#E6E6E6"/>
<path d="M499.631,62.924C499.553,62.598 499.786,62.195 500.379,61.83C501.226,61.372 502.185,61.156 503.15,61.207C504.709,61.318 506.223,61.77 507.583,62.53C508.943,63.29 510.115,64.339 511.014,65.601C512.684,67.89 513.671,70.595 513.862,73.41C513.989,75.453 513.648,76.748 512.978,76.931C512.307,77.113 511.403,76.077 510.431,74.417C509.388,72.401 508.226,70.447 506.951,68.565C505.734,66.958 504.183,65.627 502.401,64.66C501.021,63.893 499.806,63.615 499.631,62.924Z" fill="#E6E6E6"/>
<path d="M494.362,89.632C494.022,89.632 493.643,89.383 493.39,88.74C493.046,87.82 492.965,86.825 493.157,85.862C493.506,84.285 494.222,82.81 495.25,81.555C496.278,80.299 497.588,79.297 499.077,78.629C500.606,77.915 502.252,77.476 503.937,77.334C505.235,77.219 506.543,77.277 507.825,77.506C509.983,77.9 511.208,78.619 511.179,79.291C511.15,79.962 509.857,80.538 507.932,81.037C505.638,81.523 503.395,82.223 501.235,83.128C499.348,84.041 497.717,85.394 496.481,87.071C495.499,88.337 495.091,89.546 494.362,89.632Z" fill="#E6E6E6"/>
<path d="M464.684,94.736C464.644,94.865 464.632,95.001 464.649,95.135C464.665,95.269 464.71,95.398 464.781,95.514C464.873,95.701 464.98,95.881 465.102,96.051C465.228,96.262 465.384,96.492 465.559,96.732C466.259,97.691 467.27,99.025 468.378,100.752C471.219,105.325 473.503,110.213 475.182,115.315C476.947,120.438 478.194,125.721 478.906,131.086C479.46,135.221 479.537,137.927 480.403,138.109C480.811,138.195 481.375,137.61 481.89,136.401C482.589,134.705 483.038,132.918 483.222,131.096C483.789,125.097 483.029,119.048 480.996,113.367C478.76,106.719 475.163,101.222 471.683,98.017C470.326,96.697 468.739,95.627 466.998,94.861C466.715,94.75 466.426,94.653 466.132,94.573C465.903,94.521 465.668,94.492 465.432,94.487C465.044,94.468 464.791,94.554 464.684,94.736Z" fill="#E6E6E6"/>
<path d="M485.934,97.566C486.313,97.441 486.614,96.962 486.624,96.166C486.603,95.06 486.266,93.982 485.652,93.057C484.751,91.648 483.491,90.496 481.997,89.719C480.132,88.754 478.031,88.322 475.931,88.471C473.878,88.61 471.893,89.253 470.157,90.342C468.787,91.189 467.625,92.326 466.755,93.671C466.155,94.548 465.781,95.555 465.666,96.607C465.666,97.374 465.822,97.873 466.201,98.065C466.969,98.439 468.145,97.566 469.865,96.616C471.813,95.433 474.013,94.714 476.291,94.515C477.436,94.431 478.586,94.541 479.693,94.842C480.658,95.112 481.585,95.498 482.454,95.993C484.058,96.827 485.108,97.825 485.934,97.566Z" fill="#E6E6E6"/>
<path d="M451.454,109.357C451.843,109.51 452.339,109.357 452.893,108.896C453.57,108.273 454.138,107.544 454.574,106.738C455.673,104.819 456.606,102.258 457.928,100.521C458.47,99.781 459.149,99.149 459.931,98.66C460.224,98.486 460.533,98.338 460.854,98.219C461.17,98.122 461.496,98.064 461.826,98.046C462.429,98.012 463.033,98.054 463.625,98.171C464.08,98.317 464.568,98.337 465.034,98.228C465.403,98.075 465.676,97.576 465.501,96.741C465.342,96.173 465.069,95.643 464.699,95.181C464.328,94.72 463.867,94.337 463.343,94.055C462.614,93.629 461.809,93.349 460.971,93.23C459.994,93.106 459.002,93.178 458.054,93.441C456.034,94.02 454.269,95.249 453.039,96.933C451.971,98.393 451.223,100.056 450.842,101.816C450.559,103.076 450.419,104.363 450.424,105.654C450.399,106.498 450.478,107.342 450.657,108.167C450.693,108.411 450.782,108.645 450.92,108.85C451.058,109.056 451.24,109.229 451.454,109.357Z" fill="#E6E6E6"/>
<path d="M464.927,112.859C465.647,112.388 465.792,111.295 465.899,109.98C466.006,108.666 466.006,107.102 466.191,105.529C466.376,103.956 466.706,102.411 466.93,101.126C467.153,99.84 467.251,98.746 466.658,98.132C466.065,97.518 464.801,97.624 463.353,98.737C461.549,100.308 460.4,102.483 460.127,104.841C459.854,107.2 460.477,109.574 461.875,111.506C463.003,112.935 464.247,113.309 464.927,112.859Z" fill="#E6E6E6"/>
<path d="M456.548,86.591C456.72,87.006 457.01,87.363 457.384,87.618C457.763,87.915 458.191,88.251 458.618,88.577C459.095,88.974 459.547,89.4 459.969,89.853C460.462,90.375 460.904,90.94 461.291,91.542C462.176,92.904 462.905,94.592 463.673,95.935C464.441,97.278 465.277,98.18 466.123,98.084C466.968,97.988 467.639,96.991 467.931,95.273C468.101,94.251 468.101,93.207 467.931,92.184C467.711,90.822 467.215,89.516 466.473,88.347C465.752,87.155 464.732,86.168 463.511,85.481C462.289,84.793 460.909,84.429 459.503,84.423C458.615,84.437 457.757,84.74 457.063,85.287C456.858,85.432 456.701,85.632 456.61,85.864C456.518,86.095 456.497,86.348 456.548,86.591Z" fill="#E6E6E6"/>
<path d="M450.317,92.789C450.706,92.942 451.396,92.213 452.708,91.992C453.506,91.859 454.321,91.859 455.119,91.992C456.192,92.17 457.249,92.433 458.278,92.779C460.172,93.452 461.969,94.364 463.625,95.494C464.957,96.367 465.812,97.02 466.172,96.77C466.531,96.521 466.249,95.408 465.122,93.959C463.606,92.095 461.583,90.697 459.289,89.93C458.017,89.501 456.686,89.265 455.343,89.23C454.147,89.171 452.958,89.433 451.901,89.987C451.165,90.38 450.583,91.005 450.249,91.762C450.035,92.357 450.132,92.702 450.317,92.789Z" fill="#E6E6E6"/>
<path d="M475.367,86.294C475.367,86.092 475.28,85.853 474.92,85.632C474.409,85.356 473.83,85.226 473.248,85.258C472.31,85.324 471.398,85.597 470.579,86.055C469.76,86.513 469.055,87.145 468.514,87.906C467.505,89.282 466.909,90.911 466.794,92.606C466.716,93.844 466.93,94.621 467.328,94.736C467.727,94.851 468.3,94.218 468.864,93.211C469.497,91.999 470.198,90.824 470.964,89.69C471.697,88.722 472.632,87.921 473.705,87.34C474.531,86.879 475.261,86.706 475.367,86.294Z" fill="#E6E6E6"/>
<path d="M478.546,102.392C478.75,102.392 478.974,102.239 479.159,101.845C479.37,101.284 479.417,100.676 479.295,100.09C479.085,99.139 478.654,98.251 478.034,97.494C477.415,96.738 476.625,96.135 475.727,95.734C474.811,95.302 473.823,95.035 472.811,94.947C472.022,94.88 471.228,94.916 470.449,95.053C469.156,95.293 468.417,95.724 468.427,96.137C468.436,96.55 469.224,96.876 470.371,97.183C471.752,97.477 473.103,97.897 474.405,98.439C475.561,98.984 476.563,99.801 477.321,100.819C477.866,101.605 478.109,102.334 478.546,102.392Z" fill="#E6E6E6"/>
<path d="M49.944,252.876C42.332,253.164 35.178,262.863 30.706,263.228C26.235,263.592 18.127,258.364 13.209,257.529C8.29,256.694 0.027,257.347 0.027,257.347C10.205,229.286 24.329,197.425 53.579,189.837C80.244,182.901 106.509,199.661 132.775,207.94C173.904,220.901 219.047,212.852 259.437,197.79C299.827,182.728 337.321,160.922 377.449,145.208C417.577,129.493 462.205,119.996 503.927,130.952C535.461,139.221 563.049,158.687 585.583,181.932C608.115,205.177 626.255,232.26 644.161,259.189C644.161,259.189 635.139,264.686 630.075,263.276C625.009,261.865 621.821,256.272 614.093,256.272C606.365,256.272 588.955,266.825 582.763,265.52C576.571,264.216 574.015,263.362 569.845,260.724C565.673,258.085 562.009,253.49 555.409,253.816Z" fill="#E6E6E6"/>
<path d="M378.781,318.371C377.896,318.976 378.198,320.443 379.063,321.067C380.003,321.581 381.071,321.824 382.144,321.767C383.223,321.708 384.284,322.05 385.119,322.727C386.023,323.686 386.033,325.288 387.121,326.008C388.21,326.727 389.416,326.267 390.407,326.833C390.775,327.102 391.085,327.44 391.319,327.829C391.553,328.218 391.705,328.649 391.768,329.097C391.887,329.994 392.195,330.857 392.672,331.629C392.927,332.006 393.323,332.267 393.773,332.357C394.222,332.447 394.69,332.358 395.073,332.109C395.87,331.399 395.413,330.123 395.423,329.068C395.423,326.957 397.455,325.49 398.66,323.753C399.547,322.469 400.022,320.952 400.022,319.398C400.023,317.844 399.549,316.326 398.662,315.042C397.775,313.758 396.517,312.767 395.052,312.199C393.586,311.631 391.981,311.512 390.446,311.857C386.081,312.816 383.214,317.316 378.859,318.371Z" fill="#E6E6E6"/>
<path d="M383.517,321.947C383.249,322.078 383.006,322.253 382.798,322.465C382.568,322.724 382.384,323.019 382.253,323.338C382.098,323.722 381.971,324.173 381.758,324.681C381.537,325.257 381.135,325.748 380.611,326.082C380.024,326.437 379.384,326.699 378.715,326.859C378.019,327.026 377.349,327.284 376.722,327.626C376.416,327.824 376.155,328.083 375.957,328.388C375.76,328.692 375.629,329.034 375.575,329.391C375.462,330.185 375.249,330.961 374.943,331.704C374.752,332.079 374.455,332.392 374.088,332.605C373.743,332.791 373.368,332.914 372.98,332.97C372.326,333.026 371.677,333.122 371.035,333.258C370.51,333.422 370.04,333.724 369.675,334.131C369.13,334.733 368.814,335.502 368.78,336.308C368.78,336.874 368.877,337.191 368.839,337.201C368.669,336.934 368.581,336.624 368.586,336.308C368.542,335.433 368.834,334.574 369.402,333.9C369.797,333.423 370.319,333.064 370.909,332.864C371.564,332.7 372.23,332.584 372.902,332.519C373.234,332.487 373.553,332.376 373.833,332.195C374.112,332.015 374.343,331.77 374.506,331.483C374.778,330.77 374.97,330.03 375.079,329.276C375.168,328.86 375.325,328.461 375.546,328.096C375.778,327.74 376.087,327.439 376.45,327.214C377.118,326.851 377.835,326.583 378.579,326.417C379.211,326.277 379.82,326.047 380.387,325.736C380.856,325.455 381.223,325.036 381.437,324.537C381.651,324.077 381.806,323.578 382.001,323.223C382.161,322.886 382.382,322.581 382.652,322.321C383.128,321.899 383.527,321.918 383.517,321.947Z" fill="#E6E6E6"/>
<path d="M391.527,326.84C391.261,326.974 391.018,327.149 390.808,327.358C390.58,327.622 390.396,327.92 390.263,328.241C390.108,328.615 389.981,329.066 389.777,329.574C389.551,330.147 389.151,330.637 388.63,330.975C388.027,331.333 387.371,331.598 386.686,331.761C385.991,331.927 385.321,332.181 384.693,332.519C384.389,332.72 384.13,332.98 383.933,333.284C383.736,333.587 383.604,333.928 383.546,334.285C383.433,335.078 383.221,335.855 382.914,336.597C382.723,336.972 382.426,337.285 382.059,337.498C381.718,337.684 381.346,337.807 380.961,337.863C380.308,337.924 379.659,338.02 379.016,338.151C378.492,338.31 378.023,338.613 377.665,339.024C377.115,339.623 376.796,340.394 376.761,341.202C376.761,341.768 376.858,342.084 376.819,342.103C376.649,341.833 376.561,341.52 376.567,341.202C376.529,340.325 376.823,339.467 377.393,338.794C377.784,338.316 378.302,337.957 378.89,337.757C379.546,337.598 380.211,337.483 380.883,337.412C381.216,337.382 381.536,337.272 381.816,337.091C382.095,336.911 382.326,336.665 382.487,336.376C382.764,335.664 382.959,334.924 383.07,334.169C383.158,333.753 383.316,333.355 383.537,332.989C383.766,332.632 384.075,332.33 384.441,332.107C385.109,331.745 385.826,331.477 386.569,331.311C387.198,331.168 387.804,330.939 388.368,330.629C388.838,330.35 389.206,329.93 389.418,329.43C389.632,328.97 389.787,328.471 389.981,328.125C390.141,327.788 390.361,327.482 390.633,327.224C391.138,326.792 391.537,326.821 391.527,326.84Z" fill="#E6E6E6"/>
<path d="M387.114,326.024C387.114,326.024 387.162,326.12 387.114,326.312C387.084,326.604 386.95,326.877 386.735,327.08C385.837,327.605 384.848,327.963 383.818,328.135C383.527,328.221 383.138,328.279 382.846,328.384C382.548,328.525 382.298,328.748 382.127,329.027C381.76,329.727 381.435,330.448 381.155,331.186C380.926,331.61 380.592,331.97 380.183,332.231C379.787,332.494 379.355,332.697 378.9,332.836C377.987,333.075 377.099,333.397 376.246,333.795C375.874,334.037 375.563,334.36 375.337,334.739C375.111,335.119 374.977,335.544 374.943,335.982C374.876,336.915 374.516,337.804 373.913,338.525C373.216,339.026 372.374,339.292 371.512,339.283C370.839,339.301 370.185,339.507 369.626,339.877C369.233,340.168 368.908,340.537 368.67,340.96C368.432,341.383 368.287,341.851 368.246,342.333C368.23,342.695 368.247,343.058 368.294,343.417C368.294,343.417 368.236,343.331 368.168,343.149C368.083,342.882 368.04,342.604 368.041,342.324C368.052,341.798 368.18,341.281 368.417,340.81C368.654,340.339 368.994,339.925 369.412,339.599C370.009,339.165 370.722,338.911 371.463,338.87C372.228,338.87 372.973,338.631 373.592,338.189C374.111,337.526 374.412,336.723 374.457,335.887C374.537,335.405 374.684,334.937 374.895,334.495C375.138,334.024 375.517,333.634 375.983,333.373C376.864,332.958 377.786,332.637 378.734,332.414C379.136,332.318 379.514,332.145 379.848,331.904C380.181,331.664 380.464,331.361 380.679,331.013C380.951,330.263 381.276,329.532 381.651,328.826C381.875,328.492 382.193,328.229 382.564,328.068C382.9,327.969 383.241,327.889 383.585,327.828C384.573,327.689 385.534,327.401 386.433,326.974C386.776,326.756 387.02,326.416 387.114,326.024Z" fill="#E6E6E6"/>
<path d="M256.3,330.649C255.328,331.33 255.659,332.99 256.621,333.68C257.669,334.269 258.868,334.546 260.072,334.477C261.281,334.41 262.47,334.801 263.396,335.57C264.369,336.625 264.369,338.448 265.632,339.264C266.692,339.964 268.199,339.551 269.307,340.223C269.72,340.527 270.067,340.91 270.329,341.348C270.591,341.786 270.763,342.271 270.833,342.775C270.949,343.791 271.281,344.771 271.805,345.653C272.09,346.074 272.532,346.366 273.034,346.467C273.537,346.567 274.059,346.468 274.488,346.19C275.382,345.384 274.867,343.955 274.877,342.756C274.877,340.386 277.151,338.736 278.503,336.779C279.471,335.316 279.987,333.605 279.987,331.857C279.987,330.109 279.471,328.399 278.503,326.936C277.496,325.511 276.085,324.411 274.448,323.774C272.81,323.138 271.018,322.993 269.297,323.358C264.437,324.48 261.2,329.507 256.329,330.697Z" fill="#E6E6E6"/>
<path d="M261.637,334.668C261.333,334.812 261.057,335.007 260.821,335.244C260.568,335.531 260.362,335.854 260.208,336.203C260.033,336.625 259.887,337.163 259.654,337.709C259.408,338.353 258.962,338.903 258.381,339.283C257.722,339.676 257.008,339.97 256.262,340.156C255.479,340.337 254.726,340.628 254.026,341.019C253.679,341.245 253.384,341.54 253.159,341.885C252.935,342.231 252.786,342.619 252.723,343.024C252.599,343.916 252.364,344.789 252.023,345.624C251.794,346.025 251.458,346.357 251.051,346.583C250.673,346.797 250.258,346.937 249.826,346.996C249.091,347.062 248.36,347.174 247.639,347.332C247.051,347.507 246.522,347.839 246.113,348.291C245.511,348.978 245.168,349.849 245.141,350.757C245.141,351.399 245.267,351.716 245.219,351.773C245.17,351.831 245.16,351.697 245.092,351.524C245.012,351.275 244.963,351.017 244.946,350.757C244.907,349.776 245.236,348.816 245.87,348.061C246.306,347.529 246.886,347.13 247.542,346.91C248.273,346.724 249.017,346.593 249.768,346.516C250.146,346.481 250.509,346.355 250.826,346.149C251.142,345.944 251.403,345.664 251.586,345.336C251.899,344.532 252.117,343.695 252.237,342.842C252.338,342.377 252.512,341.93 252.752,341.518C253.003,341.133 253.335,340.806 253.724,340.559C254.468,340.152 255.267,339.851 256.096,339.666C256.806,339.499 257.49,339.238 258.128,338.889C258.655,338.564 259.067,338.085 259.304,337.517C259.547,336.999 259.712,336.481 259.926,336.04C260.106,335.664 260.353,335.322 260.655,335.033C261.209,334.63 261.647,334.649 261.637,334.668Z" fill="#E6E6E6"/>
<path d="M270.6,340.184C270.296,340.328 270.02,340.523 269.783,340.76C269.531,341.047 269.324,341.371 269.171,341.719C268.996,342.142 268.85,342.679 268.617,343.226C268.37,343.869 267.925,344.42 267.343,344.799C266.682,345.194 265.964,345.488 265.214,345.672C264.435,345.855 263.686,346.146 262.988,346.535C262.641,346.761 262.346,347.056 262.122,347.402C261.897,347.747 261.749,348.135 261.686,348.54C261.554,349.431 261.319,350.303 260.986,351.14C260.758,351.543 260.422,351.875 260.014,352.1C259.638,352.31 259.226,352.45 258.799,352.512C258.063,352.578 257.333,352.69 256.611,352.848C256.023,353.023 255.495,353.355 255.085,353.807C254.483,354.494 254.14,355.365 254.113,356.273C254.113,356.916 254.23,357.232 254.191,357.29C254.152,357.347 254.133,357.203 254.065,357.04C253.985,356.791 253.936,356.534 253.919,356.273C253.88,355.293 254.208,354.333 254.842,353.577C255.278,353.043 255.857,352.64 256.514,352.416C257.247,352.239 257.99,352.11 258.74,352.032C259.119,351.995 259.482,351.868 259.799,351.66C260.116,351.453 260.376,351.172 260.558,350.843C260.851,350.059 261.054,349.245 261.161,348.416C261.26,347.95 261.434,347.503 261.676,347.092C261.924,346.705 262.256,346.377 262.648,346.132C263.392,345.726 264.191,345.425 265.02,345.24C265.727,345.075 266.408,344.814 267.042,344.463C267.572,344.139 267.987,343.659 268.228,343.091C268.471,342.573 268.636,342.055 268.85,341.614C269.026,341.236 269.274,340.894 269.579,340.607C270.172,340.146 270.61,340.165 270.6,340.184Z" fill="#E6E6E6"/>
<path d="M265.662,339.263C265.662,339.263 265.71,339.369 265.662,339.59C265.626,339.915 265.475,340.218 265.234,340.443C264.828,340.747 264.365,340.968 263.873,341.096C263.329,341.278 262.697,341.451 261.987,341.623C261.657,341.719 261.229,341.777 260.927,341.902C260.59,342.062 260.306,342.315 260.111,342.631C259.697,343.422 259.337,344.239 259.032,345.077C258.782,345.536 258.429,345.933 258.001,346.238C257.556,346.53 257.072,346.759 256.563,346.919C255.54,347.175 254.544,347.525 253.588,347.965C253.166,348.242 252.814,348.611 252.56,349.043C252.305,349.476 252.155,349.96 252.12,350.459C252.06,351.515 251.658,352.524 250.973,353.337C250.203,353.899 249.267,354.195 248.31,354.181C247.551,354.209 246.817,354.449 246.191,354.872C245.751,355.202 245.386,355.619 245.12,356.096C244.853,356.574 244.692,357.101 244.645,357.645C244.628,358.055 244.65,358.466 244.713,358.873C244.713,358.873 244.645,358.777 244.577,358.575C244.48,358.265 244.438,357.94 244.451,357.616C244.461,357.028 244.604,356.449 244.868,355.922C245.132,355.395 245.51,354.931 245.977,354.565C246.644,354.085 247.437,353.802 248.261,353.75C249.124,353.751 249.964,353.482 250.662,352.982C251.246,352.233 251.585,351.326 251.634,350.382C251.72,349.838 251.883,349.308 252.12,348.809C252.395,348.287 252.817,347.854 253.335,347.562C254.32,347.097 255.349,346.73 256.407,346.468C256.865,346.362 257.297,346.166 257.678,345.892C258.059,345.619 258.38,345.273 258.624,344.876C258.949,344.031 259.329,343.207 259.761,342.41C260.003,342.048 260.338,341.756 260.733,341.566C261.18,341.412 261.511,341.393 261.87,341.297C262.977,341.144 264.053,340.82 265.059,340.338C265.387,340.065 265.602,339.683 265.662,339.263Z" fill="#E6E6E6"/>
<path d="M313.428,308.952C311.921,309.978 312.456,312.511 313.924,313.585C315.391,314.66 317.355,314.698 319.182,314.794C321.01,314.89 323.003,315.139 324.267,316.463C325.802,318.075 325.822,320.867 327.679,322.104C329.302,323.179 331.567,322.555 333.297,323.524C334.648,324.301 335.241,325.913 335.62,327.429C335.825,328.975 336.355,330.462 337.176,331.794C338.148,333.031 340.092,333.665 341.268,332.619C342.629,331.391 341.842,329.204 341.861,327.371C341.861,323.745 345.332,321.222 347.402,318.229C348.881,315.995 349.669,313.385 349.669,310.717C349.669,308.049 348.881,305.438 347.402,303.205C345.864,301.027 343.709,299.346 341.207,298.371C338.705,297.397 335.967,297.173 333.336,297.727C325.87,299.435 320.961,307.138 313.525,308.942Z" fill="#407BFF"/>
<path d="M321.535,315.082C321.052,315.272 320.615,315.559 320.252,315.926C319.845,316.378 319.516,316.893 319.28,317.451C318.998,318.094 318.774,318.89 318.415,319.735C318.037,320.703 317.356,321.526 316.47,322.085C315.47,322.675 314.385,323.115 313.253,323.39C312.041,323.675 310.876,324.127 309.792,324.733C309.252,325.064 308.796,325.514 308.46,326.047C308.133,326.615 307.897,327.23 307.761,327.87C307.569,329.218 307.214,330.539 306.701,331.803C306.385,332.416 305.904,332.93 305.311,333.29C304.745,333.604 304.126,333.812 303.483,333.904C302.352,334.006 301.228,334.182 300.12,334.432C299.197,334.725 298.376,335.266 297.748,335.996C296.81,337.062 296.283,338.421 296.261,339.833C296.286,340.35 296.338,340.866 296.416,341.378C296.416,341.378 296.348,341.253 296.261,341.003C296.142,340.627 296.074,340.237 296.057,339.843C296.013,338.367 296.518,336.927 297.476,335.794C298.137,334.968 299.029,334.351 300.042,334.019C301.164,333.747 302.305,333.551 303.454,333.434C304.039,333.341 304.601,333.146 305.116,332.859C305.634,332.547 306.052,332.099 306.322,331.563C306.796,330.326 307.122,329.038 307.294,327.726C307.442,327.034 307.701,326.37 308.062,325.759C308.434,325.162 308.944,324.659 309.549,324.292C310.677,323.67 311.888,323.208 313.146,322.92C314.244,322.672 315.299,322.265 316.276,321.711C317.097,321.202 317.733,320.45 318.094,319.562C318.463,318.756 318.716,317.969 319.066,317.307C319.332,316.735 319.697,316.212 320.145,315.763C320.437,315.484 320.784,315.268 321.166,315.13C321.284,315.09 321.41,315.074 321.535,315.082Z" fill="#407BFF"/>
<path d="M335.232,323.515C334.741,323.695 334.299,323.984 333.939,324.359C333.533,324.808 333.204,325.32 332.967,325.875C332.685,326.527 332.461,327.314 332.111,328.158C331.729,329.124 331.049,329.946 330.167,330.508C329.164,331.104 328.076,331.547 326.94,331.823C325.73,332.109 324.565,332.558 323.479,333.156C322.944,333.491 322.492,333.94 322.157,334.47C321.826,335.038 321.587,335.653 321.447,336.293C321.258,337.644 320.906,338.968 320.398,340.236C320.081,340.848 319.596,341.36 318.998,341.714C318.432,342.028 317.813,342.237 317.17,342.328C316.04,342.439 314.917,342.615 313.807,342.855C312.887,343.154 312.069,343.698 311.445,344.428C310.503,345.493 309.973,346.853 309.948,348.266C309.967,348.784 310.022,349.3 310.113,349.81C310.034,349.694 309.978,349.564 309.948,349.427C309.836,349.049 309.771,348.659 309.753,348.266C309.705,346.79 310.21,345.348 311.172,344.217C311.824,343.415 312.694,342.813 313.68,342.481C314.803,342.208 315.943,342.013 317.092,341.896C317.679,341.81 318.243,341.615 318.755,341.32C319.27,341.006 319.687,340.558 319.96,340.025C320.429,338.786 320.756,337.499 320.932,336.188C321.08,335.496 321.34,334.832 321.7,334.221C322.078,333.628 322.586,333.126 323.187,332.753C324.314,332.131 325.525,331.673 326.784,331.391C327.878,331.134 328.929,330.724 329.905,330.172C330.725,329.665 331.364,328.917 331.732,328.033C332.101,327.218 332.344,326.431 332.704,325.769C332.968,325.198 333.333,324.678 333.783,324.234C334.056,323.953 334.388,323.734 334.755,323.591C334.903,323.521 335.069,323.495 335.232,323.515Z" fill="#407BFF"/>
<path d="M327.678,322.104C327.72,322.268 327.72,322.44 327.678,322.603C327.616,323.087 327.386,323.534 327.027,323.87C326.406,324.319 325.703,324.644 324.957,324.829C324.111,325.098 323.149,325.357 322.04,325.616C321.525,325.76 320.884,325.846 320.398,326.038C319.863,326.293 319.411,326.692 319.095,327.189C318.366,328.206 318.123,329.587 317.442,330.921C317.072,331.608 316.542,332.2 315.897,332.648C315.225,333.087 314.496,333.432 313.729,333.674C312.151,334.061 310.617,334.604 309.15,335.296C308.465,335.689 307.908,336.268 307.547,336.965C307.218,337.67 306.986,338.415 306.856,339.181C306.724,339.95 306.552,340.712 306.341,341.464C306.133,342.22 305.727,342.908 305.165,343.46C304.6,343.95 303.911,344.281 303.172,344.419C302.504,344.553 301.829,344.649 301.15,344.707C299.97,344.746 298.828,345.126 297.865,345.8C297.087,346.379 296.469,347.141 296.066,348.017C295.753,348.674 295.566,349.383 295.512,350.108C295.488,350.735 295.54,351.364 295.668,351.979C295.586,351.834 295.524,351.679 295.483,351.518C295.361,351.058 295.306,350.583 295.318,350.108C295.334,349.347 295.502,348.597 295.813,347.901C296.209,346.966 296.842,346.147 297.651,345.522C298.117,345.15 298.647,344.864 299.216,344.678C299.829,344.485 300.461,344.356 301.102,344.294C302.365,344.122 303.833,344.054 304.844,343.105C305.855,342.155 306.079,340.601 306.37,339.066C306.504,338.253 306.749,337.463 307.099,336.715C307.504,335.939 308.124,335.294 308.888,334.854C310.383,334.137 311.95,333.578 313.564,333.185C314.293,332.964 314.987,332.641 315.625,332.226C316.209,331.824 316.688,331.291 317.024,330.671C317.685,329.444 317.997,328.024 318.745,326.93C319.115,326.376 319.633,325.934 320.242,325.654C320.527,325.545 320.824,325.468 321.127,325.424L321.953,325.242C323.032,325.011 324.004,324.771 324.869,324.532C325.59,324.376 326.276,324.09 326.891,323.687C327.239,323.389 327.481,322.989 327.581,322.546C327.669,322.277 327.659,322.104 327.678,322.104Z" fill="#407BFF"/>
<path d="M635.062,263.266C634.779,263.434 634.475,263.563 634.158,263.65C633.239,263.901 632.276,263.944 631.339,263.775C629.863,263.503 628.46,262.935 627.217,262.106C625.739,261.146 624.242,259.899 622.415,258.757C620.416,257.53 618.136,256.821 615.785,256.695C613.079,256.585 610.374,256.945 607.795,257.76C602.254,259.285 596.878,262.787 590.472,264.792C587.353,265.858 584.023,266.187 580.751,265.751C577.753,265.192 574.887,264.082 572.304,262.48C569.806,261.031 567.56,259.467 565.392,258.134C563.414,256.856 561.29,255.813 559.064,255.026C557.23,254.379 555.312,253.994 553.368,253.884C551.897,253.813 550.426,254.001 549.022,254.44C547.841,254.848 546.727,255.427 545.717,256.158C545.717,256.158 545.766,256.1 545.892,255.994L546.466,255.534C547.231,254.99 548.072,254.56 548.964,254.258C550.381,253.772 551.878,253.551 553.377,253.606C555.364,253.686 557.329,254.051 559.21,254.69C561.472,255.467 563.632,256.507 565.645,257.788C567.832,259.112 570.087,260.667 572.566,262.077C575.106,263.64 577.917,264.723 580.858,265.271C584.044,265.675 587.281,265.346 590.316,264.312C596.625,262.345 601.982,258.844 607.659,257.309C610.29,256.491 613.049,256.14 615.805,256.273C618.223,256.417 620.565,257.167 622.609,258.45C624.456,259.64 625.924,260.945 627.372,261.866C628.58,262.691 629.941,263.271 631.377,263.573C632.284,263.763 633.221,263.763 634.128,263.573C634.741,263.391 635.042,263.238 635.062,263.266Z" fill="#263238"/>
<path d="M0.018,263.027C-0.006,262.787 -0.006,262.546 0.018,262.307C0.115,261.633 0.339,260.982 0.679,260.388C1.365,259.313 2.285,258.401 3.373,257.721C4.461,257.04 5.689,256.608 6.968,256.455C8.731,256.243 10.519,256.414 12.208,256.954C14.128,257.56 15.987,258.344 17.758,259.295C19.685,260.342 21.675,261.271 23.717,262.077C25.867,262.957 28.208,263.287 30.522,263.036C32.816,262.571 34.929,261.473 36.617,259.87C38.238,258.376 39.939,256.967 41.71,255.649C44.902,253.568 48.722,252.633 52.53,253.001C53.98,253.131 55.406,253.454 56.768,253.961C57.783,254.326 58.76,254.789 59.684,255.342C60.482,255.817 61.22,256.383 61.881,257.031C61.881,257.079 61.113,256.407 59.587,255.515C58.658,254.997 57.682,254.566 56.671,254.229C55.324,253.772 53.922,253.491 52.501,253.395C48.786,253.09 45.076,254.033 41.973,256.071C40.252,257.242 38.697,258.806 36.938,260.293C36.031,261.066 35.055,261.756 34.021,262.355C32.948,262.963 31.772,263.376 30.551,263.574C28.141,263.855 25.699,263.525 23.455,262.614C21.398,261.794 19.395,260.849 17.457,259.784C15.717,258.834 13.892,258.048 12.004,257.434C10.373,256.885 8.641,256.699 6.929,256.887C5.692,257.017 4.499,257.413 3.434,258.048C2.369,258.683 1.458,259.541 0.766,260.561C0.352,261.325 0.097,262.164 0.018,263.027Z" fill="#263238"/>
<path d="M576.387,278.616C576.387,278.616 575.949,278.789 575.075,279.096L573.441,279.671L571.109,280.189C570.639,280.3 570.161,280.374 569.679,280.41L568.095,280.583C567.511,280.644 566.923,280.667 566.335,280.65L564.391,280.65C561.343,280.457 558.319,279.982 555.361,279.23C551.673,278.239 548.043,277.054 544.483,275.68C540.595,274.222 536.367,272.505 531.759,270.884C526.859,269.136 521.791,267.891 516.633,267.171C510.837,266.386 504.979,266.132 499.135,266.413C486.849,266.941 473.589,269.588 459.503,272.745C452.447,274.308 445.155,275.968 437.583,277.388C429.799,278.916 421.915,279.906 413.991,280.352C405.651,280.662 397.301,280.245 389.037,279.105C380.589,278.002 372.055,276.314 363.403,274.481C354.751,272.649 346.013,270.701 336.981,269.166C327.885,267.477 318.667,266.514 309.413,266.288C290.633,266 272.475,268.85 254.977,271.287C246.227,272.524 237.595,273.685 229.099,274.433C220.799,275.203 212.461,275.492 204.126,275.297C187.834,274.875 172.475,272.927 158.127,271.162C143.779,269.397 130.403,267.708 118.126,267.065C107.085,266.375 96.005,266.581 84.997,267.679C82.567,267.89 80.234,268.265 77.989,268.572C75.743,268.879 73.604,269.329 71.553,269.694C69.502,270.059 67.558,270.557 65.721,271.027C63.884,271.498 62.124,271.987 60.481,272.476C55.434,274 50.503,275.875 45.725,278.088L42.051,279.93L40.797,280.544C40.797,280.544 41.205,280.314 42.031,279.882L45.676,277.964C50.446,275.713 55.375,273.805 60.423,272.255C62.066,271.747 63.825,271.296 65.663,270.788C67.5,270.279 69.473,269.915 71.495,269.435C73.517,268.955 75.694,268.629 77.94,268.284C80.186,267.938 82.519,267.593 84.958,267.324C95.979,266.192 107.076,265.961 118.136,266.634C130.433,267.257 143.818,268.898 158.166,270.673C172.514,272.447 187.873,274.356 204.126,274.759C212.445,274.946 220.767,274.655 229.051,273.886C237.527,273.128 246.141,271.968 254.899,270.73C272.397,268.284 290.603,265.425 309.443,265.703C318.721,265.929 327.967,266.891 337.089,268.581C346.099,270.145 354.897,272.102 363.539,273.934C372.181,275.767 380.715,277.446 389.143,278.558C397.379,279.696 405.699,280.116 414.009,279.815C421.911,279.377 429.771,278.396 437.535,276.88C445.097,275.469 452.387,273.819 459.455,272.265C473.551,269.118 486.829,266.509 499.155,265.981C504.999,265.711 510.857,265.978 516.653,266.778C521.831,267.511 526.919,268.771 531.837,270.538C536.445,272.16 540.643,273.886 544.551,275.335C548.099,276.714 551.717,277.912 555.389,278.923C558.335,279.681 561.345,280.169 564.381,280.381L566.325,280.381C566.909,280.404 567.495,280.388 568.075,280.333L569.661,280.17C570.137,280.141 570.613,280.073 571.079,279.969L573.413,279.47L575.045,278.923C575.931,278.75 576.387,278.616 576.387,278.616Z" fill="#263238"/>
<path d="M536.852,350.999C536.053,350.175 535.182,349.424 534.246,348.754C531.592,347.067 528.5,346.174 525.342,346.183C523.171,346.136 521.002,346.339 518.878,346.787C516.442,347.324 514.056,348.059 511.743,348.984C509.274,349.944 506.707,350.989 503.966,351.949C501.149,353.001 498.21,353.7 495.217,354.031C492.216,354.286 489.192,354.04 486.274,353.301C483.455,352.649 480.811,351.767 478.283,350.989C475.912,350.216 473.489,349.603 471.032,349.157C468.889,348.814 466.71,348.743 464.548,348.946C462.767,349.116 461.022,349.543 459.367,350.212C458.123,350.728 456.971,351.437 455.955,352.313C455.11,353.091 454.357,353.96 453.709,354.904C453.709,354.904 453.709,354.827 453.806,354.702L454.156,354.127C454.341,353.816 454.556,353.523 454.798,353.254C455.09,352.865 455.415,352.503 455.77,352.169C456.786,351.249 457.949,350.5 459.211,349.953C460.882,349.243 462.652,348.784 464.461,348.591C466.655,348.363 468.87,348.414 471.051,348.745C473.532,349.176 475.978,349.781 478.371,350.558C480.908,351.316 483.543,352.189 486.342,352.822C489.198,353.535 492.155,353.775 495.091,353.532C498.029,353.2 500.915,352.514 503.684,351.488C506.386,350.529 508.953,349.474 511.461,348.61C513.796,347.678 516.209,346.949 518.674,346.433C520.831,345.994 523.033,345.807 525.235,345.876C528.451,345.9 531.587,346.865 534.246,348.649C534.661,348.932 535.049,349.254 535.403,349.608C535.684,349.842 535.941,350.102 536.171,350.385L536.599,350.894C536.813,350.932 536.861,350.999 536.852,350.999Z" fill="#263238"/>
<path d="M201.521,355.46C200.73,354.637 199.868,353.883 198.945,353.206C196.291,351.517 193.198,350.624 190.041,350.635C187.87,350.588 185.7,350.79 183.576,351.239C181.138,351.764 178.75,352.5 176.441,353.436C173.962,354.395 171.406,355.441 168.665,356.391C165.848,357.443 162.909,358.142 159.916,358.473C156.918,358.731 153.898,358.488 150.982,357.753C148.163,357.091 145.519,356.208 142.992,355.441C140.62,354.665 138.197,354.05 135.74,353.599C133.596,353.261 131.418,353.19 129.256,353.388C127.475,353.56 125.729,353.99 124.075,354.664C122.829,355.175 121.676,355.885 120.663,356.765C119.82,357.543 119.064,358.408 118.408,359.346C118.44,359.277 118.476,359.209 118.515,359.144L118.855,358.578C119.045,358.266 119.263,357.97 119.506,357.695C119.798,357.311 120.124,356.951 120.478,356.621C121.489,355.699 122.649,354.949 123.91,354.405C125.584,353.695 127.357,353.236 129.169,353.043C131.363,352.816 133.578,352.864 135.759,353.187C138.239,353.623 140.685,354.229 143.079,355C145.616,355.767 148.251,356.631 151.05,357.273C153.907,357.987 156.863,358.227 159.799,357.983C162.738,357.65 165.624,356.961 168.392,355.93C171.105,354.971 173.671,353.925 176.169,353.004C178.509,352.076 180.926,351.347 183.392,350.827C185.55,350.391 187.752,350.207 189.953,350.28C193.168,350.301 196.304,351.262 198.965,353.043C199.377,353.329 199.764,353.65 200.121,354.002C200.397,354.235 200.65,354.492 200.88,354.769L201.317,355.288C201.393,355.335 201.462,355.394 201.521,355.46Z" fill="#263238"/>
<path d="M531.914,313.546L530.738,313.968L527.286,315.148C524.244,316.175 519.734,317.71 513.9,319.504C508.068,321.298 500.904,323.399 492.428,325.193C482.83,327.336 473.008,328.353 463.168,328.224C457.442,328.129 451.742,327.454 446.156,326.21C440.114,324.818 434.214,322.892 428.522,320.453C422.602,317.997 416.624,315.148 410.404,312.356C404.058,309.396 397.494,306.92 390.766,304.95C389.046,304.423 387.268,304.087 385.498,303.665C384.614,303.473 383.7,303.358 382.806,303.204C381.906,303.027 380.998,302.902 380.084,302.83C378.246,302.686 376.41,302.475 374.542,302.389L368.934,302.389C361.252,302.824 353.64,304.066 346.226,306.092C331.052,309.987 315.896,316.079 299.498,319.254C297.456,319.667 295.386,319.926 293.344,320.262C291.304,320.597 289.222,320.674 287.172,320.885C285.12,321.096 283.05,320.971 281.008,321.019C278.968,321.067 276.926,320.77 274.894,320.655C266.938,319.756 259.096,318.062 251.486,315.599C236.497,310.946 222.499,305.046 208.462,301.794C206.703,301.42 204.962,300.988 203.222,300.672L197.993,299.818C194.566,299.382 191.115,299.157 187.659,299.146C181.045,299.362 174.481,300.367 168.111,302.139C161.919,303.77 156.047,305.718 150.428,307.665L134.292,313.316C125.061,316.6 115.649,319.368 106.101,321.605C101.883,322.564 97.897,323.274 94.232,323.869C92.395,324.109 90.635,324.387 88.954,324.569C87.272,324.751 85.668,324.943 84.142,325.049C79.47,325.434 74.782,325.587 70.095,325.509L66.44,325.365L65.196,325.298C65.196,325.298 65.624,325.298 66.45,325.298L70.095,325.394C73.303,325.394 78.047,325.394 84.122,324.847C85.649,324.732 87.243,324.521 88.925,324.348C90.606,324.176 92.356,323.869 94.193,323.629C97.848,323.015 101.824,322.324 106.033,321.326C115.579,319.059 124.99,316.272 134.224,312.98L150.341,307.32C155.96,305.401 161.831,303.396 168.043,301.756C174.444,299.968 181.04,298.95 187.688,298.724C191.167,298.73 194.641,298.954 198.09,299.396L203.349,300.24C205.099,300.566 206.839,300.988 208.608,301.362C222.703,304.653 236.72,310.515 251.671,315.148C259.256,317.598 267.072,319.282 275.002,320.175C277.014,320.29 279.046,320.492 281.076,320.54C283.108,320.588 285.15,320.54 287.192,320.405C289.232,320.271 291.284,320.07 293.334,319.782C295.386,319.494 297.428,319.197 299.458,318.823C315.79,315.657 330.944,309.574 346.12,305.679C353.568,303.644 361.216,302.399 368.934,301.967L374.582,301.967C376.458,302.043 378.304,302.264 380.152,302.408C381.074,302.487 381.994,302.616 382.902,302.792C383.806,302.945 384.72,303.07 385.614,303.262C387.394,303.684 389.182,304.02 390.912,304.557C397.668,306.514 404.26,308.987 410.626,311.954C416.848,314.745 422.816,317.604 428.726,320.06C434.394,322.492 440.268,324.418 446.282,325.816C451.842,327.068 457.516,327.749 463.216,327.85C473.02,328.001 482.808,327.013 492.378,324.905C500.856,323.14 508.02,321.067 513.852,319.293C519.684,317.518 524.176,316.031 527.228,315.033L530.718,313.872L531.914,313.546Z" fill="#263238"/>
<path d="M126.817,222.293L126.817,196.083L187.902,196.083L187.902,139.999C187.902,139.999 153.374,118.5 95.477,133.706L107.142,101.731L350.941,93.336L470.391,173.347L382.815,240.645L126.817,238.544L126.817,222.293Z" fill="#407BFF"/>
<path d="M237.061,168.914C239.18,168.914 457.413,164.636 457.413,164.636L404.736,129.351L348.851,129.351C348.851,129.351 287.318,129.955 267.137,145.583C244.488,163.13 237.061,168.914 237.061,168.914Z" fill="#263238"/>
<path d="M222.684,97.749L117.514,61.102L77.444,65.553L141.582,100.541L222.684,97.749Z" fill="#407BFF"/>
<path d="M141.583,100.541L222.898,97.356L131.609,95.102L141.583,100.541Z" fill="#407BFF"/>
<g opacity="0.2">
<path d="M141.583,100.541L222.898,97.356L131.609,95.102L141.583,100.541Z" fill="#000000"/>
</g>
<path d="M187.903,196.083L202.737,196.083L202.737,148.154L187.903,139.99L187.903,196.083Z" fill="#407BFF"/>
<g opacity="0.2">
<path d="M187.903,196.083L202.737,196.083L202.737,148.154L187.903,139.99L187.903,196.083Z" fill="#000000"/>
</g>
<path d="M95.477,133.706L99.725,132.65L113.032,101.529L107.171,101.73Z" fill="#407BFF"/>
<g opacity="0.2">
<path d="M95.477,133.706L99.725,132.65L113.032,101.529L107.171,101.73Z" fill="#000000"/>
</g>
<path d="M358.834,129.351L331.975,167.082L343.63,166.861L372.287,129.351L358.834,129.351Z" fill="#FAFAFA"/>
<path d="M377.401,129.351L348.744,166.756L352.126,166.689L380.443,129.351L377.401,129.351Z" fill="#FAFAFA"/>
<path d="M218.29,216.623C218.043,216.622 217.801,216.559 217.586,216.441C217.37,216.323 217.188,216.154 217.057,215.949C216.925,215.743 216.848,215.508 216.832,215.266C216.817,215.023 216.863,214.78 216.968,214.56L235.437,176.378C235.6,176.044 235.885,175.783 236.235,175.649C236.614,175.505 275.118,161.124 340.296,149.583C400.391,138.944 496.151,128.602 611.003,139.778C611.241,139.802 611.469,139.884 611.667,140.016C611.867,140.148 612.029,140.326 612.141,140.534C612.253,140.743 612.313,140.976 612.313,141.212C612.311,141.448 612.253,141.681 612.139,141.889L593.883,175.466C593.701,175.804 593.389,176.055 593.019,176.166C592.647,176.276 592.247,176.237 591.905,176.056C591.565,175.876 591.309,175.569 591.197,175.202C591.085,174.836 591.125,174.441 591.307,174.104L608.533,142.445C494.993,131.595 400.361,141.87 340.87,152.413C280.105,163.167 242.689,176.368 237.829,178.143L219.602,215.798C219.485,216.043 219.299,216.251 219.067,216.397C218.835,216.543 218.565,216.622 218.29,216.623Z" fill="#455A64"/>
<path d="M591.621,160.406L547.054,160.406L547.054,161.374L591.621,161.374L591.621,160.406Z" transform="rotate(-130.924 569.337 160.89)" fill="#455A64"/>
<path d="M550.778,156.35L506.126,156.35L506.126,157.32L550.778,157.32L550.778,156.35Z" transform="rotate(-131.214 528.452 156.835)" fill="#455A64"/>
<path d="M512.819,156.771L468.167,156.771L468.167,157.741L512.819,157.741L512.819,156.771Z" transform="rotate(-131.214 490.493 157.256)" fill="#455A64"/>
<path d="M435.318,161.908L390.666,161.908L390.666,162.878L435.318,162.878L435.318,161.908Z" transform="rotate(-131.214 412.992 162.393)" fill="#455A64"/>
<path d="M475.07,156.882L430.418,156.882L430.418,157.852L475.07,157.852L475.07,156.882Z" transform="rotate(-131.214 452.744 157.367)" fill="#455A64"/>
<path d="M397.174,165.474L352.522,165.474L352.522,166.444L397.174,166.444L397.174,165.474Z" transform="rotate(-131.214 374.848 165.959)" fill="#455A64"/>
<path d="M357.711,171.072L313.059,171.072L313.059,172.042L357.711,172.042L357.711,171.072Z" transform="rotate(-131.214 335.385 171.557)" fill="#455A64"/>
<path d="M317.797,180.314L273.145,180.314L273.145,181.284L317.797,181.284L317.797,180.314Z" transform="rotate(-131.255 295.471 180.799)" fill="#455A64"/>
<path d="M127.429,267.162C156.854,269.627 186.094,275.566 215.607,274.722C249.417,273.762 282.797,263.871 316.567,265.963C348.647,267.948 379.607,280.67 411.715,279.883C451.115,278.924 490.629,257.751 528.365,269.138C532.137,270.28 535.949,271.738 539.769,273.215L602.517,173.25C602.517,173.25 293.763,159.695 199.917,225.881L43.577,225.881L55.242,273.896C77.853,265.704 103.175,265.138 127.429,267.162Z" fill="#407BFF"/>
<g opacity="0.1">
<path d="M127.429,267.162C156.854,269.627 186.094,275.566 215.607,274.722C249.417,273.762 282.797,263.871 316.567,265.963C348.647,267.948 379.607,280.67 411.715,279.883C451.115,278.924 490.629,257.751 528.365,269.138C532.137,270.28 535.949,271.738 539.769,273.215L602.517,173.25C602.517,173.25 293.763,159.695 199.917,225.881L43.577,225.881L55.242,273.896C77.853,265.704 103.175,265.138 127.429,267.162Z" fill="#000000"/>
</g>
<path d="M413.037,279.825C452.436,278.866 491.951,257.693 529.688,269.071C533.119,270.107 536.589,271.411 540.06,272.755L571.253,222.954C571.253,222.954 465.297,260.302 364.501,273.695C380.589,277.11 396.667,280.218 413.037,279.825Z" fill="#407BFF"/>
<path d="M66.606,270.702C59.13,270.165 54.746,269.886 54.28,270.021L55.31,274.261C59.008,272.877 62.779,271.689 66.606,270.702Z" fill="#407BFF"/>
<g opacity="0.3">
<path d="M413.037,279.825C452.436,278.866 491.951,257.693 529.688,269.071C533.119,270.107 536.589,271.412 540.06,272.755L571.253,222.955C571.253,222.955 465.297,260.302 364.501,273.695C380.589,277.11 396.667,280.219 413.037,279.825Z" fill="#000000"/>
<path d="M66.606,270.702C59.13,270.165 54.746,269.886 54.28,270.021L55.31,274.261C59.008,272.878 62.779,271.689 66.606,270.702Z" fill="#000000"/>
</g>
<path d="M357.57,227.838C367.55,227.838 375.641,219.789 375.641,209.859C375.641,199.93 367.55,191.881 357.57,191.881C347.59,191.881 339.499,199.93 339.499,209.859C339.499,219.789 347.59,227.838 357.57,227.838Z" fill="#263238"/>
<path d="M367.67,194.395L343.524,224.211L346.887,227.022L371.209,197.042L367.67,194.395Z" fill="#455A64"/>
<path d="M350.533,228.903L373.221,199.249L374.164,200.583L351.748,229.555L350.533,228.903Z" fill="#455A64"/>
<path d="M445.592,227.838C455.573,227.838 463.664,219.789 463.664,209.859C463.664,199.93 455.573,191.881 445.592,191.881C435.612,191.881 427.521,199.93 427.521,209.859C427.521,219.789 435.612,227.838 445.592,227.838Z" fill="#263238"/>
<path d="M455.693,194.395L431.536,224.211L434.9,227.022L459.231,197.042L455.693,194.395Z" fill="#455A64"/>
<path d="M438.545,228.903L461.234,199.249L462.186,200.583L439.76,229.555L438.545,228.903Z" fill="#455A64"/>
<path d="M367.67,194.395L343.524,224.211L346.887,227.022L371.209,197.042L367.67,194.395Z" fill="#FAFAFA"/>
<path d="M350.533,228.903L373.221,199.249L374.164,200.583L351.748,229.555L350.533,228.903Z" fill="#FAFAFA"/>
<path d="M526.83,227.838C536.81,227.838 544.901,219.789 544.901,209.859C544.901,199.93 536.81,191.881 526.83,191.881C516.849,191.881 508.759,199.93 508.759,209.859C508.759,219.789 516.849,227.838 526.83,227.838Z" fill="#263238"/>
<path d="M536.93,194.395L512.783,224.211L516.137,227.022L540.468,197.042L536.93,194.395Z" fill="#455A64"/>
<path d="M519.792,228.903L542.471,199.249L543.424,200.583L521.007,229.555L519.792,228.903Z" fill="#455A64"/>
<path d="M536.93,194.395L512.783,224.211L516.137,227.022L540.468,197.042L536.93,194.395Z" fill="#FAFAFA"/>
<path d="M519.792,228.903L542.471,199.249L543.424,200.583L521.007,229.555L519.792,228.903Z" fill="#FAFAFA"/>
<path d="M455.693,194.395L431.536,224.211L434.9,227.022L459.231,197.042L455.693,194.395Z" fill="#FAFAFA"/>
<path d="M438.545,228.903L461.234,199.249L462.186,200.583L439.76,229.555L438.545,228.903Z" fill="#FAFAFA"/>
<path d="M187.98,255.784C187.98,258.537 166.03,260.772 138.967,260.772C111.905,260.772 89.945,258.537 89.945,255.784C89.945,253.03 111.895,250.786 138.967,250.786C166.04,250.786 187.98,253.021 187.98,255.784Z" fill="#407BFF"/>
<g opacity="0.2">
<path d="M187.98,255.784C187.98,258.537 166.03,260.772 138.967,260.772C111.905,260.772 89.945,258.537 89.945,255.784C89.945,253.03 111.895,250.786 138.967,250.786C166.04,250.786 187.98,253.021 187.98,255.784Z" fill="#000000"/>
</g>
<path d="M410.627,56.462C419.02,56.462 425.824,49.577 425.824,41.084C425.824,32.592 419.02,25.707 410.627,25.707C402.233,25.707 395.429,32.592 395.429,41.084C395.429,49.577 402.233,56.462 410.627,56.462Z" transform="rotate(-152.918 410.627 41.084)" fill="#407BFF"/>
<path d="M411.715,77.478C411.433,77.478 411.21,73.266 411.21,68.067C411.21,62.867 411.433,58.655 411.715,58.655C411.997,58.655 412.221,62.867 412.221,68.067C412.221,73.266 411.988,77.478 411.715,77.478Z" fill="#407BFF"/>
<path d="M448.042,38.432C448.042,38.71 444.154,38.931 439.294,38.931C434.433,38.931 430.545,38.71 430.545,38.432C430.545,38.154 434.433,37.933 439.294,37.933C444.154,37.933 448.042,38.163 448.042,38.432Z" fill="#407BFF"/>
<path d="M409.363,7.224C409.645,7.224 409.869,10.754 409.869,15.091C409.869,19.427 409.645,22.957 409.363,22.957C409.081,22.957 408.858,19.437 408.858,15.091C408.858,10.745 409.081,7.224 409.363,7.224Z" fill="#407BFF"/>
<path d="M388.978,42.049C388.978,42.327 385.178,42.547 380.482,42.547C375.787,42.547 371.977,42.375 371.977,42.049C371.977,41.722 375.787,41.55 380.473,41.55C385.158,41.55 388.978,41.77 388.978,42.049Z" fill="#407BFF"/>
<path d="M397.076,54.683C397.28,54.875 395.384,57.062 392.867,59.547C390.349,62.032 388.132,63.903 387.928,63.711C387.724,63.519 389.62,61.341 392.147,58.847C394.675,56.352 396.881,54.491 397.076,54.683Z" fill="#407BFF"/>
<path d="M435.755,62.933C435.561,63.135 433.296,61.216 430.69,58.645C428.085,56.074 426.151,53.848 426.345,53.656C426.54,53.465 428.814,55.374 431.41,57.945C434.005,60.516 435.949,62.742 435.755,62.933Z" fill="#407BFF"/>
<path d="M433.928,17.288C434.122,17.48 432.411,19.485 430.107,21.768C427.804,24.051 425.762,25.74 425.568,25.538C425.373,25.337 427.074,23.341 429.388,21.058C431.702,18.775 433.733,17.096 433.928,17.288Z" fill="#407BFF"/>
<path d="M396.279,28.119C396.075,28.311 394.393,26.968 392.517,25.116C390.641,23.265 389.28,21.605 389.484,21.413C389.688,21.221 391.36,22.564 393.236,24.416C395.112,26.268 396.493,27.927 396.279,28.119Z" fill="#407BFF"/>
<path d="M301.17,28.09C300.198,27.994 299.556,33.204 299.041,32.004C298.526,30.805 300.577,25.73 299.546,25.673C298.215,25.596 297.651,31.064 297.602,31.525C297.554,31.985 296.844,31.88 296.941,31.467C297.087,30.882 298.399,24.646 297.087,24.569C296.368,24.569 296.406,25.807 296.406,25.807C296.406,25.807 295.609,31.736 294.987,31.669C294.365,31.602 294.715,28.119 294.919,26.949C295.123,25.778 294.637,25.231 294.044,25.567C293.646,25.797 292.936,29.405 292.771,30.527C292.606,31.65 292.178,34.883 291.089,33.146C290,31.41 288.494,30.479 287.91,30.508C287.778,30.529 287.656,30.59 287.56,30.683C287.464,30.775 287.399,30.895 287.375,31.025C287.35,31.155 287.367,31.29 287.423,31.41C287.479,31.53 287.571,31.631 287.687,31.698C288.231,32.129 288.709,32.637 289.106,33.204C289.435,33.657 289.682,34.163 289.835,34.7C290.088,35.487 290.253,36.159 290.37,36.677C289.252,38.365 277.013,55.998 263.608,39.794C257.338,32.216 252.614,31.726 250.446,32.062L250.446,31.995L247.112,32.551L237.391,35.89C235.94,36.378 234.535,36.992 233.192,37.722C233.192,37.722 224.491,40.169 226.154,55.95C227.622,69.861 226.232,90.755 225.882,95.59C223.684,96.897 221.184,97.624 218.62,97.701C218.62,97.701 217.483,98.977 219.359,98.862C221.235,98.747 230.052,99.198 231.559,97.356C231.559,97.356 237.391,98.315 239.977,97.279C239.977,97.279 236.195,97.183 235.476,96.243C235.401,96.13 235.342,96.007 235.301,95.878L236.273,54.626L257.805,48.409C261.79,52.918 267.302,56.535 274.661,56.084C292.061,55.125 297.651,40.044 298.321,38.02C299.344,35.776 300.243,33.48 301.014,31.141C301.802,28.196 301.539,28.119 301.17,28.09Z" fill="#B78876"/>
<path d="M248.21,24.675C251.193,22.807 253.442,19.992 254.587,16.693C253.913,16.892 253.209,16.973 252.507,16.933C252.154,16.911 251.813,16.802 251.513,16.618C251.213,16.434 250.963,16.18 250.786,15.878C250.565,15.209 250.528,14.494 250.679,13.806C250.76,13.455 250.738,13.089 250.618,12.75C250.498,12.411 250.283,12.112 249.999,11.887C249.25,11.455 248.278,11.993 247.433,11.791C246.062,11.455 245.907,9.604 245.012,8.52C244.635,8.116 244.169,7.805 243.649,7.608C243.13,7.412 242.572,7.336 242.018,7.388C240.912,7.504 239.83,7.785 238.81,8.222L248.21,24.675Z" fill="#263238"/>
<path d="M231.228,6.255C226.426,8.26 226.747,12.309 225.395,14.784C224.9,15.487 224.667,16.338 224.734,17.192C224.948,18.151 225.979,18.852 226.329,19.821C227.155,22.085 223.966,24.349 224.715,26.642C225.055,27.707 226.124,28.33 226.883,29.155C227.641,29.98 227.971,31.486 226.999,32.033L236.244,30.623C236.244,30.623 232.589,7.838 230.829,7.992Z" fill="#263238"/>
<path d="M236.176,54.683L240.57,63.999L247.015,81.862C254.85,82.246 268.148,77.382 277.548,74.427L263.2,62.07L261.159,53.283C262.094,50.917 262.094,48.29 261.159,45.924C260.804,45.031 260.217,44.246 259.458,43.646C258.699,43.047 257.794,42.655 256.833,42.509C256.522,42.509 250.709,44.581 251.661,49.983C251.661,49.983 247.773,46.625 243.379,48.879C240.656,50.335 238.238,52.288 236.254,54.635Z" fill="#407BFF"/>
<path d="M247.831,32.369C247.054,30.631 246.389,28.846 245.838,27.025C245.838,27.025 249.6,24.992 248.201,21.039C246.801,17.087 242.796,8.308 242.796,8.308L234.164,7.838L229.653,16.616L238.149,35.804L247.831,32.369Z" fill="#B78876"/>
<path d="M244.225,15.091C244.267,15.189 244.278,15.297 244.258,15.402C244.237,15.506 244.186,15.602 244.11,15.678C244.034,15.754 243.937,15.805 243.831,15.826C243.726,15.847 243.616,15.837 243.516,15.797C243.417,15.756 243.331,15.687 243.271,15.599C243.211,15.511 243.179,15.407 243.179,15.3C243.179,15.194 243.211,15.09 243.271,15.001C243.33,14.913 243.416,14.844 243.515,14.803C243.581,14.775 243.652,14.76 243.723,14.76C243.795,14.759 243.866,14.772 243.932,14.799C243.998,14.826 244.058,14.866 244.108,14.916C244.159,14.966 244.198,15.026 244.225,15.091Z" fill="#263238"/>
<path d="M245.022,14.342C245.022,14.438 244.478,14.275 243.933,14.467C243.389,14.659 243.087,15.091 242.961,15.043C242.835,14.995 242.961,14.88 243.068,14.678C243.243,14.431 243.491,14.243 243.778,14.141C244.068,14.045 244.382,14.045 244.672,14.141C244.934,14.199 245.041,14.304 245.022,14.342Z" fill="#263238"/>
<path d="M238.548,17.48C238.603,17.611 238.603,17.758 238.548,17.889C238.494,18.02 238.389,18.125 238.256,18.18C238.191,18.208 238.12,18.223 238.048,18.224C237.977,18.225 237.906,18.211 237.84,18.184C237.774,18.157 237.714,18.118 237.663,18.068C237.613,18.017 237.573,17.958 237.547,17.892C237.526,17.773 237.547,17.651 237.605,17.545C237.663,17.44 237.756,17.356 237.868,17.309C237.98,17.261 238.106,17.252 238.223,17.283C238.341,17.314 238.445,17.383 238.519,17.48L238.548,17.48Z" fill="#263238"/>
<path d="M239.063,16.808C239.063,16.904 238.519,16.741 237.974,16.933C237.43,17.125 237.129,17.557 237.002,17.509C236.876,17.461 237.002,17.336 237.1,17.144C237.273,16.892 237.526,16.703 237.819,16.607C238.11,16.516 238.422,16.516 238.713,16.607C238.976,16.665 239.083,16.77 239.063,16.808Z" fill="#263238"/>
<path d="M242.903,20.492C243.156,20.297 243.434,20.136 243.729,20.012C243.865,19.945 243.992,19.878 243.972,19.763C243.953,19.648 243.856,19.514 243.719,19.379L242.884,18.42C242.138,17.631 241.458,16.784 240.852,15.887C241.654,16.62 242.398,17.412 243.078,18.257L243.894,19.216C244.048,19.359 244.151,19.548 244.186,19.753C244.186,20.022 243.924,20.118 243.807,20.166C243.52,20.309 243.216,20.419 242.903,20.492Z" fill="#263238"/>
<path d="M241.26,21.729C242.281,21.856 243.316,21.791 244.313,21.538C244.23,21.887 244.031,22.199 243.747,22.423C243.463,22.648 243.111,22.772 242.747,22.775C242.412,22.816 242.073,22.731 241.798,22.538C241.522,22.344 241.331,22.056 241.26,21.729Z" fill="#FFFFFF"/>
<path d="M245.839,27.026C243.952,27.714 241.905,27.857 239.938,27.438C239.938,27.438 242.31,29.779 246.159,28.004L245.839,27.026Z" fill="#A36957"/>
<path d="M231.248,20.08C230.778,20.076 230.311,20.151 229.867,20.301C229.65,20.378 229.456,20.507 229.302,20.676C229.147,20.845 229.038,21.049 228.983,21.27C228.966,21.441 228.984,21.614 229.036,21.779C229.088,21.944 229.172,22.097 229.284,22.229C229.461,22.437 229.682,22.606 229.931,22.724C230.18,22.842 230.451,22.906 230.727,22.912C231.003,22.919 231.277,22.867 231.531,22.761C231.785,22.655 232.013,22.496 232.2,22.296Z" fill="#B78876"/>
<path d="M246.645,78.37C246.645,78.37 246.927,98.67 264.094,98.2L263.744,76.624L246.645,78.37Z" fill="#407BFF"/>
<path d="M364.939,73.631C364.375,71.904 362.858,77.66 362.285,79.972C355.48,79.138 335.883,77.037 317.695,77.679C298.594,78.36 285.471,79.483 276.945,82.476L265.737,98.056L316.869,89.892L364.696,90.909C364.696,90.909 365.638,75.77 364.939,73.631Z" fill="#B78876"/>
<path d="M284.226,80.577L277.937,96.233L268.187,97.855L284.226,80.577Z" fill="#A36957"/>
<path d="M328.223,90.343L321.506,90.199L311.153,77.89L317.695,77.679L328.223,90.343Z" fill="#A36957"/>
<path d="M245.518,10.256C245.333,10.39 240.657,12.501 240.657,12.501L238.801,9.69L239.87,13.028L232.511,16.405L233.406,26.709L227.505,15.772C227.505,15.772 226.669,5.689 234.883,5.075C243.097,4.461 245.518,10.256 245.518,10.256Z" fill="#263238"/>
<path d="M244.293,54.924C244.39,55.005 244.472,55.103 244.536,55.212C244.734,55.506 244.882,55.83 244.973,56.171C245.132,56.65 245.192,57.156 245.148,57.658C245.129,57.96 245.064,58.258 244.954,58.541C244.889,58.709 244.777,58.856 244.63,58.965C244.484,59.074 244.31,59.139 244.128,59.155C243.944,59.133 243.772,59.056 243.634,58.934C243.497,58.812 243.401,58.651 243.36,58.473C243.269,58.185 243.223,57.884 243.224,57.581C243.221,57.074 243.323,56.571 243.525,56.104C243.654,55.791 243.832,55.5 244.05,55.24C244.215,55.058 244.322,54.981 244.332,54.991C244.077,55.361 243.862,55.756 243.69,56.171C243.52,56.618 243.441,57.094 243.457,57.572C243.46,57.852 243.505,58.13 243.593,58.397C243.681,58.656 243.865,58.905 244.128,58.905C244.711,58.905 244.867,58.138 244.915,57.639C244.963,57.163 244.927,56.683 244.808,56.219C244.677,55.773 244.504,55.339 244.293,54.924Z" fill="#FFFFFF"/>
<path d="M244.176,54.933C244.176,54.933 244.176,54.789 244.176,54.559C244.243,54.225 244.357,53.902 244.516,53.6C244.76,53.151 245.09,52.753 245.489,52.429C245.717,52.227 245.976,52.062 246.256,51.94C246.423,51.867 246.607,51.842 246.788,51.867C246.968,51.893 247.138,51.968 247.277,52.084C247.39,52.228 247.455,52.402 247.466,52.583C247.476,52.765 247.431,52.945 247.335,53.101C247.188,53.364 247.005,53.606 246.791,53.82C246.432,54.185 245.998,54.47 245.518,54.655C245.209,54.788 244.881,54.869 244.546,54.895C244.424,54.918 244.298,54.918 244.176,54.895C244.618,54.807 245.051,54.679 245.469,54.511C245.909,54.31 246.306,54.027 246.636,53.676C246.831,53.476 246.998,53.25 247.131,53.005C247.208,52.897 247.25,52.768 247.25,52.635C247.25,52.503 247.208,52.374 247.131,52.266C246.704,51.873 246.062,52.266 245.673,52.611C245.284,52.911 244.955,53.278 244.701,53.696C244.492,54.093 244.317,54.507 244.176,54.933Z" fill="#FFFFFF"/>
<path d="M244.205,54.914C244.083,54.877 243.971,54.815 243.875,54.731C243.601,54.534 243.359,54.298 243.155,54.031C242.84,53.632 242.605,53.175 242.465,52.688C242.38,52.395 242.341,52.091 242.349,51.786C242.346,51.606 242.399,51.429 242.499,51.279C242.6,51.128 242.744,51.011 242.912,50.942C243.094,50.893 243.286,50.903 243.461,50.97C243.636,51.038 243.785,51.159 243.884,51.316C244.069,51.556 244.216,51.821 244.322,52.103C244.504,52.577 244.584,53.083 244.555,53.59C244.537,53.917 244.472,54.24 244.361,54.549C244.326,54.671 244.266,54.786 244.186,54.885C244.293,54.451 244.358,54.007 244.38,53.561C244.381,53.081 244.289,52.606 244.108,52.16C244.005,51.904 243.867,51.662 243.7,51.441C243.629,51.328 243.525,51.239 243.402,51.186C243.278,51.132 243.142,51.118 243.01,51.143C242.475,51.364 242.582,52.103 242.708,52.592C242.83,53.058 243.034,53.5 243.311,53.897C243.584,54.257 243.883,54.597 244.205,54.914Z" fill="#FFFFFF"/>
<path d="M244.167,55.019C244.083,55.113 243.98,55.188 243.865,55.24C243.56,55.406 243.233,55.528 242.893,55.605C242.394,55.726 241.875,55.749 241.367,55.672C241.064,55.635 240.768,55.551 240.492,55.422C240.328,55.345 240.189,55.224 240.091,55.073C239.994,54.923 239.94,54.748 239.938,54.568C239.981,54.385 240.083,54.219 240.228,54.097C240.373,53.974 240.554,53.901 240.745,53.887C241.043,53.814 241.352,53.791 241.659,53.82C242.171,53.846 242.671,53.98 243.127,54.213C243.435,54.363 243.717,54.561 243.963,54.799C244.058,54.879 244.138,54.977 244.196,55.086C243.836,54.813 243.452,54.572 243.049,54.367C242.602,54.177 242.125,54.067 241.639,54.041C241.358,54.033 241.078,54.059 240.803,54.118C240.541,54.194 240.269,54.357 240.249,54.616C240.249,55.192 240.978,55.393 241.474,55.48C241.954,55.557 242.443,55.557 242.922,55.48C243.349,55.36 243.765,55.206 244.167,55.019Z" fill="#FFFFFF"/>
<path d="M244.079,55.067C244.179,54.985 244.295,54.923 244.419,54.885C244.749,54.754 245.096,54.671 245.45,54.636C245.978,54.582 246.512,54.624 247.024,54.76C247.336,54.842 247.627,54.986 247.88,55.183C248.023,55.295 248.135,55.443 248.203,55.611C248.271,55.78 248.294,55.962 248.269,56.142C248.216,56.307 248.129,56.46 248.013,56.59C247.898,56.72 247.756,56.825 247.597,56.898C247.437,56.971 247.265,57.011 247.089,57.015C246.914,57.018 246.739,56.986 246.577,56.919C246.079,56.734 245.623,56.454 245.236,56.094C244.977,55.86 244.73,55.614 244.497,55.355C244.332,55.163 244.254,55.058 244.274,55.039C244.293,55.019 244.672,55.413 245.353,55.998C245.735,56.321 246.173,56.574 246.645,56.746C246.777,56.798 246.917,56.824 247.058,56.821C247.2,56.818 247.339,56.787 247.468,56.729C247.597,56.672 247.713,56.59 247.809,56.487C247.904,56.384 247.978,56.264 248.026,56.132C248.123,55.528 247.481,55.173 246.956,55C246.472,54.854 245.965,54.796 245.459,54.828C244.994,54.874 244.533,54.954 244.079,55.067Z" fill="#FFFFFF"/>
<path d="M253.43,64.44C253.43,64.44 253.537,64.526 253.673,64.728C253.871,65.022 254.019,65.346 254.111,65.687C254.27,66.166 254.329,66.672 254.286,67.174C254.267,67.476 254.201,67.774 254.091,68.057C254.026,68.226 253.914,68.373 253.768,68.481C253.622,68.59 253.447,68.656 253.265,68.671C253.081,68.65 252.909,68.573 252.771,68.451C252.634,68.329 252.538,68.168 252.497,67.99C252.406,67.701 252.36,67.4 252.361,67.097C252.358,66.59 252.461,66.087 252.662,65.62C252.792,65.308 252.969,65.016 253.187,64.757C253.353,64.574 253.46,64.498 253.469,64.507C253.214,64.877 252.999,65.273 252.828,65.687C252.657,66.134 252.578,66.61 252.594,67.088C252.597,67.368 252.643,67.646 252.73,67.913C252.818,68.172 253.003,68.421 253.265,68.421C253.848,68.421 254.004,67.654 254.053,67.155C254.1,66.679 254.064,66.199 253.946,65.735C253.814,65.289 253.641,64.855 253.43,64.44Z" fill="#FFFFFF"/>
<path d="M253.314,64.44C253.314,64.44 253.314,64.306 253.314,64.076C253.38,63.742 253.495,63.419 253.654,63.116C253.898,62.668 254.228,62.27 254.626,61.946C254.855,61.744 255.114,61.579 255.394,61.457C255.561,61.384 255.745,61.359 255.926,61.384C256.106,61.41 256.276,61.485 256.415,61.601C256.527,61.745 256.593,61.919 256.603,62.1C256.614,62.282 256.568,62.462 256.473,62.618C256.326,62.881 256.143,63.123 255.929,63.337C255.57,63.702 255.136,63.987 254.655,64.172C254.347,64.305 254.019,64.386 253.683,64.412C253.561,64.435 253.436,64.435 253.314,64.412C253.756,64.324 254.189,64.196 254.607,64.028C255.047,63.827 255.443,63.544 255.773,63.193C255.968,62.992 256.135,62.767 256.269,62.522C256.346,62.413 256.387,62.285 256.387,62.152C256.387,62.02 256.346,61.891 256.269,61.783C255.841,61.39 255.2,61.783 254.811,62.128C254.422,62.428 254.093,62.795 253.839,63.212C253.633,63.608 253.458,64.019 253.314,64.44Z" fill="#FFFFFF"/>
<path d="M253.382,64.44C253.26,64.403 253.147,64.341 253.051,64.258C252.778,64.061 252.536,63.825 252.332,63.558C252.016,63.158 251.782,62.702 251.642,62.214C251.557,61.921 251.518,61.617 251.525,61.313C251.523,61.132 251.575,60.956 251.676,60.805C251.776,60.655 251.92,60.537 252.089,60.468C252.27,60.42 252.463,60.429 252.638,60.497C252.813,60.564 252.961,60.685 253.061,60.843C253.246,61.082 253.393,61.347 253.499,61.629C253.681,62.103 253.761,62.61 253.732,63.116C253.714,63.444 253.648,63.767 253.537,64.076C253.502,64.198 253.443,64.312 253.362,64.411C253.47,63.977 253.535,63.534 253.557,63.087C253.558,62.608 253.465,62.132 253.285,61.687C253.181,61.43 253.044,61.188 252.876,60.967C252.805,60.855 252.701,60.767 252.578,60.714C252.455,60.661 252.318,60.646 252.186,60.67C251.652,60.891 251.758,61.629 251.885,62.119C251.976,62.6 252.154,63.061 252.41,63.481C252.71,63.824 253.034,64.144 253.382,64.44Z" fill="#FFFFFF"/>
<path d="M253.304,64.565C253.221,64.659 253.118,64.734 253.003,64.786C252.698,64.951 252.37,65.074 252.031,65.15C251.531,65.272 251.013,65.295 250.504,65.217C250.202,65.176 249.907,65.092 249.63,64.968C249.466,64.891 249.327,64.77 249.229,64.619C249.131,64.468 249.078,64.293 249.076,64.114C249.109,63.935 249.199,63.771 249.331,63.643C249.463,63.516 249.632,63.433 249.814,63.404C250.113,63.33 250.422,63.308 250.728,63.337C251.24,63.363 251.741,63.497 252.196,63.73C252.505,63.88 252.787,64.078 253.032,64.316C253.128,64.396 253.207,64.493 253.265,64.603C252.909,64.326 252.524,64.085 252.118,63.884C251.671,63.694 251.194,63.583 250.709,63.558C250.428,63.55 250.147,63.576 249.873,63.634C249.61,63.711 249.338,63.874 249.319,64.133C249.319,64.709 250.048,64.91 250.543,64.997C251.023,65.074 251.512,65.074 251.992,64.997C252.44,64.887 252.879,64.743 253.304,64.565Z" fill="#FFFFFF"/>
<path d="M253.216,64.613C253.316,64.531 253.432,64.469 253.557,64.431C253.887,64.3 254.233,64.216 254.587,64.182C255.115,64.123 255.65,64.165 256.162,64.306C256.473,64.388 256.764,64.532 257.017,64.728C257.161,64.841 257.272,64.989 257.34,65.157C257.408,65.326 257.431,65.508 257.406,65.688C257.352,65.852 257.265,66.004 257.149,66.133C257.033,66.263 256.891,66.367 256.732,66.44C256.573,66.513 256.401,66.553 256.226,66.557C256.051,66.561 255.877,66.53 255.715,66.465C255.217,66.28 254.761,66 254.373,65.64C254.114,65.406 253.868,65.16 253.635,64.901C253.469,64.709 253.391,64.604 253.411,64.584C253.43,64.565 253.809,64.959 254.49,65.544C254.873,65.864 255.311,66.114 255.783,66.283C255.913,66.336 256.053,66.363 256.195,66.361C256.336,66.36 256.476,66.33 256.605,66.273C256.734,66.217 256.85,66.135 256.946,66.032C257.042,65.93 257.116,65.81 257.163,65.678C257.26,65.074 256.619,64.719 256.094,64.546C255.609,64.4 255.102,64.342 254.597,64.373C254.131,64.42 253.67,64.5 253.216,64.613Z" fill="#FFFFFF"/>
<path d="M265.047,71.041C265.047,71.041 265.154,71.127 265.29,71.319C265.483,71.615 265.631,71.939 265.727,72.278C265.877,72.763 265.936,73.27 265.902,73.775C265.882,74.077 265.817,74.374 265.708,74.657C265.641,74.826 265.526,74.972 265.378,75.079C265.23,75.186 265.055,75.249 264.872,75.262C264.69,75.242 264.52,75.167 264.384,75.046C264.248,74.926 264.153,74.766 264.114,74.59C264.023,74.298 263.977,73.994 263.978,73.689C263.973,73.185 264.072,72.685 264.269,72.221C264.403,71.908 264.583,71.617 264.804,71.357C264.959,71.175 265.076,71.098 265.086,71.108C264.83,71.476 264.612,71.868 264.434,72.278C264.272,72.731 264.197,73.209 264.211,73.689C264.214,73.965 264.257,74.239 264.337,74.504C264.434,74.763 264.619,75.012 264.882,75.012C265.465,75.012 265.62,74.255 265.669,73.756C265.718,73.276 265.679,72.792 265.552,72.326C265.425,71.883 265.256,71.453 265.047,71.041Z" fill="#FFFFFF"/>
<path d="M264.901,71.041C264.901,71.041 264.901,70.906 264.901,70.676C264.961,70.34 265.076,70.016 265.241,69.717C265.487,69.266 265.817,68.866 266.214,68.537C266.445,68.334 266.707,68.169 266.991,68.047C267.159,67.976 267.343,67.952 267.524,67.979C267.704,68.006 267.874,68.083 268.012,68.201C268.114,68.338 268.175,68.502 268.185,68.672C268.195,68.842 268.155,69.012 268.07,69.16C267.923,69.429 267.736,69.675 267.516,69.889C267.161,70.254 266.73,70.539 266.252,70.724C265.943,70.853 265.615,70.934 265.28,70.964C265.037,70.964 264.901,70.964 264.901,70.964C265.347,70.879 265.784,70.75 266.204,70.58C266.641,70.379 267.037,70.099 267.37,69.755C267.566,69.551 267.732,69.322 267.866,69.074C267.941,68.967 267.981,68.84 267.981,68.709C267.981,68.579 267.941,68.452 267.866,68.345C267.438,67.951 266.797,68.345 266.408,68.69C266.019,68.989 265.689,69.357 265.436,69.774C265.217,70.179 265.038,70.603 264.901,71.041Z" fill="#FFFFFF"/>
<path d="M264.93,71.031C264.807,70.996 264.694,70.934 264.6,70.849C264.325,70.646 264.08,70.407 263.871,70.139C263.558,69.739 263.327,69.283 263.19,68.796C263.107,68.506 263.064,68.205 263.064,67.904C263.068,67.722 263.124,67.546 263.226,67.395C263.327,67.244 263.47,67.124 263.638,67.05C263.819,67.004 264.01,67.015 264.185,67.082C264.359,67.15 264.508,67.269 264.61,67.424C264.794,67.667 264.942,67.935 265.047,68.22C265.23,68.694 265.31,69.201 265.28,69.707C265.262,70.034 265.197,70.358 265.086,70.667C265.052,70.786 264.992,70.897 264.911,70.993C265.02,70.562 265.085,70.122 265.105,69.678C265.106,69.199 265.014,68.723 264.833,68.278C264.731,68.016 264.59,67.77 264.415,67.549C264.344,67.439 264.241,67.353 264.12,67.302C263.998,67.251 263.864,67.236 263.735,67.261C263.2,67.481 263.307,68.22 263.433,68.709C263.555,69.173 263.759,69.611 264.036,70.005C264.304,70.371 264.603,70.715 264.93,71.031Z" fill="#FFFFFF"/>
<path d="M264.891,71.156C264.802,71.243 264.701,71.317 264.59,71.376C264.285,71.542 263.958,71.665 263.618,71.741C263.119,71.863 262.6,71.885 262.092,71.808C261.789,71.768 261.494,71.684 261.217,71.559C261.051,71.481 260.912,71.358 260.814,71.206C260.716,71.053 260.663,70.876 260.663,70.695C260.695,70.518 260.783,70.355 260.914,70.23C261.044,70.104 261.211,70.022 261.392,69.995C261.691,69.923 261.999,69.897 262.306,69.918C262.82,69.951 263.322,70.085 263.783,70.311C264.089,70.462 264.367,70.659 264.609,70.897C264.784,71.069 264.862,71.175 264.843,71.184C264.488,70.912 264.107,70.674 263.705,70.474C263.262,70.276 262.783,70.165 262.296,70.148C262.015,70.131 261.733,70.157 261.46,70.225C261.188,70.292 260.925,70.465 260.906,70.724C260.906,71.3 261.625,71.501 262.131,71.587C262.61,71.67 263.1,71.67 263.579,71.587C264.026,71.475 264.465,71.33 264.891,71.156Z" fill="#FFFFFF"/>
<path d="M264.804,71.156C264.904,71.073 265.019,71.011 265.144,70.974C265.474,70.843 265.821,70.759 266.174,70.724C266.702,70.661 267.238,70.703 267.749,70.849C268.064,70.923 268.356,71.067 268.605,71.271C268.748,71.384 268.859,71.532 268.927,71.7C268.996,71.868 269.018,72.051 268.993,72.23C268.939,72.395 268.852,72.547 268.736,72.676C268.62,72.805 268.478,72.91 268.319,72.983C268.161,73.056 267.988,73.096 267.813,73.1C267.638,73.104 267.464,73.073 267.302,73.008C266.801,72.823 266.345,72.539 265.961,72.173C265.699,71.942 265.452,71.695 265.222,71.434C265.127,71.346 265.048,71.242 264.988,71.127C264.988,71.127 265.397,71.501 266.077,72.039C266.457,72.365 266.896,72.619 267.37,72.787C267.501,72.839 267.641,72.865 267.781,72.863C267.922,72.86 268.061,72.83 268.19,72.774C268.319,72.717 268.435,72.636 268.531,72.534C268.627,72.433 268.702,72.313 268.75,72.183C268.848,71.578 268.206,71.175 267.681,71.05C267.197,70.904 266.69,70.846 266.184,70.878C265.717,70.931 265.255,71.024 264.804,71.156Z" fill="#FFFFFF"/>
<path d="M253.051,78.341C253.051,78.341 253.158,78.418 253.294,78.619C253.487,78.899 253.635,79.206 253.732,79.531C253.89,80.01 253.95,80.516 253.907,81.018C253.887,81.323 253.821,81.624 253.712,81.91C253.646,82.077 253.533,82.222 253.387,82.329C253.241,82.436 253.067,82.5 252.886,82.514C252.702,82.495 252.529,82.418 252.391,82.296C252.253,82.174 252.158,82.012 252.118,81.833C252.027,81.544 251.981,81.244 251.982,80.941C251.979,80.433 252.082,79.931 252.283,79.464C252.41,79.153 252.587,78.864 252.808,78.61C252.973,78.428 253.08,78.341 253.09,78.351C252.835,78.721 252.62,79.116 252.449,79.531C252.278,79.978 252.199,80.454 252.215,80.931C252.218,81.212 252.264,81.49 252.351,81.757C252.439,82.016 252.623,82.265 252.886,82.265C253.469,82.265 253.625,81.507 253.673,80.999C253.721,80.523 253.685,80.042 253.566,79.579C253.433,79.152 253.261,78.737 253.051,78.341Z" fill="#FFFFFF"/>
<path d="M252.935,78.342C252.935,78.342 252.935,78.207 252.935,77.967C253.001,77.633 253.116,77.31 253.275,77.008C253.519,76.559 253.849,76.162 254.247,75.838C254.475,75.636 254.735,75.471 255.015,75.348C255.182,75.275 255.366,75.25 255.546,75.276C255.727,75.301 255.896,75.376 256.036,75.492C256.148,75.636 256.214,75.81 256.224,75.992C256.235,76.173 256.189,76.354 256.094,76.509C255.945,76.774 255.762,77.019 255.55,77.238C255.185,77.597 254.753,77.881 254.276,78.073C253.966,78.199 253.638,78.277 253.304,78.303C253.182,78.327 253.057,78.327 252.935,78.303C253.377,78.216 253.81,78.087 254.228,77.919C254.668,77.719 255.064,77.435 255.394,77.085C255.591,76.886 255.758,76.66 255.89,76.413C255.964,76.304 256.004,76.175 256.004,76.044C256.004,75.912 255.964,75.784 255.89,75.675C255.462,75.291 254.821,75.675 254.432,76.02C254.045,76.322 253.716,76.689 253.46,77.104C253.253,77.503 253.077,77.916 252.935,78.342Z" fill="#FFFFFF"/>
<path d="M252.964,78.322C252.964,78.322 252.838,78.322 252.634,78.149C252.363,77.946 252.121,77.707 251.914,77.439C251.598,77.04 251.364,76.584 251.224,76.096C251.138,75.803 251.099,75.499 251.107,75.195C251.105,75.014 251.158,74.838 251.258,74.687C251.359,74.537 251.502,74.419 251.671,74.35C251.852,74.303 252.044,74.314 252.219,74.381C252.394,74.448 252.542,74.568 252.643,74.724C252.828,74.967 252.975,75.236 253.081,75.521C253.372,76.321 253.372,77.196 253.081,77.996C253.043,78.114 252.984,78.225 252.906,78.322C253.013,77.888 253.078,77.445 253.1,76.998C253.101,76.518 253.009,76.043 252.828,75.597C252.724,75.341 252.587,75.099 252.42,74.878C252.347,74.767 252.243,74.679 252.12,74.626C251.997,74.574 251.861,74.558 251.729,74.581C251.195,74.801 251.302,75.54 251.428,76.039C251.552,76.501 251.756,76.94 252.031,77.334C252.31,77.691 252.623,78.022 252.964,78.322Z" fill="#FFFFFF"/>
<path d="M252.925,78.428C252.925,78.428 252.828,78.533 252.624,78.648C252.319,78.818 251.992,78.944 251.651,79.023C251.151,79.135 250.634,79.157 250.125,79.09C249.822,79.049 249.526,78.962 249.25,78.831C249.087,78.754 248.948,78.633 248.85,78.482C248.752,78.331 248.699,78.156 248.696,77.977C248.73,77.798 248.819,77.633 248.952,77.506C249.084,77.379 249.253,77.295 249.435,77.267C249.734,77.198 250.043,77.175 250.349,77.2C250.86,77.23 251.36,77.364 251.817,77.593C252.123,77.746 252.405,77.943 252.653,78.178C252.749,78.258 252.828,78.356 252.886,78.466C252.524,78.196 252.14,77.956 251.739,77.747C251.293,77.555 250.815,77.448 250.329,77.43C250.049,77.415 249.768,77.437 249.493,77.497C249.231,77.574 248.959,77.747 248.939,77.996C248.939,78.572 249.668,78.773 250.164,78.859C250.643,78.947 251.134,78.947 251.613,78.859C252.063,78.758 252.503,78.613 252.925,78.428Z" fill="#FFFFFF"/>
<path d="M252.838,78.485C252.838,78.485 252.945,78.389 253.178,78.294C254.01,77.974 254.925,77.933 255.783,78.178C256.095,78.252 256.388,78.393 256.639,78.591C256.782,78.704 256.893,78.852 256.961,79.02C257.03,79.188 257.052,79.371 257.027,79.55C256.975,79.716 256.888,79.868 256.772,79.998C256.656,80.129 256.514,80.234 256.355,80.307C256.196,80.38 256.023,80.419 255.848,80.423C255.672,80.427 255.498,80.394 255.336,80.327C254.838,80.143 254.382,79.862 253.994,79.502C253.735,79.269 253.489,79.022 253.256,78.764C253.09,78.572 253.013,78.466 253.032,78.457C253.052,78.447 253.431,78.821 254.111,79.416C254.494,79.739 254.931,79.992 255.404,80.164C255.535,80.216 255.676,80.242 255.817,80.239C255.958,80.236 256.098,80.205 256.227,80.147C256.356,80.09 256.471,80.008 256.567,79.905C256.663,79.802 256.737,79.682 256.784,79.55C256.882,78.955 256.24,78.591 255.715,78.418C255.23,78.277 254.723,78.219 254.218,78.246C253.751,78.283 253.289,78.363 252.838,78.485Z" fill="#FFFFFF"/>
<path d="M256.755,51.124C256.755,51.124 256.862,51.211 256.998,51.412C257.196,51.706 257.344,52.03 257.435,52.371C257.585,52.853 257.644,53.356 257.61,53.858C257.593,54.162 257.524,54.46 257.406,54.741C257.34,54.908 257.227,55.053 257.081,55.16C256.935,55.267 256.761,55.331 256.58,55.345C256.398,55.325 256.226,55.249 256.089,55.129C255.951,55.009 255.855,54.85 255.812,54.674C255.724,54.385 255.681,54.084 255.686,53.782C255.68,53.275 255.779,52.772 255.977,52.304C256.113,51.993 256.293,51.702 256.512,51.441C256.586,51.341 256.678,51.257 256.784,51.191C256.533,51.564 256.319,51.959 256.143,52.371C255.981,52.821 255.905,53.296 255.919,53.772C255.922,54.048 255.965,54.323 256.045,54.588C256.143,54.856 256.327,55.106 256.59,55.106C257.173,55.106 257.329,54.338 257.377,53.839C257.427,53.363 257.387,52.882 257.26,52.419C257.129,51.975 256.959,51.541 256.755,51.124Z" fill="#FFFFFF"/>
<path d="M256.629,51.125C256.609,51.004 256.609,50.881 256.629,50.76C256.699,50.426 256.817,50.103 256.979,49.801C257.221,49.348 257.551,48.947 257.951,48.621C258.182,48.418 258.444,48.253 258.728,48.132C258.888,48.063 259.065,48.041 259.237,48.068C259.409,48.095 259.57,48.171 259.7,48.285C259.807,48.421 259.869,48.585 259.879,48.756C259.89,48.927 259.848,49.097 259.759,49.244C259.621,49.516 259.437,49.763 259.214,49.974C258.857,50.336 258.427,50.621 257.951,50.808C257.641,50.936 257.313,51.017 256.979,51.048C256.853,51.071 256.725,51.071 256.599,51.048C257.045,50.963 257.482,50.834 257.902,50.664C258.34,50.46 258.736,50.177 259.069,49.83C259.264,49.629 259.43,49.403 259.564,49.158C259.639,49.049 259.678,48.92 259.678,48.789C259.678,48.657 259.639,48.529 259.564,48.419C259.137,48.026 258.495,48.419 258.106,48.765C257.715,49.062 257.386,49.43 257.134,49.849C256.931,50.26 256.762,50.687 256.629,51.125Z" fill="#FFFFFF"/>
<path d="M256.668,51.115C256.545,51.08 256.431,51.018 256.337,50.932C256.06,50.732 255.815,50.493 255.608,50.222C255.295,49.822 255.064,49.366 254.928,48.879C254.843,48.589 254.801,48.289 254.801,47.987C254.805,47.806 254.861,47.63 254.963,47.478C255.064,47.327 255.207,47.208 255.375,47.133C255.556,47.09 255.746,47.103 255.92,47.17C256.094,47.237 256.243,47.355 256.347,47.507C256.529,47.751 256.677,48.02 256.784,48.304C256.962,48.779 257.042,49.285 257.018,49.791C257.001,50.119 256.933,50.443 256.813,50.75C256.781,50.872 256.725,50.986 256.648,51.086C256.75,50.651 256.815,50.208 256.843,49.762C256.839,49.283 256.746,48.808 256.57,48.361C256.469,48.102 256.328,47.859 256.152,47.642C256.083,47.53 255.981,47.441 255.859,47.388C255.738,47.335 255.603,47.319 255.472,47.344C254.937,47.565 255.044,48.304 255.171,48.793C255.293,49.259 255.497,49.701 255.773,50.098C256.042,50.46 256.342,50.801 256.668,51.115Z" fill="#FFFFFF"/>
<path d="M256.619,51.221C256.619,51.221 256.532,51.326 256.327,51.441C256.022,51.607 255.695,51.73 255.355,51.806C254.856,51.928 254.337,51.95 253.829,51.873C253.527,51.833 253.232,51.749 252.954,51.624C252.789,51.548 252.648,51.428 252.548,51.277C252.448,51.126 252.394,50.95 252.391,50.77C252.426,50.591 252.515,50.428 252.647,50.301C252.779,50.174 252.947,50.09 253.129,50.06C253.428,49.988 253.736,49.962 254.043,49.983C254.556,50.014 255.056,50.151 255.511,50.386C255.82,50.531 256.102,50.726 256.347,50.962C256.443,51.042 256.522,51.14 256.58,51.249C256.225,50.977 255.844,50.739 255.443,50.54C254.998,50.345 254.52,50.234 254.033,50.213C253.753,50.206 253.472,50.231 253.197,50.29C252.925,50.367 252.663,50.53 252.643,50.789C252.643,51.365 253.363,51.566 253.868,51.652C254.347,51.735 254.837,51.735 255.316,51.652C255.763,51.547 256.199,51.402 256.619,51.221Z" fill="#FFFFFF"/>
<path d="M256.541,51.268C256.641,51.185 256.757,51.123 256.881,51.086C257.21,50.953 257.558,50.869 257.912,50.836C258.44,50.778 258.975,50.82 259.487,50.961C259.799,51.039 260.091,51.183 260.342,51.383C260.485,51.496 260.597,51.644 260.665,51.812C260.733,51.98 260.756,52.163 260.731,52.343C260.677,52.507 260.589,52.659 260.473,52.788C260.357,52.918 260.215,53.022 260.057,53.095C259.898,53.168 259.726,53.208 259.551,53.212C259.376,53.216 259.202,53.185 259.039,53.12C258.539,52.935 258.082,52.651 257.698,52.285C257.434,52.057 257.187,51.81 256.959,51.546C256.864,51.458 256.785,51.354 256.726,51.239C256.726,51.239 257.134,51.613 257.815,52.151C258.193,52.479 258.632,52.733 259.108,52.899C259.238,52.951 259.378,52.977 259.519,52.975C259.66,52.972 259.799,52.942 259.928,52.886C260.056,52.829 260.172,52.748 260.269,52.646C260.365,52.545 260.439,52.425 260.488,52.295C260.585,51.69 259.943,51.335 259.419,51.163C258.934,51.017 258.427,50.959 257.922,50.99C257.455,51.049 256.994,51.142 256.541,51.268Z" fill="#FFFFFF"/>
<path d="M342.172,92.012C342.172,92.012 317.87,49.283 306.837,43.833C295.804,38.384 257.951,77.919 257.951,77.919C243.01,95.811 260.459,99.466 267.361,97.903C270.909,97.097 299.206,61.514 302.278,61.447C305.35,61.38 332.121,95.14 332.121,95.14C332.121,95.14 347.528,95.332 349.667,94.526C351.806,93.72 342.172,92.012 342.172,92.012Z" fill="#B78876"/>
<path d="M230.606,6.937C230.867,6.088 230.985,5.203 230.956,4.317C230.929,3.421 230.585,2.562 229.984,1.89C229.488,1.406 228.848,1.09 228.158,0.988C227.467,0.886 226.762,1.004 226.144,1.324C225.539,1.667 225.047,2.175 224.73,2.789C224.412,3.402 224.282,4.093 224.355,4.778C224.446,5.463 224.716,6.112 225.139,6.662C225.562,7.212 226.123,7.644 226.766,7.915C227.414,8.172 228.114,8.278 228.81,8.225C229.506,8.172 230.181,7.961 230.781,7.608Z" fill="#263238"/>
</g>
<defs>
<filter id="filter1_1149" x="-10" y="-9.047852" width="342.080231" height="199.196945" filterUnits="userSpaceOnUse" color-interpolation-filters="sRGB">
<feFlood flood-opacity="0" result="BackgroundImageFix"/>
<feColorMatrix in="SourceAlpha" type="matrix" values="0 0 0 0 0 0 0 0 0 0 0 0 0 0 0 0 0 0 127 0" result="hardAlpha"/>
<feMorphology radius="0" operator="dilate" in="SourceAlpha" result="0dropshadow"/>
<feOffset dx="0" dy="4"/>
<feGaussianBlur stdDeviation="5"/>
<feComposite in2="hardAlpha" operator="out"/>
<feColorMatrix type="matrix" values="0 0 0 0 0 0 0 0 0 0 0 0 0 0 0 0 0 0 0.25 0"/>
<feBlend mode="normal" in2="BackgroundImageFix" result="0dropshadow"/>
<feBlend mode="normal" in="SourceGraphic" in2="0dropshadow" result="shape"/>
</filter>
</defs>
</svg>
